<?xml version="1.0" encoding="utf-8"?>
<!-- Generated by IcoMoon.io -->
<!DOCTYPE svg PUBLIC "-//W3C//DTD SVG 1.1//EN" "http://www.w3.org/Graphics/SVG/1.1/DTD/svg11.dtd">
<svg version="1.1" xmlns="http://www.w3.org/2000/svg" xmlns:xlink="http://www.w3.org/1999/xlink" width="512" height="512" viewBox="0 0 512 512">
<g>
</g>
	<path d="M454.861 317.839c0.123 0.236 0.123 0.389 0.123 0.635 0 19.569-15.647 35.492-34.826 35.492-19.333 0-34.867-15.923-34.867-35.492 0-0.236 0-0.389 0-0.635h-215.613c0 0.236 0 0.389 0 0.635 0 19.569-15.678 35.492-34.857 35.492-19.21 0-34.877-15.923-34.877-35.492 0-0.236 0-0.389 0-0.635h-85.115c-4.823-4.793-8.857-9.964-12.124-15.739 0-5.458 0-11.038 0-16.445 2.642-2.663 6.308-3.42 10.486-3.42 0-7.834 0-15.647 0-23.368 0-33.833 120.853-35.614 129.587-31.97 19.958-20.091 40.048-40.038 59.975-60.089 9.605-7.321 20.47-10.014 32.451-8.222 37.765 0 75.806 0 113.797 0 13.896 0.604 23.757 9.216 32.983 19.067 15.534 15.534 25.877 31.068 41.421 46.623 16.926 0 39.168 0 56.074 0 14.151 4.28 17.705 12.626 19.098 21.596 0 11.223 0 22.498 0 33.7 5.54 0.533 9.728 3.298 10.721 10.896 0 3.758 0 7.7 0 11.643-5.181 5.284-10.486 10.445-15.79 15.739-8.96 0-17.93 0-26.89 0l-11.755-0.010zM160.952 317.839h-7.936c0 0.236 0 0.389 0 0.635 0 10.23-8.1 18.565-18.196 18.565-10.107 0-18.32-8.336-18.32-18.565 0-0.236 0-0.389 0-0.635h-7.834c0 0.236 0 0.389 0 0.635 0 14.674 11.755 26.542 26.153 26.542 14.398 0 26.132-11.868 26.132-26.542 0-0.246 0-0.389 0-0.635v0zM446.147 317.839h-7.834c0 0.236 0 0.389 0 0.635 0 10.23-8.212 18.565-18.166 18.565-10.117 0-18.34-8.336-18.34-18.565 0-0.236 0-0.389 0-0.635h-7.824c0 0.236 0 0.389 0 0.635 0 14.674 11.623 26.542 26.163 26.542 14.377 0 26.122-11.868 26.122-26.542 0-0.246 0-0.389-0.123-0.635v0zM397.271 223.764l-43.582-50.657h-58.983v50.145l102.564 0.512zM169.175 223.508l104.96-0.502v-50.166h-54.323l-50.637 50.667zM355.205 238.53v10.22h41.8v-10.22h-41.8zM224.348 238.53v10.22h41.81v-10.22h-41.81z" fill="#000000" />
</svg>
