<?xml version="1.0" encoding="utf-8"?>
<!-- Generator: Adobe Illustrator 16.0.0, SVG Export Plug-In . SVG Version: 6.00 Build 0)  -->
<!DOCTYPE svg PUBLIC "-//W3C//DTD SVG 1.1//EN" "http://www.w3.org/Graphics/SVG/1.1/DTD/svg11.dtd">
<svg version="1.1" id="Layer_1" xmlns="http://www.w3.org/2000/svg" xmlns:xlink="http://www.w3.org/1999/xlink" x="0px" y="0px"
	 width="512px" height="512px" viewBox="0 0 512 512" enable-background="new 0 0 512 512" xml:space="preserve">
<g>
	<path d="M446.313,144.813C447.031,139.25,448,133.75,448,128C448,57.313,390.719,0,320,0c-41.813,0-78.594,20.344-101.938,51.375
		C209.656,49.344,201,48,192,48C130.125,48,80,98.125,80,160c0,1.75,0.438,3.313,0.5,5.063C34.094,178.719,0,221.156,0,272
		c0,61.875,50.125,112,112,112h272c70.719,0,128-57.281,128-128C512,208.063,485.344,166.75,446.313,144.813z"/>
	<path d="M127.719,439.656l-18.344,26.188C152.5,496.031,203.188,512,256,512s103.5-15.969,146.656-46.156l-18.375-26.188
		C308.875,492.406,203.188,492.406,127.719,439.656z"/>
	<path d="M318.281,403.406c-39.469,16.719-85.094,16.719-124.438,0.063l-12.438,29.5C205.031,442.938,230.125,448,256,448
		s51.031-5.094,74.719-15.094L318.281,403.406z"/>
</g>
</svg>
