<?xml version="1.0" encoding="utf-8"?>
<!-- Generated by IcoMoon.io -->
<!DOCTYPE svg PUBLIC "-//W3C//DTD SVG 1.1//EN" "http://www.w3.org/Graphics/SVG/1.1/DTD/svg11.dtd">
<svg version="1.1" xmlns="http://www.w3.org/2000/svg" xmlns:xlink="http://www.w3.org/1999/xlink" width="512" height="512" viewBox="0 0 512 512">
<g>
</g>
	<path d="M348.611 454.851v-230.195c7.783 0 7.394 3.461 7.394 6.062v179.159c0 23.337 16.845 39.322 37.192 39.322 14.848 0 26.993-8.12 33.024-20.664-2.786 1.822-6.185 2.98-10.107 2.98-11.663 0-19.036-8.704-19.036-21.637v-197.366c0-6.902-7.783-9.964-15.575-9.964h-10.404v-107.715c5.233 3.481 8.673 7.803 8.673 12.964v35.481h20.787v-10.782c0-12.984-4.762-24.258-11.694-29.86l-40.243-32.901v-26.829c0-10.404-8.663-19.056-19.456-19.056h-146.299c-10.373 0-19.036 8.663-19.036 19.056v411.945h-91.74v33.3h367.821v-33.3h-91.3zM321.003 149.545c0 5.642-5.212 9.943-9.974 9.943h-110.766c-4.762 0-9.964-4.301-9.964-9.943v-84.777c0-5.663 5.202-9.984 9.964-9.984h110.766c4.762 0 9.974 4.322 9.974 9.984v84.777z" fill="#000000" />
	<path d="M430.377 410.265c0 6.779-1.577 12.841-4.168 18.258 5.652-3.717 8.94-10.455 8.94-18.258 0-22.057-30.71-74.424-30.71-112.916v-154.082h-3.901v160.143c0 20.736 29.839 84.798 29.839 106.855z" fill="#000000" />
</svg>
