<?xml version="1.0" encoding="UTF-8" standalone="no"?>
<!-- Created with Inkscape (http://www.inkscape.org/) -->

<svg
   xmlns:dc="http://purl.org/dc/elements/1.1/"
   xmlns:cc="http://creativecommons.org/ns#"
   xmlns:rdf="http://www.w3.org/1999/02/22-rdf-syntax-ns#"
   xmlns:svg="http://www.w3.org/2000/svg"
   xmlns="http://www.w3.org/2000/svg"
   xmlns:xlink="http://www.w3.org/1999/xlink"
   xmlns:sodipodi="http://sodipodi.sourceforge.net/DTD/sodipodi-0.dtd"
   xmlns:inkscape="http://www.inkscape.org/namespaces/inkscape"
   id="svg2"
   version="1.1"
   inkscape:version="0.48.5 r10040"
   width="1280"
   height="1280"
   xml:space="preserve"
   sodipodi:docname="oi_cloud.ai.svg"
   inkscape:export-filename="/Users/weareu/Downloads/openitem_cloud_logo.png"
   inkscape:export-xdpi="90"
   inkscape:export-ydpi="90"><metadata
     id="metadata8"><rdf:RDF><cc:Work
         rdf:about=""><dc:format>image/svg+xml</dc:format><dc:type
           rdf:resource="http://purl.org/dc/dcmitype/StillImage" /><dc:title></dc:title></cc:Work></rdf:RDF></metadata><defs
     id="defs6"><linearGradient
       x1="0"
       y1="0"
       x2="1"
       y2="0"
       gradientUnits="userSpaceOnUse"
       gradientTransform="matrix(-1.53e-5,233.92529,233.92529,1.53e-5,512.00049,541.40039)"
       spreadMethod="pad"
       id="linearGradient24"><stop
         style="stop-opacity:1;stop-color:#3b4e5a"
         offset="0"
         id="stop26" /><stop
         style="stop-opacity:1;stop-color:#6b9aa5"
         offset="1"
         id="stop28" /></linearGradient><clipPath
       clipPathUnits="userSpaceOnUse"
       id="clipPath36"><path
         d="m 0,1024 1024,0 L 1024,0 0,0 0,1024 z"
         id="path38" /></clipPath><linearGradient
       inkscape:collect="always"
       xlink:href="#linearGradient24"
       id="linearGradient3191"
       gradientUnits="userSpaceOnUse"
       gradientTransform="matrix(-1.53e-5,233.92529,233.92529,1.53e-5,512.00049,541.40039)"
       spreadMethod="pad"
       x1="0"
       y1="0"
       x2="1"
       y2="0" /></defs><sodipodi:namedview
     pagecolor="#ffffff"
     bordercolor="#666666"
     borderopacity="1"
     objecttolerance="10"
     gridtolerance="10"
     guidetolerance="10"
     inkscape:pageopacity="0"
     inkscape:pageshadow="2"
     inkscape:window-width="1055"
     inkscape:window-height="747"
     id="namedview4"
     showgrid="false"
     inkscape:zoom="1"
     inkscape:cx="622.02746"
     inkscape:cy="890.78514"
     inkscape:window-x="299"
     inkscape:window-y="33"
     inkscape:window-maximized="0"
     inkscape:current-layer="g10" /><g
     id="g10"
     inkscape:groupmode="layer"
     inkscape:label="Logo3"
     transform="matrix(1.25,0,0,-1.25,0,1280)"><g
       id="g3163"
       inkscape:export-filename="/Users/weareu/Downloads/openitem_vehclinsp_logo.png"
       inkscape:export-xdpi="90"
       inkscape:export-ydpi="90"
       transform="matrix(0.21889098,0,0,0.21889098,361.25581,605.61413)"><g
         id="g14"><g
           id="g20"><g
             id="g22"><path
               d="m 415.667,775.326 c -11.348,0 -20.634,-9.285 -20.634,-20.633 l 0,0 0,-192.66 c 0,-11.348 9.286,-20.633 20.634,-20.633 l 0,0 65.17,0 c -8.161,14.295 -25.657,45.069 -30.17,53.747 l 0,0 c -5.942,11.478 1.297,18.064 9.89,16.061 l 0,0 c 6.631,-1.529 12.856,-13.687 23.119,-24.649 l 0,0 0.311,68.351 c -17.446,4.609 -30.346,20.521 -30.346,39.394 l 0,0 c 0,22.466 18.279,40.743 40.746,40.743 l 0,0 c 22.469,0 40.749,-18.277 40.749,-40.743 l 0,0 c 0,-19.132 -13.261,-35.218 -31.071,-39.574 l 0,0 0,-9.682 0.037,0 0,-23.905 3.066,0 0,10.866 c 0,5.302 4.311,9.611 9.658,9.611 l 0,0 1.018,0 c 5.348,0 9.611,-4.309 9.611,-9.611 l 0,0 0,-10.866 3.756,0 0,10.866 c 0,5.302 4.271,9.611 9.612,9.611 l 0,0 1.075,0 c 5.289,0 9.606,-4.309 9.606,-9.611 l 0,0 0,-10.866 3.71,0 0,10.866 c 0,5.302 4.276,9.611 9.62,9.611 l 0,0 1.014,0 c 5.343,0 9.658,-4.309 9.658,-9.611 l 0,0 0,-2.368 0,-17.963 c 0,-0.046 -0.047,-0.046 -0.047,-0.096 l 0,0 0,-59.095 c 0,0 0,-4.788 -1.831,-11.087 l 0,0 34.706,0 c 11.347,0 20.633,9.285 20.633,20.633 l 0,0 0,192.66 c 0,11.348 -9.286,20.633 -20.633,20.633 l 0,0 -192.667,0 z m 42.099,-81.022 c 0,-16.586 11.09,-30.623 26.241,-35.11 l 0,0 0.095,21.088 c -4.313,3.168 -7.125,8.259 -7.125,14.022 l 0,0 c 0,9.615 7.795,17.41 17.41,17.41 l 0,0 c 9.611,0 17.402,-7.795 17.402,-17.41 l 0,0 c 0,-6.032 -3.066,-11.343 -7.724,-14.467 l 0,0 0,-20.844 c 15.511,4.256 26.945,18.469 26.945,35.311 l 0,0 c 0,20.191 -16.43,36.618 -36.623,36.618 l 0,0 c -20.193,0 -36.621,-16.427 -36.621,-36.618"
               style="fill:url(#linearGradient3191);stroke:none"
               id="path30"
               inkscape:connector-curvature="0" /></g></g></g><g
         id="g32"><g
           id="g40"
           transform="translate(619.3887,486.915)"><path
             d="m 0,0 c 0,-6.158 -4.986,-11.148 -11.152,-11.148 -6.159,0 -11.149,4.99 -11.149,11.148 0,6.162 4.99,11.152 11.149,11.152 C -4.986,11.152 0,6.162 0,0"
             style="fill:#6b9aa5;fill-opacity:1;fill-rule:nonzero;stroke:none"
             id="path42"
             inkscape:connector-curvature="0" /></g><g
           id="g44"
           transform="translate(79.8091,424.876)"><path
             d="m 0,0 c 0,-33.172 24.975,-59.1 57.955,-59.1 33.363,0 57.766,26.881 57.766,59.1 0,32.219 -24.403,59.1 -57.957,59.1 C 24.592,59.1 0,32.791 0,0.19 L 0,0 z m -15.823,-0.382 c 0,43.467 33.743,73.399 73.587,73.399 41.371,0 73.59,-31.648 73.59,-73.017 0,-41.37 -32.03,-73.017 -73.59,-73.017 -41.75,0 -73.587,32.219 -73.587,72.445 l 0,0.19 z"
             style="fill:#6b9aa5;fill-opacity:1;fill-rule:nonzero;stroke:none"
             id="path46"
             inkscape:connector-curvature="0" /></g><g
           id="g48"
           transform="translate(327.2661,405.8115)"><path
             d="m 0,0 c 0,19.255 -13.535,40.988 -41.178,40.988 -11.439,0 -21.543,-4.575 -28.978,-12.01 -7.053,-7.435 -11.438,-17.73 -11.438,-29.359 0,-11.438 4.385,-21.733 11.819,-29.169 7.244,-7.244 17.539,-11.629 28.978,-11.629 C -17.729,-41.179 0,-23.64 0,-0.19 L 0,0 z m -94.75,51.093 13.346,0 0,-21.353 c 8.388,14.87 23.258,24.212 42.894,24.212 34.508,0 52.617,-28.024 52.617,-54.524 0,-28.596 -20.779,-53.761 -52.617,-53.761 -22.685,0 -37.365,13.154 -42.131,23.83 l 0,-20.971 0,-38.891 -14.109,0 0,141.458 z"
             style="fill:#6b9aa5;fill-opacity:1;fill-rule:nonzero;stroke:none"
             id="path50"
             inkscape:connector-curvature="0" /></g><g
           id="g52"
           transform="translate(448.7075,412.8652)"><path
             d="M 0,0 C -0.953,17.921 -18.301,35.46 -39.463,34.888 -61.578,34.888 -77.973,18.684 -79.307,0 L 0,0 z m -79.498,-11.248 c 0.764,-25.736 22.687,-38.129 40.035,-37.938 15.824,0 28.596,7.817 35.27,21.162 l 14.679,0 C 5.719,-39.082 -1.525,-47.47 -10.295,-52.999 c -8.578,-5.528 -18.682,-8.388 -29.168,-8.388 -35.65,0 -54.142,28.406 -54.142,53.952 0,30.122 23.257,54.333 53.951,54.333 14.49,0 27.834,-5.147 37.558,-14.489 C 9.723,20.971 15.443,5.147 13.918,-11.248 l -93.416,0 z"
             style="fill:#6b9aa5;fill-opacity:1;fill-rule:nonzero;stroke:none"
             id="path54"
             inkscape:connector-curvature="0" /></g><g
           id="g56"
           transform="translate(482.6431,456.9043)"><path
             d="m 0,0 13.346,0 c 0,-5.72 0,-11.438 -0.192,-18.302 5.91,13.345 19.826,21.542 38.129,21.161 31.838,-0.38 43.086,-22.114 43.086,-47.088 l 0,-58.337 -13.918,0 0,55.477 c 0,22.114 -9.914,37.175 -32.981,36.794 -21.161,-0.19 -33.363,-12.964 -33.363,-34.316 l 0,-57.955 -14.107,0 L 0,0 z"
             style="fill:#6b9aa5;fill-opacity:1;fill-rule:nonzero;stroke:none"
             id="path58"
             inkscape:connector-curvature="0" /></g><path
           d="m 605.416,455.379 5.338,0 0,-101.041 -5.338,0 0,101.041 z"
           style="fill:#3b4e5a;fill-opacity:1;fill-rule:nonzero;stroke:none"
           id="path60"
           inkscape:connector-curvature="0" /><g
           id="g62"
           transform="translate(649.2637,450.4219)"><path
             d="m 0,0 -22.305,0 0,4.957 22.305,0 0,40.035 5.338,0 0,-40.035 25.928,0 0,-4.957 -25.928,0 0,-96.084 -5.338,0 L 0,0 z"
             style="fill:#3b4e5a;fill-opacity:1;fill-rule:nonzero;stroke:none"
             id="path64"
             inkscape:connector-curvature="0" /></g><g
           id="g66"
           transform="translate(782.1426,409.2432)"><path
             d="M 0,0 C -1.143,24.402 -23.83,44.61 -47.469,43.657 -72.443,43.657 -93.605,25.546 -95.131,0 L 0,0 z m -95.32,-4.957 c 0.381,-32.981 28.023,-47.66 47.851,-47.47 18.682,0 35.078,9.532 43.084,26.69 l 5.91,0 c -4.574,-10.676 -11.818,-18.683 -20.398,-24.021 -8.578,-5.147 -18.492,-7.626 -28.787,-7.626 -38.129,0 -53.19,30.313 -53.19,52.809 0,30.312 23.258,53.189 53.381,53.189 13.535,0 26.498,-4.766 36.223,-13.536 C -0.189,25.165 6.293,9.913 5.34,-4.957 l -100.66,0 z"
             style="fill:#3b4e5a;fill-opacity:1;fill-rule:nonzero;stroke:none"
             id="path68"
             inkscape:connector-curvature="0" /></g><g
           id="g70"
           transform="translate(808.2617,455.3789)"><path
             d="m 0,0 5.338,0 0,-18.874 c 9.723,19.446 27.453,21.353 33.935,21.353 12.202,0 22.877,-4.195 29.741,-12.392 2.859,-3.051 6.863,-11.82 6.863,-11.82 1.143,2.859 3.051,7.244 7.244,11.82 7.055,7.816 17.92,12.392 29.359,12.392 12.202,0 21.352,-3.814 27.643,-10.105 8.389,-8.197 11.629,-21.352 11.629,-36.794 l 0,-56.621 -5.338,0 0,56.621 c 0,13.917 -2.668,25.736 -10.295,33.362 -5.338,5.53 -13.154,8.579 -23.639,8.579 -8.96,0 -19.828,-3.431 -26.119,-11.628 -6.48,-8.389 -7.816,-14.49 -7.816,-30.313 l 0,-56.621 -5.338,0 0,56.621 c 0.381,15.823 -2.096,23.067 -7.244,29.931 -5.91,7.626 -14.869,11.63 -26.69,12.01 C 29.359,-2.097 19.637,-7.054 14.68,-13.536 9.152,-19.827 5.338,-28.787 5.338,-43.467 l 0,-57.574 -5.338,0 L 0,0 z"
             style="fill:#3b4e5a;fill-opacity:1;fill-rule:nonzero;stroke:none"
             id="path72"
             inkscape:connector-curvature="0" /></g></g></g><text
       xml:space="preserve"
       style="font-size:32px;font-style:normal;font-weight:normal;line-height:125%;letter-spacing:0px;word-spacing:0px;fill:#666666;fill-opacity:1;stroke:none;font-family:Sans"
       x="501.1658"
       y="-663.30145"
       id="text3187"
       sodipodi:linespacing="125%"
       transform="scale(1,-1)"
       inkscape:export-filename="/Users/weareu/Downloads/openitem_vehclinsp_logo.png"
       inkscape:export-xdpi="90"
       inkscape:export-ydpi="90"><tspan
         sodipodi:role="line"
         id="tspan3189"
         x="501.1658"
         y="-663.30145"
         style="font-size:17.60000038px;font-style:normal;font-variant:normal;font-weight:normal;font-stretch:normal;fill:#666666;font-family:'.Al Nile PUA';-inkscape-font-specification:'.Al Nile PUA'">ACCESS</tspan></text>
</g></svg>