<?xml version="1.0" encoding="UTF-8" standalone="no"?>
<!-- Created with Inkscape (http://www.inkscape.org/) -->

<svg
   xmlns:dc="http://purl.org/dc/elements/1.1/"
   xmlns:cc="http://creativecommons.org/ns#"
   xmlns:rdf="http://www.w3.org/1999/02/22-rdf-syntax-ns#"
   xmlns:svg="http://www.w3.org/2000/svg"
   xmlns="http://www.w3.org/2000/svg"
   xmlns:xlink="http://www.w3.org/1999/xlink"
   xmlns:sodipodi="http://sodipodi.sourceforge.net/DTD/sodipodi-0.dtd"
   xmlns:inkscape="http://www.inkscape.org/namespaces/inkscape"
   id="svg2"
   version="1.1"
   inkscape:version="0.48.5 r10040"
   width="1280"
   height="1280"
   xml:space="preserve"
   sodipodi:docname="oi_corpaccess.ai.svg"
   inkscape:export-filename="/Users/weareu/Downloads/openitem_corporaccess_logo.png"
   inkscape:export-xdpi="90"
   inkscape:export-ydpi="90"><metadata
     id="metadata8"><rdf:RDF><cc:Work
         rdf:about=""><dc:format>image/svg+xml</dc:format><dc:type
           rdf:resource="http://purl.org/dc/dcmitype/StillImage" /><dc:title></dc:title></cc:Work></rdf:RDF></metadata><defs
     id="defs6"><linearGradient
       x1="0"
       y1="0"
       x2="1"
       y2="0"
       gradientUnits="userSpaceOnUse"
       gradientTransform="matrix(-1.53e-5,233.92529,233.92529,1.53e-5,512.00049,541.40039)"
       spreadMethod="pad"
       id="linearGradient24"><stop
         style="stop-opacity:1;stop-color:#3b4e5a"
         offset="0"
         id="stop26" /><stop
         style="stop-opacity:1;stop-color:#6b9aa5"
         offset="1"
         id="stop28" /></linearGradient><clipPath
       clipPathUnits="userSpaceOnUse"
       id="clipPath36"><path
         d="m 0,1024 1024,0 L 1024,0 0,0 0,1024 z"
         id="path38" /></clipPath><linearGradient
       inkscape:collect="always"
       xlink:href="#linearGradient24"
       id="linearGradient5399"
       gradientUnits="userSpaceOnUse"
       gradientTransform="matrix(-3.349032e-6,51.204136,51.204136,3.349032e-6,473.3281,724.12179)"
       spreadMethod="pad"
       x1="0"
       y1="0"
       x2="1"
       y2="0" /></defs><sodipodi:namedview
     pagecolor="#ffffff"
     bordercolor="#666666"
     borderopacity="1"
     objecttolerance="10"
     gridtolerance="10"
     guidetolerance="10"
     inkscape:pageopacity="0"
     inkscape:pageshadow="2"
     inkscape:window-width="1055"
     inkscape:window-height="747"
     id="namedview4"
     showgrid="false"
     inkscape:zoom="2.6151272"
     inkscape:cx="585.2879"
     inkscape:cy="891.90211"
     inkscape:window-x="299"
     inkscape:window-y="33"
     inkscape:window-maximized="0"
     inkscape:current-layer="g10" /><g
     id="g10"
     inkscape:groupmode="layer"
     inkscape:label="Logo3"
     transform="matrix(1.25,0,0,-1.25,0,1280)"><path
       style="fill:#00ff00;fill-opacity:1"
       d=""
       id="path4485"
       inkscape:connector-curvature="0"
       transform="matrix(0.8,0,0,-0.8,0,1024)" /><g
       id="g3471"
       inkscape:export-filename="/Users/weareu/Downloads/openitem_corporaccess_logo.png"
       inkscape:export-xdpi="90"
       inkscape:export-ydpi="90"><path
         inkscape:connector-curvature="0"
         id="path30"
         style="fill:url(#linearGradient5399);stroke:none"
         d="m 452.24157,775.326 c -2.48398,0 -4.5166,-2.0324 -4.5166,-4.51638 l 0,0 0,-42.17154 c 0,-2.48397 2.03262,-4.51637 4.5166,-4.51637 l 0,0 14.26512,0 c -1.78637,3.12904 -5.61608,9.86519 -6.60394,11.76473 l 0,0 c -1.30065,2.51243 0.2839,3.95405 2.16483,3.51561 l 0,0 c 1.45147,-0.33469 2.81407,-2.99596 5.06054,-5.39545 l 0,0 0.0681,14.96142 c -3.81877,1.00887 -6.64247,4.49186 -6.64247,8.62299 l 0,0 c 0,4.91761 4.00111,8.91828 8.91893,8.91828 l 0,0 c 4.91827,0 8.91959,-4.00067 8.91959,-8.91828 l 0,0 c 0,-4.18782 -2.90271,-7.7089 -6.80116,-8.66239 l 0,0 0,-2.1193 0.008,0 0,-5.23259 0.67112,0 0,2.37847 c 0,1.16056 0.94364,2.10376 2.11405,2.10376 l 0,0 0.22283,0 c 1.17063,0 2.10376,-0.9432 2.10376,-2.10376 l 0,0 0,-2.37847 0.82216,0 0,2.37847 c 0,1.16056 0.93488,2.10376 2.10398,2.10376 l 0,0 0.2353,0 c 1.15772,0 2.10267,-0.9432 2.10267,-2.10376 l 0,0 0,-2.37847 0.81209,0 0,2.37847 c 0,1.16056 0.93597,2.10376 2.10573,2.10376 l 0,0 0.22195,0 c 1.16954,0 2.11405,-0.9432 2.11405,-2.10376 l 0,0 0,-0.51833 0,-3.93194 c 0,-0.0101 -0.0103,-0.0101 -0.0103,-0.021 l 0,0 0,-12.93536 c 0,0 0,-1.04805 -0.40078,-2.42684 l 0,0 7.59683,0 c 2.48375,0 4.51637,2.0324 4.51637,4.51637 l 0,0 0,42.17154 c 0,2.48398 -2.03262,4.51638 -4.51637,4.51638 l 0,0 -42.17307,0 z m 9.21509,-17.73499 c 0,-3.63052 2.4275,-6.7031 5.74392,-7.68526 l 0,0 0.0208,4.61597 c -0.94408,0.69345 -1.5596,1.80782 -1.5596,3.06929 l 0,0 c 0,2.10464 1.70626,3.81089 3.81089,3.81089 l 0,0 c 2.10377,0 3.80915,-1.70625 3.80915,-3.81089 l 0,0 c 0,-1.32035 -0.67112,-2.48288 -1.69072,-3.16669 l 0,0 0,-4.56257 c 3.39522,0.9316 5.89802,4.0427 5.89802,7.72926 l 0,0 c 0,4.41963 -3.59638,8.01535 -8.01645,8.01535 l 0,0 c -4.42006,0 -8.016,-3.59572 -8.016,-8.01535" /><g
         transform="matrix(0.21889098,0,0,0.21889098,361.25581,605.61413)"
         id="g32"><g
           id="g40"
           transform="translate(619.3887,486.915)"><path
             d="m 0,0 c 0,-6.158 -4.986,-11.148 -11.152,-11.148 -6.159,0 -11.149,4.99 -11.149,11.148 0,6.162 4.99,11.152 11.149,11.152 C -4.986,11.152 0,6.162 0,0"
             style="fill:#6b9aa5;fill-opacity:1;fill-rule:nonzero;stroke:none"
             id="path42"
             inkscape:connector-curvature="0" /></g><g
           id="g44"
           transform="translate(79.8091,424.876)"><path
             d="m 0,0 c 0,-33.172 24.975,-59.1 57.955,-59.1 33.363,0 57.766,26.881 57.766,59.1 0,32.219 -24.403,59.1 -57.957,59.1 C 24.592,59.1 0,32.791 0,0.19 L 0,0 z m -15.823,-0.382 c 0,43.467 33.743,73.399 73.587,73.399 41.371,0 73.59,-31.648 73.59,-73.017 0,-41.37 -32.03,-73.017 -73.59,-73.017 -41.75,0 -73.587,32.219 -73.587,72.445 l 0,0.19 z"
             style="fill:#6b9aa5;fill-opacity:1;fill-rule:nonzero;stroke:none"
             id="path46"
             inkscape:connector-curvature="0" /></g><g
           id="g48"
           transform="translate(327.2661,405.8115)"><path
             d="m 0,0 c 0,19.255 -13.535,40.988 -41.178,40.988 -11.439,0 -21.543,-4.575 -28.978,-12.01 -7.053,-7.435 -11.438,-17.73 -11.438,-29.359 0,-11.438 4.385,-21.733 11.819,-29.169 7.244,-7.244 17.539,-11.629 28.978,-11.629 C -17.729,-41.179 0,-23.64 0,-0.19 L 0,0 z m -94.75,51.093 13.346,0 0,-21.353 c 8.388,14.87 23.258,24.212 42.894,24.212 34.508,0 52.617,-28.024 52.617,-54.524 0,-28.596 -20.779,-53.761 -52.617,-53.761 -22.685,0 -37.365,13.154 -42.131,23.83 l 0,-20.971 0,-38.891 -14.109,0 0,141.458 z"
             style="fill:#6b9aa5;fill-opacity:1;fill-rule:nonzero;stroke:none"
             id="path50"
             inkscape:connector-curvature="0" /></g><g
           id="g52"
           transform="translate(448.7075,412.8652)"><path
             d="M 0,0 C -0.953,17.921 -18.301,35.46 -39.463,34.888 -61.578,34.888 -77.973,18.684 -79.307,0 L 0,0 z m -79.498,-11.248 c 0.764,-25.736 22.687,-38.129 40.035,-37.938 15.824,0 28.596,7.817 35.27,21.162 l 14.679,0 C 5.719,-39.082 -1.525,-47.47 -10.295,-52.999 c -8.578,-5.528 -18.682,-8.388 -29.168,-8.388 -35.65,0 -54.142,28.406 -54.142,53.952 0,30.122 23.257,54.333 53.951,54.333 14.49,0 27.834,-5.147 37.558,-14.489 C 9.723,20.971 15.443,5.147 13.918,-11.248 l -93.416,0 z"
             style="fill:#6b9aa5;fill-opacity:1;fill-rule:nonzero;stroke:none"
             id="path54"
             inkscape:connector-curvature="0" /></g><g
           id="g56"
           transform="translate(482.6431,456.9043)"><path
             d="m 0,0 13.346,0 c 0,-5.72 0,-11.438 -0.192,-18.302 5.91,13.345 19.826,21.542 38.129,21.161 31.838,-0.38 43.086,-22.114 43.086,-47.088 l 0,-58.337 -13.918,0 0,55.477 c 0,22.114 -9.914,37.175 -32.981,36.794 -21.161,-0.19 -33.363,-12.964 -33.363,-34.316 l 0,-57.955 -14.107,0 L 0,0 z"
             style="fill:#6b9aa5;fill-opacity:1;fill-rule:nonzero;stroke:none"
             id="path58"
             inkscape:connector-curvature="0" /></g><path
           d="m 605.416,455.379 5.338,0 0,-101.041 -5.338,0 0,101.041 z"
           style="fill:#3b4e5a;fill-opacity:1;fill-rule:nonzero;stroke:none"
           id="path60"
           inkscape:connector-curvature="0" /><g
           id="g62"
           transform="translate(649.2637,450.4219)"><path
             d="m 0,0 -22.305,0 0,4.957 22.305,0 0,40.035 5.338,0 0,-40.035 25.928,0 0,-4.957 -25.928,0 0,-96.084 -5.338,0 L 0,0 z"
             style="fill:#3b4e5a;fill-opacity:1;fill-rule:nonzero;stroke:none"
             id="path64"
             inkscape:connector-curvature="0" /></g><g
           id="g66"
           transform="translate(782.1426,409.2432)"><path
             d="M 0,0 C -1.143,24.402 -23.83,44.61 -47.469,43.657 -72.443,43.657 -93.605,25.546 -95.131,0 L 0,0 z m -95.32,-4.957 c 0.381,-32.981 28.023,-47.66 47.851,-47.47 18.682,0 35.078,9.532 43.084,26.69 l 5.91,0 c -4.574,-10.676 -11.818,-18.683 -20.398,-24.021 -8.578,-5.147 -18.492,-7.626 -28.787,-7.626 -38.129,0 -53.19,30.313 -53.19,52.809 0,30.312 23.258,53.189 53.381,53.189 13.535,0 26.498,-4.766 36.223,-13.536 C -0.189,25.165 6.293,9.913 5.34,-4.957 l -100.66,0 z"
             style="fill:#3b4e5a;fill-opacity:1;fill-rule:nonzero;stroke:none"
             id="path68"
             inkscape:connector-curvature="0" /></g><g
           id="g70"
           transform="translate(808.2617,455.3789)"><path
             d="m 0,0 5.338,0 0,-18.874 c 9.723,19.446 27.453,21.353 33.935,21.353 12.202,0 22.877,-4.195 29.741,-12.392 2.859,-3.051 6.863,-11.82 6.863,-11.82 1.143,2.859 3.051,7.244 7.244,11.82 7.055,7.816 17.92,12.392 29.359,12.392 12.202,0 21.352,-3.814 27.643,-10.105 8.389,-8.197 11.629,-21.352 11.629,-36.794 l 0,-56.621 -5.338,0 0,56.621 c 0,13.917 -2.668,25.736 -10.295,33.362 -5.338,5.53 -13.154,8.579 -23.639,8.579 -8.96,0 -19.828,-3.431 -26.119,-11.628 -6.48,-8.389 -7.816,-14.49 -7.816,-30.313 l 0,-56.621 -5.338,0 0,56.621 c 0.381,15.823 -2.096,23.067 -7.244,29.931 -5.91,7.626 -14.869,11.63 -26.69,12.01 C 29.359,-2.097 19.637,-7.054 14.68,-13.536 9.152,-19.827 5.338,-28.787 5.338,-43.467 l 0,-57.574 -5.338,0 L 0,0 z"
             style="fill:#3b4e5a;fill-opacity:1;fill-rule:nonzero;stroke:none"
             id="path72"
             inkscape:connector-curvature="0" /></g></g><text
         inkscape:export-ydpi="90"
         inkscape:export-xdpi="90"
         inkscape:export-filename="/Users/weareu/Downloads/openitem_vehclinsp_logo.png"
         transform="scale(1,-1)"
         sodipodi:linespacing="125%"
         id="text3187"
         y="-668.63477"
         x="436.75229"
         style="font-size:12.80000019px;font-style:normal;font-weight:normal;line-height:125%;letter-spacing:0px;word-spacing:0px;fill:#666666;fill-opacity:1;stroke:none;font-family:Sans"
         xml:space="preserve"><tspan
           style="font-size:12.80000019px;font-style:normal;font-variant:normal;font-weight:normal;font-stretch:normal;fill:#666666;font-family:'.Al Nile PUA';-inkscape-font-specification:'.Al Nile PUA'"
           y="-668.63477"
           x="436.75229"
           id="tspan3189"
           sodipodi:role="line">CORPORATE ACCESS</tspan></text>
<g
         style="fill:#ffffff"
         transform="matrix(0.04166291,0,0,0.04166291,466.4368,737.20002)"
         id="g5479"><path
           inkscape:connector-curvature="0"
           id="path5493"
           d="m 317.60001,462.05714 c 0,9.72952 0.25024,12.70739 1.14286,13.6 0.87819,0.8782 3.65714,1.14286 12,1.14286 l 10.85714,0 0,190.05715 c 0,163.64953 0.1588,190.21594 1.14286,191.2 1.7189,1.7189 178.39539,1.7189 180.11429,0 0.97419,-0.97419 1.14286,-12.19047 1.14286,-76 l 0,-74.85714 88.64,0 c 67.87555,0 88.86489,-0.22489 89.6,-0.96 0.7377,-0.73771 0.96,-27.41334 0.96,-115.20001 l 0,-114.24 10.85714,0 c 8.34286,0 11.1218,-0.26466 12,-1.14286 0.89262,-0.89261 1.14286,-3.87048 1.14286,-13.6 l 0,-12.45714 -204.80001,0 -204.8,0 0,12.45714 z m 152,38.74286 0,24 -36.8,0 -36.8,0 0,-24 0,-24 36.8,0 36.8,0 0,24 z m 179.20001,0 0,24 -36.8,0 -36.8,0 0,-24 0,-24 36.8,0 36.8,0 0,24 z m -230.40001,76.8 0,24 -24,0 -24,0 0,-24 0,-24 24,0 24,0 0,24 z m 76.8,0 0,24 -24,0 -24,0 0,-24 0,-24 24,0 24,0 0,24 z m 102.40001,0 0,24 -24,0 -24,0 0,-24 0,-24 24,0 24,0 0,24 z m 76.8,0 0,24 -24,0 -24,0 0,-24 0,-24 24,0 24,0 0,24 z m -256.00001,76.8 0,24.00001 -24,0 -24,0 0,-24.00001 0,-24 24,0 24,0 0,24 z m 76.8,0 0,24.00001 -24,0 -24,0 0,-24.00001 0,-24 24,0 24,0 0,24 z m 102.40001,0 0,24.00001 -24,0 -24,0 0,-24.00001 0,-24 24,0 24,0 0,24 z m 76.8,0 0,24.00001 -24,0 -24,0 0,-24.00001 0,-24 24,0 24,0 0,24 z m -256.00001,76.80001 0,24 -24,0 -24,0 0,-24 0,-24 24,0 24,0 0,24 z m 76.8,0 0,24 -24,0 -24,0 0,-24 0,-24 24,0 24,0 0,24 z m -76.8,76.8 0,24 -24,0 -24,0 0,-24 0,-24 24,0 24,0 0,24 z m 76.8,0 0,24 -24,0 -24,0 0,-24 0,-24 24,0 24,0 0,24 z"
           style="fill:#ffffff" /><path
           inkscape:connector-curvature="0"
           id="path5491"
           d="m 317.60001,462.31441 c 0,10.85589 0.18497,12.78539 1.26543,13.2 0.69599,0.26708 6.27599,0.48559 12.4,0.48559 l 11.13457,0 0,190.33457 c 0,104.68402 0.21852,190.90402 0.48559,191.60001 0.43879,1.14346 9.10502,1.26543 89.91441,1.26543 80.8094,0 89.47563,-0.12197 89.91441,-1.26543 0.26708,-0.69599 0.4856,-35.07443 0.4856,-76.39654 l 0,-75.13111 89.4,-0.20346 89.4,-0.20346 L 702.20273,591 l 0.20271,-115 11.13186,0 c 6.12252,0 11.7013,-0.21851 12.39729,-0.48559 1.08045,-0.41461 1.26543,-2.34411 1.26543,-13.2 l 0,-12.71441 -204.80001,0 -204.8,0 0,12.71441 z m 152.8,38.48559 0,24.8 -37.6,0 -37.6,0 0,-24.8 0,-24.8 37.6,0 37.6,0 0,24.8 z m 179.20001,0 0,24.8 -37.6,0 -37.6,0 0,-24.8 0,-24.8 37.6,0 37.6,0 0,24.8 z m -230.40001,76.8 0,24.8 -24.8,0 -24.8,0 0,-24.8 0,-24.8 24.8,0 24.8,0 0,24.8 z m 76.8,0 0,24.8 -24.8,0 -24.8,0 0,-24.8 0,-24.8 24.8,0 24.8,0 0,24.8 z m 102.40001,0 0,24.8 -24.8,0 -24.8,0 0,-24.8 0,-24.8 24.8,0 24.8,0 0,24.8 z m 76.8,0 0,24.8 -24.8,0 -24.8,0 0,-24.8 0,-24.8 24.8,0 24.8,0 0,24.8 z m -256.00001,76.8 0,24.80001 -24.8,0 -24.8,0 0,-24.80001 0,-24.8 24.8,0 24.8,0 0,24.8 z m 76.8,0 0,24.80001 -24.8,0 -24.8,0 0,-24.80001 0,-24.8 24.8,0 24.8,0 0,24.8 z m 102.40001,0 0,24.80001 -24.8,0 -24.8,0 0,-24.80001 0,-24.8 24.8,0 24.8,0 0,24.8 z m 76.8,0 0,24.80001 -24.8,0 -24.8,0 0,-24.80001 0,-24.8 24.8,0 24.8,0 0,24.8 z m -256.00001,76.80001 0,24.8 -24.8,0 -24.8,0 0,-24.8 0,-24.8 24.8,0 24.8,0 0,24.8 z m 76.8,0 0,24.8 -24.8,0 -24.8,0 0,-24.8 0,-24.8 24.8,0 24.8,0 0,24.8 z m -76.8,76.8 0,24.8 -24.8,0 -24.8,0 0,-24.8 0,-24.8 24.8,0 24.8,0 0,24.8 z m 76.8,0 0,24.8 -24.8,0 -24.8,0 0,-24.8 0,-24.8 24.8,0 24.8,0 0,24.8 z"
           style="fill:#ffffff" /><path
           inkscape:connector-curvature="0"
           id="path5489"
           d="m 317.60001,462.4 0,12.8 11.84,0 c 8.14222,0 12.13982,0.29982 12.8,0.96 0.74131,0.7413 0.96,44.48 0.96,192.00001 l 0,191.04 89.6,0 89.6,0 0,-75.84 c 0,-57.92 0.22684,-76.06684 0.96001,-76.8 0.73511,-0.73512 21.72444,-0.96 89.6,-0.96 l 88.64,0 0,-114.24001 c 0,-87.78666 0.2223,-114.4623 0.96,-115.2 0.66018,-0.66018 4.65778,-0.96 12.8,-0.96 l 11.84,0 0,-12.8 0,-12.8 -204.80001,0 -204.8,0 0,12.8 z m 152.64,13.76 c 1.37127,1.37126 1.37127,47.90874 0,49.28 -1.38189,1.3819 -73.4981,1.3819 -74.88,0 -1.37126,-1.37126 -1.37126,-47.90874 0,-49.28 1.3819,-1.3819 73.49811,-1.3819 74.88,0 z m 179.20001,0 c 1.37126,1.37126 1.37126,47.90874 0,49.28 -1.3819,1.3819 -73.49811,1.3819 -74.88,0 -1.37127,-1.37126 -1.37127,-47.90874 0,-49.28 1.38189,-1.3819 73.4981,-1.3819 74.88,0 z m -230.40001,76.8 c 1.37127,1.37127 1.37127,47.90874 0,49.28 -1.37126,1.37127 -47.90874,1.37127 -49.28,0 -1.37126,-1.37126 -1.37126,-47.90873 0,-49.28 1.37126,-1.37126 47.90874,-1.37126 49.28,0 z m 76.8,0 c 1.37127,1.37127 1.37127,47.90874 0,49.28 -1.37126,1.37127 -47.90873,1.37127 -49.28,0 -1.37126,-1.37126 -1.37126,-47.90873 0,-49.28 1.37127,-1.37126 47.90874,-1.37126 49.28,0 z m 102.40001,0 c 1.37126,1.37127 1.37126,47.90874 0,49.28 -1.37127,1.37127 -47.90874,1.37127 -49.28,0 -1.37127,-1.37126 -1.37127,-47.90873 0,-49.28 1.37126,-1.37126 47.90873,-1.37126 49.28,0 z m 76.8,0 c 1.37126,1.37127 1.37126,47.90874 0,49.28 -1.37127,1.37127 -47.90874,1.37127 -49.28,0 -1.37127,-1.37126 -1.37127,-47.90873 0,-49.28 1.37126,-1.37126 47.90873,-1.37126 49.28,0 z m -256.00001,76.8 c 1.37127,1.37127 1.37127,47.90874 0,49.28001 -1.37126,1.37126 -47.90874,1.37126 -49.28,0 -1.37126,-1.37127 -1.37126,-47.90874 0,-49.28001 1.37126,-1.37126 47.90874,-1.37126 49.28,0 z m 76.8,0 c 1.37127,1.37127 1.37127,47.90874 0,49.28001 -1.37126,1.37126 -47.90873,1.37126 -49.28,0 -1.37126,-1.37127 -1.37126,-47.90874 0,-49.28001 1.37127,-1.37126 47.90874,-1.37126 49.28,0 z m 102.40001,0 c 1.37126,1.37127 1.37126,47.90874 0,49.28001 -1.37127,1.37126 -47.90874,1.37126 -49.28,0 -1.37127,-1.37127 -1.37127,-47.90874 0,-49.28001 1.37126,-1.37126 47.90873,-1.37126 49.28,0 z m 76.8,0 c 1.37126,1.37127 1.37126,47.90874 0,49.28001 -1.37127,1.37126 -47.90874,1.37126 -49.28,0 -1.37127,-1.37127 -1.37127,-47.90874 0,-49.28001 1.37126,-1.37126 47.90873,-1.37126 49.28,0 z m -256.00001,76.80001 c 1.37127,1.37126 1.37127,47.90873 0,49.28 -1.37126,1.37126 -47.90874,1.37126 -49.28,0 -1.37126,-1.37127 -1.37126,-47.90874 0,-49.28 1.37126,-1.37127 47.90874,-1.37127 49.28,0 z m 76.8,0 c 1.37127,1.37126 1.37127,47.90873 0,49.28 -1.37126,1.37126 -47.90873,1.37126 -49.28,0 -1.37126,-1.37127 -1.37126,-47.90874 0,-49.28 1.37127,-1.37127 47.90874,-1.37127 49.28,0 z m -76.8,76.8 c 1.37127,1.37126 1.37127,47.90874 0,49.28 -1.37126,1.37126 -47.90874,1.37126 -49.28,0 -1.37126,-1.37126 -1.37126,-47.90874 0,-49.28 1.37126,-1.37126 47.90874,-1.37126 49.28,0 z m 76.8,0 c 1.37127,1.37126 1.37127,47.90874 0,49.28 -1.37126,1.37126 -47.90873,1.37126 -49.28,0 -1.37126,-1.37126 -1.37126,-47.90874 0,-49.28 1.37127,-1.37126 47.90874,-1.37126 49.28,0 z"
           style="fill:#ffffff" /><path
           inkscape:connector-curvature="0"
           id="path5487"
           d="m 317.60001,462.37969 0,12.77968 12.6,0.22032 12.6,0.22031 0.20164,191.80001 0.20165,191.8 89.59434,0 89.59433,0 0.20403,-76.6 0.20402,-76.6 89.2,-0.4 89.2,-0.4 0.4,-114.80001 0.4,-114.8 12.6,-0.22031 12.6,-0.22032 0,-12.77968 0,-12.77969 -204.80001,0 -204.8,0 0,12.77969 z m 153.2,38.42031 0,25.2 -38,0 -38,0 -0.21201,-24.39173 c -0.11661,-13.41545 -0.0366,-24.84899 0.1779,-25.40785 0.30919,-0.80575 8.22023,-0.97308 38.21202,-0.80827 l 37.82209,0.20785 0,25.2 z m 179.20001,0 0,25.2 -38,0 -38,0 -0.21202,-24.39173 c -0.11661,-13.41545 -0.0366,-24.84899 0.1779,-25.40785 0.3092,-0.80575 8.22024,-0.97308 38.21202,-0.80827 l 37.8221,0.20785 0,25.2 z m -230.40001,76.8 0,25.2 -25.2,0 -25.2,0 -0.21201,-24.39173 c -0.11661,-13.41545 -0.0359,-24.8506 0.17927,-25.41143 0.30795,-0.80249 5.7208,-0.97465 25.41202,-0.80826 l 25.02072,0.21142 0,25.2 z m 76.8,0 0,25.2 -25.2,0 -25.2,0 -0.21201,-24.39173 c -0.11661,-13.41545 -0.0359,-24.8506 0.17928,-25.41143 0.30794,-0.80249 5.72079,-0.97465 25.41201,-0.80826 l 25.02072,0.21142 0,25.2 z m 102.40001,0 0,25.2 -25.2,0 -25.2,0 -0.21202,-24.39173 c -0.11661,-13.41545 -0.0359,-24.8506 0.17928,-25.41143 0.30794,-0.80249 5.72079,-0.97465 25.41202,-0.80826 l 25.02072,0.21142 0,25.2 z m 76.8,0 0,25.2 -25.2,0 -25.2,0 -0.21202,-24.39173 c -0.11661,-13.41545 -0.0359,-24.8506 0.17928,-25.41143 0.30795,-0.80249 5.72079,-0.97465 25.41202,-0.80826 l 25.02072,0.21142 0,25.2 z m -256.00001,76.8 0,25.20001 -25.2,0 -25.2,0 -0.21201,-24.39174 c -0.11661,-13.41545 -0.0359,-24.85059 0.17927,-25.41143 0.30795,-0.80249 5.7208,-0.97465 25.41202,-0.80826 l 25.02072,0.21142 0,25.2 z m 76.8,0 0,25.20001 -25.2,0 -25.2,0 -0.21201,-24.39174 c -0.11661,-13.41545 -0.0359,-24.85059 0.17928,-25.41143 0.30794,-0.80249 5.72079,-0.97465 25.41201,-0.80826 l 25.02072,0.21142 0,25.2 z m 102.40001,0 0,25.20001 -25.2,0 -25.2,0 -0.21202,-24.39174 c -0.11661,-13.41545 -0.0359,-24.85059 0.17928,-25.41143 0.30794,-0.80249 5.72079,-0.97465 25.41202,-0.80826 l 25.02072,0.21142 0,25.2 z m 76.8,0 0,25.20001 -25.2,0 -25.2,0 -0.21202,-24.39174 c -0.11661,-13.41545 -0.0359,-24.85059 0.17928,-25.41143 0.30795,-0.80249 5.72079,-0.97465 25.41202,-0.80826 l 25.02072,0.21142 0,25.2 z m -256.00001,76.80001 0,25.2 -25.2,0 -25.2,0 -0.21201,-24.39174 c -0.11661,-13.41545 -0.0359,-24.85059 0.17927,-25.41142 0.30795,-0.8025 5.7208,-0.97466 25.41202,-0.80827 l 25.02072,0.21143 0,25.2 z m 76.8,0 0,25.2 -25.2,0 -25.2,0 -0.21201,-24.39174 c -0.11661,-13.41545 -0.0359,-24.85059 0.17928,-25.41142 0.30794,-0.8025 5.72079,-0.97466 25.41201,-0.80827 l 25.02072,0.21143 0,25.2 z m -76.8,76.8 0,25.2 -25.2,0 -25.2,0 -0.21201,-24.39173 c -0.11661,-13.41546 -0.0359,-24.8506 0.17927,-25.41143 0.30795,-0.8025 5.7208,-0.97466 25.41202,-0.80827 l 25.02072,0.21143 0,25.2 z m 76.8,0 0,25.2 -25.2,0 -25.2,0 -0.21201,-24.39173 c -0.11661,-13.41546 -0.0359,-24.8506 0.17928,-25.41143 0.30794,-0.8025 5.72079,-0.97466 25.41201,-0.80827 l 25.02072,0.21143 0,25.2 z"
           style="fill:#ffffff" /><path
           inkscape:connector-curvature="0"
           id="path5485"
           d="m 317.59891,462.2 -10e-4,12.6 12.25813,-0.25423 c 9.87419,-0.20479 12.44249,-0.0321 13.20602,0.88789 0.72595,0.87472 0.89991,45.9354 0.74297,192.45426 l -0.20492,191.31212 89.2,7e-5 89.2,7e-5 -0.21198,-76.10368 c -0.1559,-55.96674 0.0288,-76.39378 0.69795,-77.20009 0.76062,-0.91648 15.46642,-1.0964 89.61199,-1.0964 l 88.70205,0 0,-114.30205 c 0,-98.52316 0.15907,-114.43406 1.1523,-115.25838 0.81377,-0.67536 4.69216,-0.88042 13.20112,-0.69796 l 12.04881,0.25838 -10e-4,-12.6 -0.001,-12.6 -204.80001,0 -204.8,0 -0.001,12.6 z m 153.4411,13.16 c 1.37226,1.37226 1.37226,49.50775 0,50.88 -1.38232,1.38232 -75.09768,1.38232 -76.48,0 -1.37225,-1.37225 -1.37225,-49.50774 0,-50.88 1.38232,-1.38232 75.09768,-1.38232 76.48,0 z m 179.20001,0 c 1.37225,1.37226 1.37225,49.50775 0,50.88 -1.38232,1.38232 -75.09768,1.38232 -76.48,0 -1.37226,-1.37225 -1.37226,-49.50774 0,-50.88 1.38232,-1.38232 75.09768,-1.38232 76.48,0 z m -230.40001,76.8 c 1.37226,1.37226 1.37226,49.50775 0,50.88 -1.37225,1.37226 -49.50775,1.37226 -50.88,0 -1.37225,-1.37225 -1.37225,-49.50774 0,-50.88 1.37225,-1.37225 49.50775,-1.37225 50.88,0 z m 76.8,0 c 1.37226,1.37226 1.37226,49.50775 0,50.88 -1.37225,1.37226 -49.50774,1.37226 -50.88,0 -1.37225,-1.37225 -1.37225,-49.50774 0,-50.88 1.37226,-1.37225 49.50775,-1.37225 50.88,0 z m 102.40001,0 c 1.37225,1.37226 1.37225,49.50775 0,50.88 -1.37226,1.37226 -49.50775,1.37226 -50.88,0 -1.37226,-1.37225 -1.37226,-49.50774 0,-50.88 1.37225,-1.37225 49.50774,-1.37225 50.88,0 z m 76.8,0 c 1.37225,1.37226 1.37225,49.50775 0,50.88 -1.37226,1.37226 -49.50775,1.37226 -50.88,0 -1.37226,-1.37225 -1.37226,-49.50774 0,-50.88 1.37225,-1.37225 49.50774,-1.37225 50.88,0 z m -256.00001,76.8 c 1.37226,1.37226 1.37226,49.50775 0,50.88001 -1.37225,1.37225 -49.50775,1.37225 -50.88,0 -1.37225,-1.37226 -1.37225,-49.50775 0,-50.88001 1.37225,-1.37225 49.50775,-1.37225 50.88,0 z m 76.8,0 c 1.37226,1.37226 1.37226,49.50775 0,50.88001 -1.37225,1.37225 -49.50774,1.37225 -50.88,0 -1.37225,-1.37226 -1.37225,-49.50775 0,-50.88001 1.37226,-1.37225 49.50775,-1.37225 50.88,0 z m 102.40001,0 c 1.37225,1.37226 1.37225,49.50775 0,50.88001 -1.37226,1.37225 -49.50775,1.37225 -50.88,0 -1.37226,-1.37226 -1.37226,-49.50775 0,-50.88001 1.37225,-1.37225 49.50774,-1.37225 50.88,0 z m 76.8,0 c 1.37225,1.37226 1.37225,49.50775 0,50.88001 -1.37226,1.37225 -49.50775,1.37225 -50.88,0 -1.37226,-1.37226 -1.37226,-49.50775 0,-50.88001 1.37225,-1.37225 49.50774,-1.37225 50.88,0 z m -256.00001,76.80001 c 1.37226,1.37225 1.37226,49.50774 0,50.88 -1.37225,1.37225 -49.50775,1.37225 -50.88,0 -1.37225,-1.37226 -1.37225,-49.50775 0,-50.88 1.37225,-1.37226 49.50775,-1.37226 50.88,0 z m 76.8,0 c 1.37226,1.37225 1.37226,49.50774 0,50.88 -1.37225,1.37225 -49.50774,1.37225 -50.88,0 -1.37225,-1.37226 -1.37225,-49.50775 0,-50.88 1.37226,-1.37226 49.50775,-1.37226 50.88,0 z m -76.8,76.8 c 1.37226,1.37225 1.37226,49.50775 0,50.88 -1.37225,1.37225 -49.50775,1.37225 -50.88,0 -1.37225,-1.37225 -1.37225,-49.50775 0,-50.88 1.37225,-1.37225 49.50775,-1.37225 50.88,0 z m 76.8,0 c 1.37226,1.37225 1.37226,49.50775 0,50.88 -1.37225,1.37225 -49.50774,1.37225 -50.88,0 -1.37225,-1.37225 -1.37225,-49.50775 0,-50.88 1.37226,-1.37225 49.50775,-1.37225 50.88,0 z"
           style="fill:#ffffff" /><path
           inkscape:connector-curvature="0"
           id="path5483"
           d="m 317.59916,462.2 -8.4e-4,12.6 13.00084,0 13.00085,0 0,192.20001 0,192.20002 89.2,4e-5 89.2,5e-5 0,-77.00006 0,-77.00005 89.20001,-0.4 89.2,-0.4 0.4,-114.80001 0.4,-114.8 13.00085,0 13.00085,0 -8e-4,-12.6 -9e-4,-12.6 -204.80001,0 -204.8,0 -8.5e-4,12.6 z m 154.00085,38.6 0,26 -38.8,0 -38.8,0 -0.21167,-25.19264 c -0.11641,-13.85595 -0.0364,-25.64942 0.17785,-26.2077 0.30878,-0.80468 8.39423,-0.972 39.01167,-0.80736 l 38.62215,0.2077 0,26 z m 179.20001,0 0,26 -38.8,0 -38.8,0 -0.21167,-25.19264 c -0.11642,-13.85595 -0.0364,-25.64942 0.17784,-26.2077 0.30879,-0.80468 8.39423,-0.972 39.01168,-0.80736 l 38.62215,0.2077 0,26 z m -230.40001,76.8 0,26 -26,0 -26,0 -0.21167,-25.19264 c -0.11641,-13.85595 -0.0358,-25.65095 0.17916,-26.21111 0.30761,-0.80162 5.88847,-0.97352 26.21167,-0.80736 l 25.82084,0.21111 0,26 z m 76.8,0 0,26 -26,0 -26,0 -0.21166,-25.19264 c -0.11642,-13.85595 -0.0358,-25.65095 0.17915,-26.21111 0.30761,-0.80162 5.88847,-0.97352 26.21167,-0.80736 l 25.82084,0.21111 0,26 z m 102.40001,0 0,26 -26,0 -26,0 -0.21167,-25.19264 c -0.11642,-13.85595 -0.0358,-25.65095 0.17915,-26.21111 0.30761,-0.80162 5.88848,-0.97352 26.21167,-0.80736 l 25.82085,0.21111 0,26 z m 76.8,0 0,26 -26,0 -26,0 -0.21167,-25.19264 c -0.11642,-13.85595 -0.0358,-25.65095 0.17916,-26.21111 0.3076,-0.80162 5.88847,-0.97352 26.21166,-0.80736 l 25.82085,0.21111 0,26 z m -256.00001,76.8 0,26.00001 -26,0 -26,0 -0.21167,-25.19264 c -0.11641,-13.85596 -0.0358,-25.65096 0.17916,-26.21112 0.30761,-0.80162 5.88847,-0.97352 26.21167,-0.80736 l 25.82084,0.21111 0,26 z m 76.8,0 0,26.00001 -26,0 -26,0 -0.21166,-25.19264 c -0.11642,-13.85596 -0.0358,-25.65096 0.17915,-26.21112 0.30761,-0.80162 5.88847,-0.97352 26.21167,-0.80736 l 25.82084,0.21111 0,26 z m 102.40001,0 0,26.00001 -26,0 -26,0 -0.21167,-25.19264 c -0.11642,-13.85596 -0.0358,-25.65096 0.17915,-26.21112 0.30761,-0.80162 5.88848,-0.97352 26.21167,-0.80736 l 25.82085,0.21111 0,26 z m 76.8,0 0,26.00001 -26,0 -26,0 -0.21167,-25.19264 c -0.11642,-13.85596 -0.0358,-25.65096 0.17916,-26.21112 0.3076,-0.80162 5.88847,-0.97352 26.21166,-0.80736 l 25.82085,0.21111 0,26 z m -256.00001,76.80001 0,26 -26,0 -26,0 -0.21167,-25.19264 c -0.11641,-13.85596 -0.0358,-25.65096 0.17916,-26.21112 0.30761,-0.80162 5.88847,-0.97352 26.21167,-0.80736 l 25.82084,0.21112 0,26 z m 76.8,0 0,26 -26,0 -26,0 -0.21166,-25.19264 c -0.11642,-13.85596 -0.0358,-25.65096 0.17915,-26.21112 0.30761,-0.80162 5.88847,-0.97352 26.21167,-0.80736 l 25.82084,0.21112 0,26 z m -76.8,76.8 0,26 -26,0 -26,0 -0.21167,-25.19264 c -0.11641,-13.85596 -0.0358,-25.65096 0.17916,-26.21111 0.30761,-0.80162 5.88847,-0.97352 26.21167,-0.80736 l 25.82084,0.21111 0,26 z m 76.8,0 0,26 -26,0 -26,0 -0.21166,-25.19264 c -0.11642,-13.85596 -0.0358,-25.65096 0.17915,-26.21111 0.30761,-0.80162 5.88847,-0.97352 26.21167,-0.80736 l 25.82084,0.21111 0,26 z"
           style="fill:#ffffff" /><path
           inkscape:connector-curvature="0"
           id="path5481"
           d="m 317.60001,462.4 c 0,8 0.3,12.8 0.8,12.8 0.44,0 0.8,-0.36 0.8,-0.8 0,-1.21021 23.42188,-1.05812 24.64,0.16 1.25399,1.25398 1.41346,383.04001 0.16,383.04001 -0.44,0 -0.8,0.36 -0.8,0.8 0,0.52857 30.4,0.8 89.6,0.8 59.2,0 89.6,-0.27143 89.6,-0.8 0,-0.44 -0.36,-0.8 -0.8,-0.8 -1.24915,0 -1.09046,-151.38954 0.16,-152.64 0.73512,-0.73512 21.72445,-0.96 89.60001,-0.96 l 88.64,0 0,-114.24001 c 0,-87.78666 0.2223,-114.4623 0.96,-115.2 1.21812,-1.21812 24.64,-1.37021 24.64,-0.16 0,0.44 0.36,0.8 0.8,0.8 0.5,0 0.8,-4.8 0.8,-12.8 l 0,-12.8 -204.80001,0 -204.8,0 0,12.8 z m 154.24,12.16 c 1.37319,1.37318 1.37319,51.10682 0,52.48 -1.38272,1.38272 -76.69728,1.38272 -78.08,0 -1.37318,-1.37318 -1.37318,-51.10682 0,-52.48 1.38272,-1.38272 76.69728,-1.38272 78.08,0 z m 179.20001,0 c 1.37318,1.37318 1.37318,51.10682 0,52.48 -1.38272,1.38272 -76.69728,1.38272 -78.08,0 -1.37319,-1.37318 -1.37319,-51.10682 0,-52.48 1.38272,-1.38272 76.69728,-1.38272 78.08,0 z m -230.40001,76.8 c 1.37319,1.37319 1.37319,51.10682 0,52.48 -1.37318,1.37319 -51.10682,1.37319 -52.48,0 -1.37318,-1.37318 -1.37318,-51.10681 0,-52.48 1.37318,-1.37318 51.10682,-1.37318 52.48,0 z m 76.8,0 c 1.37319,1.37319 1.37319,51.10682 0,52.48 -1.37318,1.37319 -51.10681,1.37319 -52.48,0 -1.37318,-1.37318 -1.37318,-51.10681 0,-52.48 1.37319,-1.37318 51.10682,-1.37318 52.48,0 z m 102.40001,0 c 1.37318,1.37319 1.37318,51.10682 0,52.48 -1.37319,1.37319 -51.10682,1.37319 -52.48,0 -1.37319,-1.37318 -1.37319,-51.10681 0,-52.48 1.37318,-1.37318 51.10681,-1.37318 52.48,0 z m 76.8,0 c 1.37318,1.37319 1.37318,51.10682 0,52.48 -1.37319,1.37319 -51.10682,1.37319 -52.48,0 -1.37319,-1.37318 -1.37319,-51.10681 0,-52.48 1.37318,-1.37318 51.10681,-1.37318 52.48,0 z m -256.00001,76.8 c 1.37319,1.37319 1.37319,51.10682 0,52.48001 -1.37318,1.37318 -51.10682,1.37318 -52.48,0 -1.37318,-1.37319 -1.37318,-51.10682 0,-52.48001 1.37318,-1.37318 51.10682,-1.37318 52.48,0 z m 76.8,0 c 1.37319,1.37319 1.37319,51.10682 0,52.48001 -1.37318,1.37318 -51.10681,1.37318 -52.48,0 -1.37318,-1.37319 -1.37318,-51.10682 0,-52.48001 1.37319,-1.37318 51.10682,-1.37318 52.48,0 z m 102.40001,0 c 1.37318,1.37319 1.37318,51.10682 0,52.48001 -1.37319,1.37318 -51.10682,1.37318 -52.48,0 -1.37319,-1.37319 -1.37319,-51.10682 0,-52.48001 1.37318,-1.37318 51.10681,-1.37318 52.48,0 z m 76.8,0 c 1.37318,1.37319 1.37318,51.10682 0,52.48001 -1.37319,1.37318 -51.10682,1.37318 -52.48,0 -1.37319,-1.37319 -1.37319,-51.10682 0,-52.48001 1.37318,-1.37318 51.10681,-1.37318 52.48,0 z m -256.00001,76.80001 c 1.37319,1.37318 1.37319,51.10681 0,52.48 -1.37318,1.37318 -51.10682,1.37318 -52.48,0 -1.37318,-1.37319 -1.37318,-51.10682 0,-52.48 1.37318,-1.37319 51.10682,-1.37319 52.48,0 z m 76.8,0 c 1.37319,1.37318 1.37319,51.10681 0,52.48 -1.37318,1.37318 -51.10681,1.37318 -52.48,0 -1.37318,-1.37319 -1.37318,-51.10682 0,-52.48 1.37319,-1.37319 51.10682,-1.37319 52.48,0 z m -76.8,76.8 c 1.37319,1.37318 1.37319,51.10682 0,52.48 -1.37318,1.37318 -51.10682,1.37318 -52.48,0 -1.37318,-1.37318 -1.37318,-51.10682 0,-52.48 1.37318,-1.37318 51.10682,-1.37318 52.48,0 z m 76.8,0 c 1.37319,1.37318 1.37319,51.10682 0,52.48 -1.37318,1.37318 -51.10681,1.37318 -52.48,0 -1.37318,-1.37318 -1.37318,-51.10682 0,-52.48 1.37319,-1.37318 51.10682,-1.37318 52.48,0 z"
           style="fill:#ffffff" /></g></g></g></svg>