<?xml version="1.0" encoding="UTF-8" standalone="no"?>
<!-- Created with Inkscape (http://www.inkscape.org/) -->

<svg
   xmlns:dc="http://purl.org/dc/elements/1.1/"
   xmlns:cc="http://creativecommons.org/ns#"
   xmlns:rdf="http://www.w3.org/1999/02/22-rdf-syntax-ns#"
   xmlns:svg="http://www.w3.org/2000/svg"
   xmlns="http://www.w3.org/2000/svg"
   xmlns:xlink="http://www.w3.org/1999/xlink"
   xmlns:sodipodi="http://sodipodi.sourceforge.net/DTD/sodipodi-0.dtd"
   xmlns:inkscape="http://www.inkscape.org/namespaces/inkscape"
   id="svg2"
   version="1.1"
   inkscape:version="0.48.5 r10040"
   width="1280"
   height="1280"
   xml:space="preserve"
   sodipodi:docname="oi_cloud.ai.svg"
   inkscape:export-filename="/Users/weareu/Downloads/openitem_cloud_logo.png"
   inkscape:export-xdpi="90"
   inkscape:export-ydpi="90"><metadata
     id="metadata8"><rdf:RDF><cc:Work
         rdf:about=""><dc:format>image/svg+xml</dc:format><dc:type
           rdf:resource="http://purl.org/dc/dcmitype/StillImage" /><dc:title></dc:title></cc:Work></rdf:RDF></metadata><defs
     id="defs6"><linearGradient
       x1="0"
       y1="0"
       x2="1"
       y2="0"
       gradientUnits="userSpaceOnUse"
       gradientTransform="matrix(-1.53e-5,233.92529,233.92529,1.53e-5,512.00049,541.40039)"
       spreadMethod="pad"
       id="linearGradient24"><stop
         style="stop-opacity:1;stop-color:#3b4e5a"
         offset="0"
         id="stop26" /><stop
         style="stop-opacity:1;stop-color:#6b9aa5"
         offset="1"
         id="stop28" /></linearGradient><clipPath
       clipPathUnits="userSpaceOnUse"
       id="clipPath36"><path
         d="m 0,1024 1024,0 L 1024,0 0,0 0,1024 z"
         id="path38" /></clipPath><linearGradient
       inkscape:collect="always"
       xlink:href="#linearGradient24"
       id="linearGradient3220"
       gradientUnits="userSpaceOnUse"
       gradientTransform="matrix(-1.53e-5,233.92529,233.92529,1.53e-5,512.00049,541.40039)"
       spreadMethod="pad"
       x1="0"
       y1="0"
       x2="1"
       y2="0" /><linearGradient
       inkscape:collect="always"
       xlink:href="#linearGradient24"
       id="linearGradient3349"
       gradientUnits="userSpaceOnUse"
       gradientTransform="matrix(-1.53e-5,233.92529,233.92529,1.53e-5,512.00049,541.40039)"
       spreadMethod="pad"
       x1="0"
       y1="0"
       x2="1"
       y2="0" /></defs><sodipodi:namedview
     pagecolor="#ffffff"
     bordercolor="#666666"
     borderopacity="1"
     objecttolerance="10"
     gridtolerance="10"
     guidetolerance="10"
     inkscape:pageopacity="0"
     inkscape:pageshadow="2"
     inkscape:window-width="1055"
     inkscape:window-height="747"
     id="namedview4"
     showgrid="false"
     inkscape:zoom="1.4142136"
     inkscape:cx="623.19099"
     inkscape:cy="887.75262"
     inkscape:window-x="99"
     inkscape:window-y="30"
     inkscape:window-maximized="0"
     inkscape:current-layer="g10" /><g
     id="g10"
     inkscape:groupmode="layer"
     inkscape:label="Logo3"
     transform="matrix(1.25,0,0,-1.25,0,1280)"><g
       id="g22"
       transform="matrix(0.21889098,0,0,0.21889098,420.17318,637.88422)"
       inkscape:export-filename="/Users/weareu/Downloads/openitem_cloud_logo.png"
       inkscape:export-xdpi="90"
       inkscape:export-ydpi="90"><g
         id="g3346"
         transform="translate(-262.46192,-149.65914)"><path
           sodipodi:nodetypes="sccsccccccccccccccccccccccsccsccccsccsccccsccscccscccccsccsccscccccccccccccccccc"
           d="m 415.667,775.326 c -11.348,0 -20.634,-9.285 -20.634,-20.633 l 0,0 0,-192.66 c 0,-11.348 9.286,-20.633 20.634,-20.633 l 0,0 174.62221,0 c -8.161,14.295 -18.95585,33.90041 -23.46885,42.57841 l 36.85636,35.73949 C 597.73472,631.1959 451.964,613.211 460.557,611.208 l 0,0 c 6.631,-1.529 12.856,-13.687 23.119,-24.649 l 0,0 0.311,68.351 c -17.446,4.609 -30.346,20.521 -30.346,39.394 l 0,0 c 0,22.466 18.279,40.743 40.746,40.743 l 0,0 c 22.469,0 40.749,-18.277 40.749,-40.743 l 0,0 c 0,-19.132 -13.261,-35.218 -31.071,-39.574 l 0,0 0,-9.682 0.037,0 0,-23.905 3.066,0 0,10.866 c 0,5.302 4.311,9.611 9.658,9.611 l 0,0 1.018,0 c 5.348,0 9.611,-4.309 9.611,-9.611 l 0,0 0,-10.866 3.756,0 0,10.866 c 0,5.302 4.271,9.611 9.612,9.611 l 0,0 1.075,0 c 5.289,0 9.606,-4.309 9.606,-9.611 l 0,0 0,-10.866 3.71,0 0,10.866 c 0,5.302 4.276,9.611 9.62,9.611 l 0,0 1.014,0 c 5.343,0 9.658,-4.309 9.658,-9.611 l 0,0 L 437.01545,606.18696 575.506,611.678 c 0.046,0.002 -0.047,-0.046 -0.047,-0.096 l 16.75289,32.38892 -99.40047,3.44912 c 0,0 82.64758,-99.72104 80.81658,-106.02004 l 0,0 34.706,0 c 11.347,0 20.633,9.285 20.633,20.633 l 0,0 0,192.66 c 0,11.348 -9.286,20.633 -20.633,20.633 l 0,0 z m 25.34611,-115.64464 c 0,-16.586 117.19163,-109.92 132.34263,-114.407 l -21.22033,121.73765 -22.24218,57.94436 c -4.313,3.168 -54.03309,-5.14331 -52.91623,-30.65237 l 0,0 c 0,9.615 7.795,17.41 17.41,17.41 l 0,0 c 9.611,0 17.402,-7.795 17.402,-17.41 l 0,0 c 0,-6.032 -3.066,-11.343 -7.724,-14.467 l 0,0 0,-20.844 c 15.511,4.256 26.945,18.469 26.945,35.311 l 69.24527,-18.98661 c 0,20.191 -56.63693,71.24064 -76.82993,71.24064 l -32.38892,2.23372 c -20.193,0 -53.37389,-38.76419 -53.37389,-58.95519"
           style="fill:url(#linearGradient3349);stroke:none"
           id="path30"
           inkscape:connector-curvature="0" /></g></g><g
       id="g32"
       transform="matrix(0.21889098,0,0,0.21889098,361.25581,605.61413)"
       inkscape:export-filename="/Users/weareu/Downloads/openitem_cloud_logo.png"
       inkscape:export-xdpi="90"
       inkscape:export-ydpi="90"><g
         transform="translate(619.3887,486.915)"
         id="g40"><path
           inkscape:connector-curvature="0"
           id="path42"
           style="fill:#6b9aa5;fill-opacity:1;fill-rule:nonzero;stroke:none"
           d="m 0,0 c 0,-6.158 -4.986,-11.148 -11.152,-11.148 -6.159,0 -11.149,4.99 -11.149,11.148 0,6.162 4.99,11.152 11.149,11.152 C -4.986,11.152 0,6.162 0,0" /></g><g
         transform="translate(79.8091,424.876)"
         id="g44"><path
           inkscape:connector-curvature="0"
           id="path46"
           style="fill:#6b9aa5;fill-opacity:1;fill-rule:nonzero;stroke:none"
           d="m 0,0 c 0,-33.172 24.975,-59.1 57.955,-59.1 33.363,0 57.766,26.881 57.766,59.1 0,32.219 -24.403,59.1 -57.957,59.1 C 24.592,59.1 0,32.791 0,0.19 L 0,0 z m -15.823,-0.382 c 0,43.467 33.743,73.399 73.587,73.399 41.371,0 73.59,-31.648 73.59,-73.017 0,-41.37 -32.03,-73.017 -73.59,-73.017 -41.75,0 -73.587,32.219 -73.587,72.445 l 0,0.19 z" /></g><g
         transform="translate(327.2661,405.8115)"
         id="g48"><path
           inkscape:connector-curvature="0"
           id="path50"
           style="fill:#6b9aa5;fill-opacity:1;fill-rule:nonzero;stroke:none"
           d="m 0,0 c 0,19.255 -13.535,40.988 -41.178,40.988 -11.439,0 -21.543,-4.575 -28.978,-12.01 -7.053,-7.435 -11.438,-17.73 -11.438,-29.359 0,-11.438 4.385,-21.733 11.819,-29.169 7.244,-7.244 17.539,-11.629 28.978,-11.629 C -17.729,-41.179 0,-23.64 0,-0.19 L 0,0 z m -94.75,51.093 13.346,0 0,-21.353 c 8.388,14.87 23.258,24.212 42.894,24.212 34.508,0 52.617,-28.024 52.617,-54.524 0,-28.596 -20.779,-53.761 -52.617,-53.761 -22.685,0 -37.365,13.154 -42.131,23.83 l 0,-20.971 0,-38.891 -14.109,0 0,141.458 z" /></g><g
         transform="translate(448.7075,412.8652)"
         id="g52"><path
           inkscape:connector-curvature="0"
           id="path54"
           style="fill:#6b9aa5;fill-opacity:1;fill-rule:nonzero;stroke:none"
           d="M 0,0 C -0.953,17.921 -18.301,35.46 -39.463,34.888 -61.578,34.888 -77.973,18.684 -79.307,0 L 0,0 z m -79.498,-11.248 c 0.764,-25.736 22.687,-38.129 40.035,-37.938 15.824,0 28.596,7.817 35.27,21.162 l 14.679,0 C 5.719,-39.082 -1.525,-47.47 -10.295,-52.999 c -8.578,-5.528 -18.682,-8.388 -29.168,-8.388 -35.65,0 -54.142,28.406 -54.142,53.952 0,30.122 23.257,54.333 53.951,54.333 14.49,0 27.834,-5.147 37.558,-14.489 C 9.723,20.971 15.443,5.147 13.918,-11.248 l -93.416,0 z" /></g><g
         transform="translate(482.6431,456.9043)"
         id="g56"><path
           inkscape:connector-curvature="0"
           id="path58"
           style="fill:#6b9aa5;fill-opacity:1;fill-rule:nonzero;stroke:none"
           d="m 0,0 13.346,0 c 0,-5.72 0,-11.438 -0.192,-18.302 5.91,13.345 19.826,21.542 38.129,21.161 31.838,-0.38 43.086,-22.114 43.086,-47.088 l 0,-58.337 -13.918,0 0,55.477 c 0,22.114 -9.914,37.175 -32.981,36.794 -21.161,-0.19 -33.363,-12.964 -33.363,-34.316 l 0,-57.955 -14.107,0 L 0,0 z" /></g><path
         inkscape:connector-curvature="0"
         id="path60"
         style="fill:#3b4e5a;fill-opacity:1;fill-rule:nonzero;stroke:none"
         d="m 605.416,455.379 5.338,0 0,-101.041 -5.338,0 0,101.041 z" /><g
         transform="translate(649.2637,450.4219)"
         id="g62"><path
           inkscape:connector-curvature="0"
           id="path64"
           style="fill:#3b4e5a;fill-opacity:1;fill-rule:nonzero;stroke:none"
           d="m 0,0 -22.305,0 0,4.957 22.305,0 0,40.035 5.338,0 0,-40.035 25.928,0 0,-4.957 -25.928,0 0,-96.084 -5.338,0 L 0,0 z" /></g><g
         transform="translate(782.1426,409.2432)"
         id="g66"><path
           inkscape:connector-curvature="0"
           id="path68"
           style="fill:#3b4e5a;fill-opacity:1;fill-rule:nonzero;stroke:none"
           d="M 0,0 C -1.143,24.402 -23.83,44.61 -47.469,43.657 -72.443,43.657 -93.605,25.546 -95.131,0 L 0,0 z m -95.32,-4.957 c 0.381,-32.981 28.023,-47.66 47.851,-47.47 18.682,0 35.078,9.532 43.084,26.69 l 5.91,0 c -4.574,-10.676 -11.818,-18.683 -20.398,-24.021 -8.578,-5.147 -18.492,-7.626 -28.787,-7.626 -38.129,0 -53.19,30.313 -53.19,52.809 0,30.312 23.258,53.189 53.381,53.189 13.535,0 26.498,-4.766 36.223,-13.536 C -0.189,25.165 6.293,9.913 5.34,-4.957 l -100.66,0 z" /></g><g
         transform="translate(808.2617,455.3789)"
         id="g70"><path
           inkscape:connector-curvature="0"
           id="path72"
           style="fill:#3b4e5a;fill-opacity:1;fill-rule:nonzero;stroke:none"
           d="m 0,0 5.338,0 0,-18.874 c 9.723,19.446 27.453,21.353 33.935,21.353 12.202,0 22.877,-4.195 29.741,-12.392 2.859,-3.051 6.863,-11.82 6.863,-11.82 1.143,2.859 3.051,7.244 7.244,11.82 7.055,7.816 17.92,12.392 29.359,12.392 12.202,0 21.352,-3.814 27.643,-10.105 8.389,-8.197 11.629,-21.352 11.629,-36.794 l 0,-56.621 -5.338,0 0,56.621 c 0,13.917 -2.668,25.736 -10.295,33.362 -5.338,5.53 -13.154,8.579 -23.639,8.579 -8.96,0 -19.828,-3.431 -26.119,-11.628 -6.48,-8.389 -7.816,-14.49 -7.816,-30.313 l 0,-56.621 -5.338,0 0,56.621 c 0.381,15.823 -2.096,23.067 -7.244,29.931 -5.91,7.626 -14.869,11.63 -26.69,12.01 C 29.359,-2.097 19.637,-7.054 14.68,-13.536 9.152,-19.827 5.338,-28.787 5.338,-43.467 l 0,-57.574 -5.338,0 L 0,0 z" /></g></g><text
       xml:space="preserve"
       style="font-size:32px;font-style:normal;font-weight:normal;line-height:125%;letter-spacing:0px;word-spacing:0px;fill:#666666;fill-opacity:1;stroke:none;font-family:Sans"
       x="479.5817"
       y="-664.44116"
       id="text3187"
       sodipodi:linespacing="125%"
       transform="scale(1,-1)"
       inkscape:export-filename="/Users/weareu/Downloads/openitem_cloud_logo.png"
       inkscape:export-xdpi="90"
       inkscape:export-ydpi="90"><tspan
         sodipodi:role="line"
         id="tspan3189"
         x="479.5817"
         y="-664.44116"
         style="font-size:17.60000038px;font-style:normal;font-variant:normal;font-weight:normal;font-stretch:normal;fill:#666666;font-family:'.Al Nile PUA';-inkscape-font-specification:'.Al Nile PUA'">PLATFORM</tspan></text>
<path
       style="fill:#ffffff"
       d="m 472.625,771.425 c -0.53966,-10e-4 -1.06034,-0.0307 -1.425,-0.1 -0.57944,-0.11008 -1.55974,-0.39405 -1.7,-0.5 -0.0417,-0.0315 -0.1358,-0.075 -0.2,-0.075 -0.11798,0 -0.83258,-0.34401 -1.025,-0.5 -0.0573,-0.0465 -0.31908,-0.23392 -0.575,-0.4 -0.55516,-0.36024 -1.39357,-1.14398 -1.725,-1.625 -0.007,-0.0101 -0.24425,0.0192 -0.525,0.075 -0.72784,0.14474 -1.97287,0.13323 -2.7,-0.025 -1.3524,-0.29429 -2.51235,-0.84659 -3.45,-1.65 -0.31074,-0.26626 -1.25,-1.3189 -1.25,-1.4 0,-0.0349 -0.0896,-0.14884 -0.175,-0.25 -0.19006,-0.22509 -0.32179,-0.56032 -0.675,-1.55 -0.24589,-0.689 -0.275,-0.83048 -0.275,-1.575 l 0,-0.825 -0.35,-0.1 c -0.53068,-0.12981 -1.11374,-0.38769 -1.7,-0.775 -0.65177,-0.43059 -1.374,-1.03784 -1.375,-1.15 -3.9e-4,-0.045 -0.0905,-0.1118 -0.175,-0.15 -0.0845,-0.0381 -0.1857,-0.148 -0.25,-0.25 -0.24885,-0.39471 -0.43234,-0.67349 -0.6,-0.9 -0.0959,-0.12958 -0.17489,-0.2783 -0.175,-0.325 -1.7e-4,-0.0467 -0.0693,-0.21805 -0.15,-0.375 -0.0808,-0.15694 -0.24413,-0.57328 -0.35,-0.925 -0.1637,-0.54411 -0.175,-0.78361 -0.175,-1.7 0,-0.91 0.0146,-1.18469 0.175,-1.725 0.2122,-0.71479 0.51855,-1.38985 0.75,-1.725 0.0846,-0.12244 0.15,-0.2635 0.15,-0.3 0,-0.0365 0.0902,-0.1502 0.2,-0.25 0.10976,-0.0998 0.2,-0.1935 0.2,-0.225 0,-0.0913 0.30535,-0.42948 0.95,-1 0.63844,-0.56503 1.79221,-1.22913 2.625,-1.5 0.24283,-0.079 0.84207,-0.1783 1.325,-0.225 0.49834,-0.0482 4.35888,-0.0737 8.5,-0.075 l 0,-2.95 c -1.5e-4,-2.13022 -0.0488,-5.55919 -0.1,-7.6 l -0.1,-3.7 -0.4,0.475 c -0.22501,0.26509 -1.00945,1.21214 -1.725,2.1 -2.18454,2.71059 -2.89778,3.20018 -4.15,2.825 -0.79806,-0.2391 -1.25,-0.86298 -1.25,-1.7 0,-0.89546 0.16496,-1.2727 2.475,-5.4 1.0803,-1.93013 2.42876,-4.35394 3,-5.375 l 1.475,-2.55 9.975,0 c 9.79918,-0.003 10.18496,-0.13116 10.25,0.1 -0.1139,0.0692 0.14432,0.32946 0.2,0.775 0.0624,0.5015 0.16492,1.22661 0.175,2.1 0.0233,2.0237 -0.0388,4.80374 -0.025,7.675 0.0447,9.2655 0.0495,9.48391 -0.225,9.95 -0.63337,1.07528 -1.77778,1.39878 -2.875,0.825 -0.92489,-0.48366 -1.125,-0.96931 -1.125,-2.725 l 0,-1.45 -0.5,0 -0.475,0 0,1.45 c 0,1.75569 -0.22512,2.24134 -1.15,2.725 -1.09048,0.57026 -2.23052,0.25794 -2.85,-0.8 -0.20279,-0.34632 -0.27628,-0.8301 -0.325,-1.925 l -0.075,-1.45 -0.375,0 -0.4,0 -0.05,1.55 c -0.0681,1.65289 -0.18938,1.96344 -0.975,2.55 -0.92162,0.68809 -2.46165,0.32182 -3.05,-0.725 -0.25906,-0.4609 -0.3,-0.75049 -0.3,-1.95 l 0,-1.425 -0.425,0 -0.425,0 0.025,3.75 0.05,2.9 c 3.79874,0.0133 7.21158,0.0288 7.55,0.075 0.61977,0.0846 1.59767,0.3999 2.175,0.7 0.21951,0.11412 0.53632,0.259 0.675,0.325 0.33788,0.16061 0.48041,0.28815 1.15,0.85 0.61874,0.51916 1.1,0.99773 1.1,1.1 0,0.0355 0.0442,0.0819 0.1,0.1 0.13196,0.0427 0.94858,1.41822 1.2,2.025 0.4961,1.19728 0.67526,3.11509 0.4,4.175 -0.0673,0.25916 -0.1381,0.60841 -0.175,0.775 -0.0808,0.36561 -0.4671,1.24317 -0.625,1.45 -0.0626,0.082 -0.1,0.2007 -0.1,0.25 0,0.18497 -1.18885,1.5906 -1.8,2.125 -0.34931,0.30544 -0.6656,0.55 -0.7,0.55 -0.0344,0 -0.20965,0.10467 -0.4,0.225 l -0.35,0.2 0.025,0.95 c 0.0348,0.79741 0.0216,1.07851 -0.125,1.7 -0.32337,1.37108 -0.79843,2.38892 -1.5,3.225 -0.0989,0.11785 -0.175,0.2274 -0.175,0.25 0,0.0953 -1.29937,1.325 -1.4,1.325 -0.0322,0 -0.1597,0.0882 -0.3,0.2 -0.68018,0.54205 -2.22783,1.16706 -3.4,1.375 -0.38018,0.067 -0.93534,0.10144 -1.475,0.1 z"
       id="path3317"
       inkscape:connector-curvature="0"
       inkscape:export-filename="/Users/weareu/Downloads/openitem_cloud_logo.png"
       inkscape:export-xdpi="90"
       inkscape:export-ydpi="90" /></g></svg>