<?xml version="1.0" encoding="UTF-8" standalone="no"?>
<!-- Created with Inkscape (http://www.inkscape.org/) -->

<svg
   xmlns:dc="http://purl.org/dc/elements/1.1/"
   xmlns:cc="http://creativecommons.org/ns#"
   xmlns:rdf="http://www.w3.org/1999/02/22-rdf-syntax-ns#"
   xmlns:svg="http://www.w3.org/2000/svg"
   xmlns="http://www.w3.org/2000/svg"
   xmlns:xlink="http://www.w3.org/1999/xlink"
   xmlns:sodipodi="http://sodipodi.sourceforge.net/DTD/sodipodi-0.dtd"
   xmlns:inkscape="http://www.inkscape.org/namespaces/inkscape"
   id="svg2"
   version="1.1"
   inkscape:version="0.48.5 r10040"
   width="1280"
   height="1280"
   xml:space="preserve"
   sodipodi:docname="Logo3.ai"
   inkscape:export-filename="/Users/weareu/Downloads/openitem_cloud_logo.png"
   inkscape:export-xdpi="90"
   inkscape:export-ydpi="90"><metadata
     id="metadata8"><rdf:RDF><cc:Work
         rdf:about=""><dc:format>image/svg+xml</dc:format><dc:type
           rdf:resource="http://purl.org/dc/dcmitype/StillImage" /><dc:title></dc:title></cc:Work></rdf:RDF></metadata><defs
     id="defs6"><linearGradient
       x1="0"
       y1="0"
       x2="1"
       y2="0"
       gradientUnits="userSpaceOnUse"
       gradientTransform="matrix(-1.53e-5,233.92529,233.92529,1.53e-5,512.00049,541.40039)"
       spreadMethod="pad"
       id="linearGradient24"><stop
         style="stop-opacity:1;stop-color:#3b4e5a"
         offset="0"
         id="stop26" /><stop
         style="stop-opacity:1;stop-color:#6b9aa5"
         offset="1"
         id="stop28" /></linearGradient><clipPath
       clipPathUnits="userSpaceOnUse"
       id="clipPath36"><path
         d="m 0,1024 1024,0 L 1024,0 0,0 0,1024 z"
         id="path38" /></clipPath><linearGradient
       inkscape:collect="always"
       xlink:href="#linearGradient24"
       id="linearGradient3220"
       gradientUnits="userSpaceOnUse"
       gradientTransform="matrix(-1.53e-5,233.92529,233.92529,1.53e-5,512.00049,541.40039)"
       spreadMethod="pad"
       x1="0"
       y1="0"
       x2="1"
       y2="0" /><linearGradient
       inkscape:collect="always"
       xlink:href="#linearGradient24"
       id="linearGradient3349"
       gradientUnits="userSpaceOnUse"
       gradientTransform="matrix(-1.53e-5,233.92529,233.92529,1.53e-5,512.00049,541.40039)"
       spreadMethod="pad"
       x1="0"
       y1="0"
       x2="1"
       y2="0" /></defs><sodipodi:namedview
     pagecolor="#ffffff"
     bordercolor="#666666"
     borderopacity="1"
     objecttolerance="10"
     gridtolerance="10"
     guidetolerance="10"
     inkscape:pageopacity="0"
     inkscape:pageshadow="2"
     inkscape:window-width="1055"
     inkscape:window-height="747"
     id="namedview4"
     showgrid="false"
     inkscape:zoom="1"
     inkscape:cx="622.02746"
     inkscape:cy="890.78514"
     inkscape:window-x="299"
     inkscape:window-y="33"
     inkscape:window-maximized="0"
     inkscape:current-layer="g10" /><g
     id="g10"
     inkscape:groupmode="layer"
     inkscape:label="Logo3"
     transform="matrix(1.25,0,0,-1.25,0,1280)"><g
       id="g22"
       transform="matrix(0.21889098,0,0,0.21889098,420.17318,637.88422)"
       inkscape:export-filename="/Users/weareu/Downloads/openitem_vehclinsp_logo.png"
       inkscape:export-xdpi="90"
       inkscape:export-ydpi="90"><g
         id="g3346"
         transform="translate(-262.46192,-149.65914)"><path
           sodipodi:nodetypes="sccsccccccccccccccccccccccsccsccccsccsccccsccscccscccccsccsccscccccccccccccccccc"
           d="m 415.667,775.326 c -11.348,0 -20.634,-9.285 -20.634,-20.633 l 0,0 0,-192.66 c 0,-11.348 9.286,-20.633 20.634,-20.633 l 0,0 174.62221,0 c -8.161,14.295 -18.95585,33.90041 -23.46885,42.57841 l 36.85636,35.73949 C 597.73472,631.1959 451.964,613.211 460.557,611.208 l 0,0 c 6.631,-1.529 12.856,-13.687 23.119,-24.649 l 0,0 0.311,68.351 c -17.446,4.609 -30.346,20.521 -30.346,39.394 l 0,0 c 0,22.466 18.279,40.743 40.746,40.743 l 0,0 c 22.469,0 40.749,-18.277 40.749,-40.743 l 0,0 c 0,-19.132 -13.261,-35.218 -31.071,-39.574 l 0,0 0,-9.682 0.037,0 0,-23.905 3.066,0 0,10.866 c 0,5.302 4.311,9.611 9.658,9.611 l 0,0 1.018,0 c 5.348,0 9.611,-4.309 9.611,-9.611 l 0,0 0,-10.866 3.756,0 0,10.866 c 0,5.302 4.271,9.611 9.612,9.611 l 0,0 1.075,0 c 5.289,0 9.606,-4.309 9.606,-9.611 l 0,0 0,-10.866 3.71,0 0,10.866 c 0,5.302 4.276,9.611 9.62,9.611 l 0,0 1.014,0 c 5.343,0 9.658,-4.309 9.658,-9.611 l 0,0 L 437.01545,606.18696 575.506,611.678 c 0.046,0.002 -0.047,-0.046 -0.047,-0.096 l 16.75289,32.38892 -99.40047,3.44912 c 0,0 82.64758,-99.72104 80.81658,-106.02004 l 0,0 34.706,0 c 11.347,0 20.633,9.285 20.633,20.633 l 0,0 0,192.66 c 0,11.348 -9.286,20.633 -20.633,20.633 l 0,0 z m 25.34611,-115.64464 c 0,-16.586 117.19163,-109.92 132.34263,-114.407 l -21.22033,121.73765 -22.24218,57.94436 c -4.313,3.168 -54.03309,-5.14331 -52.91623,-30.65237 l 0,0 c 0,9.615 7.795,17.41 17.41,17.41 l 0,0 c 9.611,0 17.402,-7.795 17.402,-17.41 l 0,0 c 0,-6.032 -3.066,-11.343 -7.724,-14.467 l 0,0 0,-20.844 c 15.511,4.256 26.945,18.469 26.945,35.311 l 69.24527,-18.98661 c 0,20.191 -56.63693,71.24064 -76.82993,71.24064 l -32.38892,2.23372 c -20.193,0 -53.37389,-38.76419 -53.37389,-58.95519"
           style="fill:url(#linearGradient3349);stroke:none"
           id="path30"
           inkscape:connector-curvature="0" /></g></g><g
       id="g32"
       transform="matrix(0.21889098,0,0,0.21889098,361.25581,605.61413)"
       inkscape:export-filename="/Users/weareu/Downloads/openitem_vehclinsp_logo.png"
       inkscape:export-xdpi="90"
       inkscape:export-ydpi="90"><g
         transform="translate(619.3887,486.915)"
         id="g40"><path
           inkscape:connector-curvature="0"
           id="path42"
           style="fill:#6b9aa5;fill-opacity:1;fill-rule:nonzero;stroke:none"
           d="m 0,0 c 0,-6.158 -4.986,-11.148 -11.152,-11.148 -6.159,0 -11.149,4.99 -11.149,11.148 0,6.162 4.99,11.152 11.149,11.152 C -4.986,11.152 0,6.162 0,0" /></g><g
         transform="translate(79.8091,424.876)"
         id="g44"><path
           inkscape:connector-curvature="0"
           id="path46"
           style="fill:#6b9aa5;fill-opacity:1;fill-rule:nonzero;stroke:none"
           d="m 0,0 c 0,-33.172 24.975,-59.1 57.955,-59.1 33.363,0 57.766,26.881 57.766,59.1 0,32.219 -24.403,59.1 -57.957,59.1 C 24.592,59.1 0,32.791 0,0.19 L 0,0 z m -15.823,-0.382 c 0,43.467 33.743,73.399 73.587,73.399 41.371,0 73.59,-31.648 73.59,-73.017 0,-41.37 -32.03,-73.017 -73.59,-73.017 -41.75,0 -73.587,32.219 -73.587,72.445 l 0,0.19 z" /></g><g
         transform="translate(327.2661,405.8115)"
         id="g48"><path
           inkscape:connector-curvature="0"
           id="path50"
           style="fill:#6b9aa5;fill-opacity:1;fill-rule:nonzero;stroke:none"
           d="m 0,0 c 0,19.255 -13.535,40.988 -41.178,40.988 -11.439,0 -21.543,-4.575 -28.978,-12.01 -7.053,-7.435 -11.438,-17.73 -11.438,-29.359 0,-11.438 4.385,-21.733 11.819,-29.169 7.244,-7.244 17.539,-11.629 28.978,-11.629 C -17.729,-41.179 0,-23.64 0,-0.19 L 0,0 z m -94.75,51.093 13.346,0 0,-21.353 c 8.388,14.87 23.258,24.212 42.894,24.212 34.508,0 52.617,-28.024 52.617,-54.524 0,-28.596 -20.779,-53.761 -52.617,-53.761 -22.685,0 -37.365,13.154 -42.131,23.83 l 0,-20.971 0,-38.891 -14.109,0 0,141.458 z" /></g><g
         transform="translate(448.7075,412.8652)"
         id="g52"><path
           inkscape:connector-curvature="0"
           id="path54"
           style="fill:#6b9aa5;fill-opacity:1;fill-rule:nonzero;stroke:none"
           d="M 0,0 C -0.953,17.921 -18.301,35.46 -39.463,34.888 -61.578,34.888 -77.973,18.684 -79.307,0 L 0,0 z m -79.498,-11.248 c 0.764,-25.736 22.687,-38.129 40.035,-37.938 15.824,0 28.596,7.817 35.27,21.162 l 14.679,0 C 5.719,-39.082 -1.525,-47.47 -10.295,-52.999 c -8.578,-5.528 -18.682,-8.388 -29.168,-8.388 -35.65,0 -54.142,28.406 -54.142,53.952 0,30.122 23.257,54.333 53.951,54.333 14.49,0 27.834,-5.147 37.558,-14.489 C 9.723,20.971 15.443,5.147 13.918,-11.248 l -93.416,0 z" /></g><g
         transform="translate(482.6431,456.9043)"
         id="g56"><path
           inkscape:connector-curvature="0"
           id="path58"
           style="fill:#6b9aa5;fill-opacity:1;fill-rule:nonzero;stroke:none"
           d="m 0,0 13.346,0 c 0,-5.72 0,-11.438 -0.192,-18.302 5.91,13.345 19.826,21.542 38.129,21.161 31.838,-0.38 43.086,-22.114 43.086,-47.088 l 0,-58.337 -13.918,0 0,55.477 c 0,22.114 -9.914,37.175 -32.981,36.794 -21.161,-0.19 -33.363,-12.964 -33.363,-34.316 l 0,-57.955 -14.107,0 L 0,0 z" /></g><path
         inkscape:connector-curvature="0"
         id="path60"
         style="fill:#3b4e5a;fill-opacity:1;fill-rule:nonzero;stroke:none"
         d="m 605.416,455.379 5.338,0 0,-101.041 -5.338,0 0,101.041 z" /><g
         transform="translate(649.2637,450.4219)"
         id="g62"><path
           inkscape:connector-curvature="0"
           id="path64"
           style="fill:#3b4e5a;fill-opacity:1;fill-rule:nonzero;stroke:none"
           d="m 0,0 -22.305,0 0,4.957 22.305,0 0,40.035 5.338,0 0,-40.035 25.928,0 0,-4.957 -25.928,0 0,-96.084 -5.338,0 L 0,0 z" /></g><g
         transform="translate(782.1426,409.2432)"
         id="g66"><path
           inkscape:connector-curvature="0"
           id="path68"
           style="fill:#3b4e5a;fill-opacity:1;fill-rule:nonzero;stroke:none"
           d="M 0,0 C -1.143,24.402 -23.83,44.61 -47.469,43.657 -72.443,43.657 -93.605,25.546 -95.131,0 L 0,0 z m -95.32,-4.957 c 0.381,-32.981 28.023,-47.66 47.851,-47.47 18.682,0 35.078,9.532 43.084,26.69 l 5.91,0 c -4.574,-10.676 -11.818,-18.683 -20.398,-24.021 -8.578,-5.147 -18.492,-7.626 -28.787,-7.626 -38.129,0 -53.19,30.313 -53.19,52.809 0,30.312 23.258,53.189 53.381,53.189 13.535,0 26.498,-4.766 36.223,-13.536 C -0.189,25.165 6.293,9.913 5.34,-4.957 l -100.66,0 z" /></g><g
         transform="translate(808.2617,455.3789)"
         id="g70"><path
           inkscape:connector-curvature="0"
           id="path72"
           style="fill:#3b4e5a;fill-opacity:1;fill-rule:nonzero;stroke:none"
           d="m 0,0 5.338,0 0,-18.874 c 9.723,19.446 27.453,21.353 33.935,21.353 12.202,0 22.877,-4.195 29.741,-12.392 2.859,-3.051 6.863,-11.82 6.863,-11.82 1.143,2.859 3.051,7.244 7.244,11.82 7.055,7.816 17.92,12.392 29.359,12.392 12.202,0 21.352,-3.814 27.643,-10.105 8.389,-8.197 11.629,-21.352 11.629,-36.794 l 0,-56.621 -5.338,0 0,56.621 c 0,13.917 -2.668,25.736 -10.295,33.362 -5.338,5.53 -13.154,8.579 -23.639,8.579 -8.96,0 -19.828,-3.431 -26.119,-11.628 -6.48,-8.389 -7.816,-14.49 -7.816,-30.313 l 0,-56.621 -5.338,0 0,56.621 c 0.381,15.823 -2.096,23.067 -7.244,29.931 -5.91,7.626 -14.869,11.63 -26.69,12.01 C 29.359,-2.097 19.637,-7.054 14.68,-13.536 9.152,-19.827 5.338,-28.787 5.338,-43.467 l 0,-57.574 -5.338,0 L 0,0 z" /></g></g><text
       xml:space="preserve"
       style="font-size:32px;font-style:normal;font-weight:normal;line-height:125%;letter-spacing:0px;word-spacing:0px;fill:#666666;fill-opacity:1;stroke:none;font-family:Sans"
       x="512.95715"
       y="-662.17847"
       id="text3187"
       sodipodi:linespacing="125%"
       transform="scale(1,-1)"
       inkscape:export-filename="/Users/weareu/Downloads/openitem_vehclinsp_logo.png"
       inkscape:export-xdpi="90"
       inkscape:export-ydpi="90"><tspan
         sodipodi:role="line"
         id="tspan3189"
         x="512.95715"
         y="-662.17847"
         style="font-size:17.60000038px;font-style:normal;font-variant:normal;font-weight:normal;font-stretch:normal;fill:#666666;font-family:'.Al Nile PUA';-inkscape-font-specification:'.Al Nile PUA'">CLOUD</tspan></text>
<path
       style="fill:#ffffff"
       d="m 458.80104,748.23125 c -0.48293,0.0467 -1.07673,0.14956 -1.31956,0.22854 -0.83279,0.27087 -1.99327,0.9302 -2.63171,1.49523 -0.64465,0.57052 -0.9579,0.8921 -0.9579,0.9834 0,0.0315 -0.0898,0.13903 -0.19956,0.23885 -0.10976,0.0998 -0.19956,0.21136 -0.19956,0.24789 0,0.0365 -0.0691,0.16658 -0.15373,0.28902 -0.23145,0.33515 -0.52184,1.0224 -0.73404,1.73719 -0.1604,0.54031 -0.18985,0.80651 -0.18985,1.71651 0,0.91639 0.0287,1.1724 0.1924,1.71651 0.10587,0.35172 0.25848,0.76789 0.33926,0.92483 0.0807,0.15695 0.14698,0.32355 0.14715,0.37023 1.1e-4,0.0467 0.0788,0.1909 0.17467,0.32048 0.16766,0.22651 0.34942,0.49758 0.59827,0.89229 0.0643,0.102 0.18607,0.21666 0.27054,0.25479 0.0845,0.0382 0.15389,0.10611 0.15428,0.15108 0.001,0.11216 0.72417,0.71347 1.37594,1.14406 0.58626,0.38731 1.18585,0.66492 1.71653,0.79473 l 0.33926,0.083 0,0.82472 c 0,0.74452 0.0265,0.89894 0.27239,1.58794 0.35321,0.98968 0.49976,1.31738 0.68982,1.54247 0.0854,0.10116 0.15532,0.21249 0.15532,0.24741 0,0.0811 0.93876,1.13039 1.2495,1.39665 0.93765,0.80341 2.10052,1.36082 3.45292,1.65511 0.72713,0.15823 1.98494,0.16994 2.71278,0.0252 0.28075,-0.0558 0.51612,-0.0933 0.52307,-0.0832 0.33143,0.48102 1.1699,1.27661 1.72506,1.63685 0.25592,0.16608 0.51224,0.33999 0.56959,0.38648 0.19242,0.15599 0.91525,0.51926 1.03323,0.51926 0.0642,0 0.15087,0.0258 0.19257,0.0573 0.14026,0.10595 1.10864,0.39663 1.68808,0.50671 0.72932,0.13857 2.14313,0.14206 2.90348,0.008 1.17217,-0.20794 2.7223,-0.83555 3.40248,-1.3776 0.1403,-0.1118 0.28142,-0.20328 0.31362,-0.20328 0.10063,0 1.38695,-1.21883 1.38695,-1.31417 0,-0.0226 0.0809,-0.13753 0.17981,-0.25538 0.70157,-0.83608 1.1812,-1.86898 1.50457,-3.24006 0.14656,-0.62149 0.16736,-0.88545 0.13256,-1.68286 l -0.0413,-0.94574 0.34608,-0.21877 c 0.19035,-0.12033 0.37426,-0.21878 0.40868,-0.21878 0.0344,0 0.34838,-0.2499 0.69769,-0.55534 0.61115,-0.5344 1.8008,-1.93471 1.8008,-2.11968 0,-0.0493 0.0512,-0.15669 0.11383,-0.23869 0.1579,-0.20683 0.52869,-1.09611 0.60945,-1.46172 0.0369,-0.16659 0.12198,-0.51494 0.18929,-0.7741 0.27526,-1.05991 0.0878,-2.9762 -0.4083,-4.17348 -0.25142,-0.60678 -1.06906,-1.99194 -1.20102,-2.03464 -0.0558,-0.0181 -0.10153,-0.062 -0.10153,-0.0975 0,-0.10227 -0.46918,-0.5735 -1.08792,-1.09266 -0.66959,-0.56185 -0.83651,-0.68154 -1.17439,-0.84215 -0.13868,-0.066 -0.43175,-0.21321 -0.65126,-0.32733 -0.57733,-0.3001 -1.55695,-0.61491 -2.17672,-0.69949 -0.83209,-0.11357 -19.18544,-0.13649 -20.33364,-0.0254 z"
       id="path3317"
       inkscape:connector-curvature="0"
       inkscape:export-filename="/Users/weareu/Downloads/openitem_vehclinsp_logo.png"
       inkscape:export-xdpi="90"
       inkscape:export-ydpi="90" /><path
       style="fill:#6a9aa6;fill-opacity:1"
       d="m 581.32165,371.46871 c -0.71405,-1.27633 -2.40311,-4.2946 -3.75348,-6.70726 -2.88755,-5.15913 -3.10743,-5.63722 -3.10743,-6.75654 0,-1.04627 0.57763,-1.82517 1.5752,-2.12405 1.56528,-0.46897 2.46235,0.14062 5.19303,3.52886 0.89444,1.10983 1.85638,2.28898 2.13764,2.62034 l 0.51139,0.60247 0.11633,-4.6382 c 0.064,-2.55101 0.11651,-6.81684 0.1167,-9.47962 l 3.6e-4,-4.84142 -0.74573,-0.22017 c -2.40372,-0.70967 -5.22981,-3.14519 -6.32436,-5.45031 -0.34369,-0.7238 -0.74907,-1.80115 -0.90086,-2.39412 -0.34991,-1.36698 -0.35478,-3.88983 -0.0101,-5.24567 0.98066,-3.85791 4.20391,-7.08116 8.06181,-8.06182 1.22258,-0.31077 3.71557,-0.34763 5.04303,-0.0746 2.99349,0.61578 6.11577,3.10359 7.46751,5.95005 0.90098,1.89727 1.15613,3.02708 1.12916,4.99995 -0.0413,3.02124 -1.0433,5.32551 -3.29428,7.57585 -1.43531,1.43491 -2.48046,2.10426 -4.19709,2.68798 l -0.87733,0.29833 -0.0467,4.67706 -0.0467,4.67707 0.52926,0 0.52927,0 0,-1.77464 c 0,-1.49939 0.0594,-1.8804 0.38323,-2.45652 0.73544,-1.30853 2.6499,-1.76336 3.80193,-0.90325 0.98203,0.7332 1.13452,1.13319 1.21964,3.1993 l 0.0797,1.93511 0.48086,0 0.48087,0 0.0809,-1.81897 c 0.0609,-1.36862 0.16431,-1.96142 0.4178,-2.39432 0.77435,-1.32242 2.20695,-1.731 3.57005,-1.01817 1.1561,0.60458 1.41672,1.23558 1.41672,3.43019 l 0,1.80127 0.61413,0 0.61413,0 0,-1.80127 c 0,-2.19461 0.26061,-2.82561 1.41672,-3.43019 1.37152,-0.71723 2.79237,-0.3055 3.58408,1.0386 0.34316,0.58261 0.34969,0.85791 0.29386,12.43978 -0.0173,3.58907 0.0634,7.07215 0.0343,9.60177 -0.0126,1.09174 -0.14679,1.98577 -0.22479,2.61264 -0.0696,0.55692 -0.40087,0.90297 -0.2585,0.98945 -0.0813,0.28895 -0.54834,0.13134 -12.79732,0.12726 l -12.49016,-0.004 -1.82468,-3.19794 z m 2.78974,-31.62598 0,-2.89768 -0.76711,-0.9418 c -1.6086,-1.97493 -1.5115,-4.49515 0.24071,-6.24736 1.846,-1.846 4.6576,-1.85138 6.49655,-0.0124 1.83426,1.83426 1.8596,4.59156 0.0595,6.47028 l -0.76563,0.79905 0,2.86381 c 0,1.96996 0.0604,2.86381 0.19347,2.86381 0.10642,0 0.84755,-0.30651 1.64698,-0.68113 1.10197,-0.51641 1.74671,-0.97259 2.66594,-1.88627 4.02842,-4.0041 4.05567,-10.26239 0.0622,-14.29521 -3.87735,-3.91558 -10.31265,-3.91299 -14.23138,0.006 -4.85208,4.85208 -3.48457,13.13493 2.66398,16.13542 0.80936,0.39497 1.53078,0.71887 1.60316,0.71978 0.0724,8.8e-4 0.1316,-1.3023 0.1316,-2.89602 z"
       id="path3334"
       inkscape:connector-curvature="0"
       sodipodi:nodetypes="cssssscsscssscscsssscccccscscccccssscccsscssscccccccsssscsscsscsccc"
       transform="matrix(0.8,0,0,-0.8,0,1024)"
       inkscape:export-filename="/Users/weareu/Downloads/openitem_vehclinsp_logo.png"
       inkscape:export-xdpi="90"
       inkscape:export-ydpi="90" /></g></svg>