<?xml version="1.0" encoding="UTF-8" standalone="no"?>
<!-- Created with Inkscape (http://www.inkscape.org/) -->

<svg
   xmlns:dc="http://purl.org/dc/elements/1.1/"
   xmlns:cc="http://creativecommons.org/ns#"
   xmlns:rdf="http://www.w3.org/1999/02/22-rdf-syntax-ns#"
   xmlns:svg="http://www.w3.org/2000/svg"
   xmlns="http://www.w3.org/2000/svg"
   xmlns:xlink="http://www.w3.org/1999/xlink"
   xmlns:sodipodi="http://sodipodi.sourceforge.net/DTD/sodipodi-0.dtd"
   xmlns:inkscape="http://www.inkscape.org/namespaces/inkscape"
   id="svg2"
   version="1.1"
   inkscape:version="0.48.5 r10040"
   width="1280"
   height="1280"
   xml:space="preserve"
   sodipodi:docname="oi_fuel.ai.svg"
   inkscape:export-filename="/Users/weareu/Downloads/openitem_cloud_logo.png"
   inkscape:export-xdpi="90"
   inkscape:export-ydpi="90"><metadata
     id="metadata8"><rdf:RDF><cc:Work
         rdf:about=""><dc:format>image/svg+xml</dc:format><dc:type
           rdf:resource="http://purl.org/dc/dcmitype/StillImage" /><dc:title></dc:title></cc:Work></rdf:RDF></metadata><defs
     id="defs6"><linearGradient
       x1="0"
       y1="0"
       x2="1"
       y2="0"
       gradientUnits="userSpaceOnUse"
       gradientTransform="matrix(-1.53e-5,233.92529,233.92529,1.53e-5,512.00049,541.40039)"
       spreadMethod="pad"
       id="linearGradient24"><stop
         style="stop-opacity:1;stop-color:#3b4e5a"
         offset="0"
         id="stop26" /><stop
         style="stop-opacity:1;stop-color:#6b9aa5"
         offset="1"
         id="stop28" /></linearGradient><clipPath
       clipPathUnits="userSpaceOnUse"
       id="clipPath36"><path
         d="m 0,1024 1024,0 L 1024,0 0,0 0,1024 z"
         id="path38" /></clipPath><linearGradient
       inkscape:collect="always"
       xlink:href="#linearGradient24"
       id="linearGradient4360"
       gradientUnits="userSpaceOnUse"
       gradientTransform="matrix(-3.349032e-6,51.204136,51.204136,3.349032e-6,473.3281,724.12179)"
       spreadMethod="pad"
       x1="0"
       y1="0"
       x2="1"
       y2="0" /></defs><sodipodi:namedview
     pagecolor="#ffffff"
     bordercolor="#666666"
     borderopacity="1"
     objecttolerance="10"
     gridtolerance="10"
     guidetolerance="10"
     inkscape:pageopacity="0"
     inkscape:pageshadow="2"
     inkscape:window-width="1055"
     inkscape:window-height="747"
     id="namedview4"
     showgrid="false"
     inkscape:zoom="3.9933812"
     inkscape:cx="582.29331"
     inkscape:cy="925.90564"
     inkscape:window-x="299"
     inkscape:window-y="33"
     inkscape:window-maximized="0"
     inkscape:current-layer="g10" /><g
     id="g10"
     inkscape:groupmode="layer"
     inkscape:label="Logo3"
     transform="matrix(1.25,0,0,-1.25,0,1280)"><path
       d="m 452.24157,775.326 c -2.48398,0 -4.5166,-2.0324 -4.5166,-4.51638 l 0,0 0,-42.17154 c 0,-2.48397 2.03262,-4.51637 4.5166,-4.51637 l 0,0 14.26512,0 c -1.78637,3.12904 -5.61608,9.86519 -6.60394,11.76473 l 0,0 c -1.30065,2.51243 0.2839,3.95405 2.16483,3.51561 l 0,0 c 1.45147,-0.33469 2.81407,-2.99596 5.06054,-5.39545 l 0,0 0.0681,14.96142 c -3.81877,1.00887 -6.64247,4.49186 -6.64247,8.62299 l 0,0 c 0,4.91761 4.00111,8.91828 8.91893,8.91828 l 0,0 c 4.91827,0 8.91959,-4.00067 8.91959,-8.91828 l 0,0 c 0,-4.18782 -2.90271,-7.7089 -6.80116,-8.66239 l 0,0 0,-2.1193 0.008,0 0,-5.23259 0.67112,0 0,2.37847 c 0,1.16056 0.94364,2.10376 2.11405,2.10376 l 0,0 0.22283,0 c 1.17063,0 2.10376,-0.9432 2.10376,-2.10376 l 0,0 0,-2.37847 0.82216,0 0,2.37847 c 0,1.16056 0.93488,2.10376 2.10398,2.10376 l 0,0 0.2353,0 c 1.15772,0 2.10267,-0.9432 2.10267,-2.10376 l 0,0 0,-2.37847 0.81209,0 0,2.37847 c 0,1.16056 0.93597,2.10376 2.10573,2.10376 l 0,0 0.22195,0 c 1.16954,0 2.11405,-0.9432 2.11405,-2.10376 l 0,0 0,-0.51833 0,-3.93194 c 0,-0.0101 -0.0103,-0.0101 -0.0103,-0.021 l 0,0 0,-12.93536 c 0,0 0,-1.04805 -0.40078,-2.42684 l 0,0 7.59683,0 c 2.48375,0 4.51637,2.0324 4.51637,4.51637 l 0,0 0,42.17154 c 0,2.48398 -2.03262,4.51638 -4.51637,4.51638 l 0,0 -42.17307,0 z m 9.21509,-17.73499 c 0,-3.63052 2.4275,-6.7031 5.74392,-7.68526 l 0,0 0.0208,4.61597 c -0.94408,0.69345 -1.5596,1.80782 -1.5596,3.06929 l 0,0 c 0,2.10464 1.70626,3.81089 3.81089,3.81089 l 0,0 c 2.10377,0 3.80915,-1.70625 3.80915,-3.81089 l 0,0 c 0,-1.32035 -0.67112,-2.48288 -1.69072,-3.16669 l 0,0 0,-4.56257 c 3.39522,0.9316 5.89802,4.0427 5.89802,7.72926 l 0,0 c 0,4.41963 -3.59638,8.01535 -8.01645,8.01535 l 0,0 c -4.42006,0 -8.016,-3.59572 -8.016,-8.01535"
       style="fill:url(#linearGradient4360);stroke:none"
       id="path30"
       inkscape:connector-curvature="0" /><g
       id="g32"
       transform="matrix(0.21889098,0,0,0.21889098,361.25581,605.61413)"><g
         transform="translate(619.3887,486.915)"
         id="g40"><path
           inkscape:connector-curvature="0"
           id="path42"
           style="fill:#6b9aa5;fill-opacity:1;fill-rule:nonzero;stroke:none"
           d="m 0,0 c 0,-6.158 -4.986,-11.148 -11.152,-11.148 -6.159,0 -11.149,4.99 -11.149,11.148 0,6.162 4.99,11.152 11.149,11.152 C -4.986,11.152 0,6.162 0,0" /></g><g
         transform="translate(79.8091,424.876)"
         id="g44"><path
           inkscape:connector-curvature="0"
           id="path46"
           style="fill:#6b9aa5;fill-opacity:1;fill-rule:nonzero;stroke:none"
           d="m 0,0 c 0,-33.172 24.975,-59.1 57.955,-59.1 33.363,0 57.766,26.881 57.766,59.1 0,32.219 -24.403,59.1 -57.957,59.1 C 24.592,59.1 0,32.791 0,0.19 L 0,0 z m -15.823,-0.382 c 0,43.467 33.743,73.399 73.587,73.399 41.371,0 73.59,-31.648 73.59,-73.017 0,-41.37 -32.03,-73.017 -73.59,-73.017 -41.75,0 -73.587,32.219 -73.587,72.445 l 0,0.19 z" /></g><g
         transform="translate(327.2661,405.8115)"
         id="g48"><path
           inkscape:connector-curvature="0"
           id="path50"
           style="fill:#6b9aa5;fill-opacity:1;fill-rule:nonzero;stroke:none"
           d="m 0,0 c 0,19.255 -13.535,40.988 -41.178,40.988 -11.439,0 -21.543,-4.575 -28.978,-12.01 -7.053,-7.435 -11.438,-17.73 -11.438,-29.359 0,-11.438 4.385,-21.733 11.819,-29.169 7.244,-7.244 17.539,-11.629 28.978,-11.629 C -17.729,-41.179 0,-23.64 0,-0.19 L 0,0 z m -94.75,51.093 13.346,0 0,-21.353 c 8.388,14.87 23.258,24.212 42.894,24.212 34.508,0 52.617,-28.024 52.617,-54.524 0,-28.596 -20.779,-53.761 -52.617,-53.761 -22.685,0 -37.365,13.154 -42.131,23.83 l 0,-20.971 0,-38.891 -14.109,0 0,141.458 z" /></g><g
         transform="translate(448.7075,412.8652)"
         id="g52"><path
           inkscape:connector-curvature="0"
           id="path54"
           style="fill:#6b9aa5;fill-opacity:1;fill-rule:nonzero;stroke:none"
           d="M 0,0 C -0.953,17.921 -18.301,35.46 -39.463,34.888 -61.578,34.888 -77.973,18.684 -79.307,0 L 0,0 z m -79.498,-11.248 c 0.764,-25.736 22.687,-38.129 40.035,-37.938 15.824,0 28.596,7.817 35.27,21.162 l 14.679,0 C 5.719,-39.082 -1.525,-47.47 -10.295,-52.999 c -8.578,-5.528 -18.682,-8.388 -29.168,-8.388 -35.65,0 -54.142,28.406 -54.142,53.952 0,30.122 23.257,54.333 53.951,54.333 14.49,0 27.834,-5.147 37.558,-14.489 C 9.723,20.971 15.443,5.147 13.918,-11.248 l -93.416,0 z" /></g><g
         transform="translate(482.6431,456.9043)"
         id="g56"><path
           inkscape:connector-curvature="0"
           id="path58"
           style="fill:#6b9aa5;fill-opacity:1;fill-rule:nonzero;stroke:none"
           d="m 0,0 13.346,0 c 0,-5.72 0,-11.438 -0.192,-18.302 5.91,13.345 19.826,21.542 38.129,21.161 31.838,-0.38 43.086,-22.114 43.086,-47.088 l 0,-58.337 -13.918,0 0,55.477 c 0,22.114 -9.914,37.175 -32.981,36.794 -21.161,-0.19 -33.363,-12.964 -33.363,-34.316 l 0,-57.955 -14.107,0 L 0,0 z" /></g><path
         inkscape:connector-curvature="0"
         id="path60"
         style="fill:#3b4e5a;fill-opacity:1;fill-rule:nonzero;stroke:none"
         d="m 605.416,455.379 5.338,0 0,-101.041 -5.338,0 0,101.041 z" /><g
         transform="translate(649.2637,450.4219)"
         id="g62"><path
           inkscape:connector-curvature="0"
           id="path64"
           style="fill:#3b4e5a;fill-opacity:1;fill-rule:nonzero;stroke:none"
           d="m 0,0 -22.305,0 0,4.957 22.305,0 0,40.035 5.338,0 0,-40.035 25.928,0 0,-4.957 -25.928,0 0,-96.084 -5.338,0 L 0,0 z" /></g><g
         transform="translate(782.1426,409.2432)"
         id="g66"><path
           inkscape:connector-curvature="0"
           id="path68"
           style="fill:#3b4e5a;fill-opacity:1;fill-rule:nonzero;stroke:none"
           d="M 0,0 C -1.143,24.402 -23.83,44.61 -47.469,43.657 -72.443,43.657 -93.605,25.546 -95.131,0 L 0,0 z m -95.32,-4.957 c 0.381,-32.981 28.023,-47.66 47.851,-47.47 18.682,0 35.078,9.532 43.084,26.69 l 5.91,0 c -4.574,-10.676 -11.818,-18.683 -20.398,-24.021 -8.578,-5.147 -18.492,-7.626 -28.787,-7.626 -38.129,0 -53.19,30.313 -53.19,52.809 0,30.312 23.258,53.189 53.381,53.189 13.535,0 26.498,-4.766 36.223,-13.536 C -0.189,25.165 6.293,9.913 5.34,-4.957 l -100.66,0 z" /></g><g
         transform="translate(808.2617,455.3789)"
         id="g70"><path
           inkscape:connector-curvature="0"
           id="path72"
           style="fill:#3b4e5a;fill-opacity:1;fill-rule:nonzero;stroke:none"
           d="m 0,0 5.338,0 0,-18.874 c 9.723,19.446 27.453,21.353 33.935,21.353 12.202,0 22.877,-4.195 29.741,-12.392 2.859,-3.051 6.863,-11.82 6.863,-11.82 1.143,2.859 3.051,7.244 7.244,11.82 7.055,7.816 17.92,12.392 29.359,12.392 12.202,0 21.352,-3.814 27.643,-10.105 8.389,-8.197 11.629,-21.352 11.629,-36.794 l 0,-56.621 -5.338,0 0,56.621 c 0,13.917 -2.668,25.736 -10.295,33.362 -5.338,5.53 -13.154,8.579 -23.639,8.579 -8.96,0 -19.828,-3.431 -26.119,-11.628 -6.48,-8.389 -7.816,-14.49 -7.816,-30.313 l 0,-56.621 -5.338,0 0,56.621 c 0.381,15.823 -2.096,23.067 -7.244,29.931 -5.91,7.626 -14.869,11.63 -26.69,12.01 C 29.359,-2.097 19.637,-7.054 14.68,-13.536 9.152,-19.827 5.338,-28.787 5.338,-43.467 l 0,-57.574 -5.338,0 L 0,0 z" /></g></g><text
       xml:space="preserve"
       style="font-size:32px;font-style:normal;font-weight:normal;line-height:125%;letter-spacing:0px;word-spacing:0px;fill:#666666;fill-opacity:1;stroke:none;font-family:Sans"
       x="518.76581"
       y="-663.30145"
       id="text3187"
       sodipodi:linespacing="125%"
       transform="scale(1,-1)"
       inkscape:export-filename="/Users/weareu/Downloads/openitem_vehclinsp_logo.png"
       inkscape:export-xdpi="90"
       inkscape:export-ydpi="90"><tspan
         sodipodi:role="line"
         id="tspan3189"
         x="518.76581"
         y="-663.30145"
         style="font-size:17.60000038px;font-style:normal;font-variant:normal;font-weight:normal;font-stretch:normal;fill:#666666;font-family:'.Al Nile PUA';-inkscape-font-specification:'.Al Nile PUA'">FLEET</tspan></text>
<path
       style="fill:#00ff00;fill-opacity:1"
       d=""
       id="path4485"
       inkscape:connector-curvature="0"
       transform="matrix(0.8,0,0,-0.8,0,1024)" /><path
       inkscape:connector-curvature="0"
       id="path4586"
       d="m 480.62386,761.75963 c 0.0123,0.0198 -0.0394,0.0477 -0.1148,0.0618 -0.4431,0.0831 -0.94396,0.50472 -1.17231,0.98677 -0.11962,0.25254 -0.12976,0.30613 -0.12855,0.67978 9.5e-4,0.347 0.0173,0.44422 0.11155,0.67248 0.0606,0.14677 0.11024,0.2893 0.11024,0.31674 0,0.0382 -0.18962,0.0469 -0.81132,0.0374 l -0.81131,-0.0125 5e-5,3.70142 4e-5,3.70143 6.41917,0 6.41918,10e-6 -0.0109,-2.9169 c -0.0125,-3.34898 -0.0457,-3.07154 0.36252,-3.03453 0.24726,0.0224 0.49301,0.14233 0.53941,0.2632 0.0148,0.0386 0.12607,1.06499 0.24723,2.28088 0.12117,1.21589 0.22928,2.24947 0.24024,2.29684 0.0394,0.1702 0.14943,0.17922 2.04776,0.16796 l 1.80369,-0.0107 0.50964,-1.14612 0.50964,-1.14611 0.29287,-0.29484 0.29288,-0.29485 0,-1.18824 0,-1.18823 -0.10403,-0.13639 c -0.15209,-0.19941 -0.12747,-0.41087 0.0627,-0.53861 0.0777,-0.0522 0.17349,-0.0864 0.21295,-0.0761 0.0651,0.017 0.0715,-0.0174 0.0686,-0.37294 -0.002,-0.21543 -0.0124,-0.36888 -0.0237,-0.34099 -0.0158,0.0391 -0.3252,0.0507 -1.35443,0.0507 l -1.33397,0 -0.13824,0.21612 c -0.0864,0.135 -0.18665,0.23616 -0.26717,0.26952 -0.18919,0.0784 -0.22571,0.0179 -0.14776,-0.24458 0.12562,-0.42301 0.0442,-1.06321 -0.17766,-1.39624 -0.50893,-0.76407 -1.48173,-1.04198 -2.29515,-0.65568 -0.70944,0.33691 -1.10819,1.07175 -0.98766,1.82014 0.0462,0.28713 0.0165,0.32849 -0.20746,0.2886 -0.27811,-0.0495 -0.32002,-0.0847 -0.47517,-0.39821 -0.14215,-0.28729 -0.15892,-0.30531 -0.28414,-0.30531 -0.0732,0 -0.13308,0.01 -0.13308,0.0215 0,0.0118 0.0468,0.13261 0.10392,0.26841 0.0572,0.13581 0.0942,0.27216 0.0824,0.30301 -0.0172,0.0447 -0.16108,0.0561 -0.70804,0.0561 -0.73189,0 -0.73575,-9.4e-4 -0.73575,-0.20524 0,-0.0724 -0.0448,-0.0776 -0.76057,-0.0879 l -0.76057,-0.011 0.0138,-0.14197 c 0.008,-0.0781 0.0167,-0.34276 0.0203,-0.58818 0.006,-0.42523 2.6e-4,-0.45918 -0.12441,-0.72263 -0.21739,-0.45898 -0.73605,-0.87838 -1.1742,-0.94948 -0.0971,-0.0158 -0.12434,-0.0336 -0.0873,-0.057 0.0312,-0.0198 -0.11677,-0.0341 -0.3518,-0.0341 -0.27669,0 -0.38629,0.0125 -0.3448,0.0393 0.0481,0.0311 0.0394,0.0394 -0.0417,0.0399 -0.18282,9.4e-4 -0.66432,0.26431 -0.8823,0.48229 -0.1176,0.1176 -0.26539,0.32602 -0.34141,0.48145 -0.12693,0.25955 -0.13403,0.2977 -0.13403,0.72027 0,0.40513 0.0107,0.46926 0.11577,0.69677 0.0637,0.13781 0.10366,0.27015 0.0889,0.29408 -0.0174,0.0281 -0.26282,0.0435 -0.69379,0.0435 -0.7658,0 -0.73073,0.0239 -0.56653,-0.38649 0.24547,-0.6136 0.13901,-1.25947 -0.2903,-1.76102 -0.19373,-0.22632 -0.56567,-0.46735 -0.82295,-0.53329 -0.10999,-0.0282 -0.19069,-0.0663 -0.17933,-0.0847 0.0114,-0.0184 -0.14578,-0.0334 -0.34921,-0.0334 -0.20588,0 -0.35996,0.016 -0.34754,0.0361 z m 0.86715,0.66864 c 0.48727,0.25601 0.76424,0.79924 0.65862,1.29175 -0.0566,0.26365 -0.25161,0.57338 -0.44305,0.70347 -0.1382,0.0939 -0.17614,0.0989 -0.75056,0.0989 l -0.605,0 -0.1738,-0.14242 c -0.25979,-0.21288 -0.40331,-0.53359 -0.39914,-0.89195 0.002,-0.16279 0.0309,-0.34779 0.0679,-0.43361 0.0955,-0.22126 0.38759,-0.5185 0.61838,-0.62924 0.17598,-0.0844 0.24844,-0.0953 0.54761,-0.0824 0.22383,0.01 0.39189,0.0397 0.47904,0.0855 z m 4.47505,0.0361 c 0.72416,0.37487 0.8679,1.25639 0.30039,1.8423 l -0.20892,0.2157 -0.64442,0 -0.64442,0 -0.20892,-0.2157 c -0.56946,-0.58793 -0.41728,-1.48534 0.31383,-1.85068 0.20839,-0.10414 0.29547,-0.12405 0.54244,-0.12405 0.25291,0 0.33011,0.0186 0.55002,0.13243 z m 7.32855,0.51894 c 0.39333,0.19655 0.61244,0.51955 0.64733,0.95427 0.051,0.6359 -0.43784,1.20485 -1.0858,1.2636 -0.67485,0.0612 -1.29617,-0.48509 -1.29726,-1.14059 -9.5e-4,-0.48868 0.21491,-0.84715 0.64327,-1.0689 0.21991,-0.11384 0.29711,-0.13242 0.55002,-0.13242 0.24697,0 0.33405,0.0199 0.54244,0.12404 z m 1.00191,4.7233 0,0.20281 -0.80833,0.011 c -0.8692,0.0118 -0.87323,0.0109 -0.87444,-0.20038 -10e-4,-0.2457 -0.0261,-0.23922 0.86601,-0.22724 l 0.81676,0.0109 0,0.20282 z m 2.4778,0.72444 c 0.021,0.0546 -0.84443,2.27103 -0.9248,2.36853 -0.0583,0.0707 -1.61629,0.0726 -1.68686,0.002 -0.0356,-0.0356 -0.0487,-0.36086 -0.0487,-1.21015 0,-0.6388 0.0122,-1.17364 0.0271,-1.18851 0.0149,-0.0149 0.60869,-0.0271 1.31959,-0.0271 1.05213,0 1.29648,0.0103 1.3137,0.0551 z"
       style="fill:#ffffff" /></g></svg>