<?xml version="1.0" encoding="UTF-8" standalone="no"?>
<!-- Created with Inkscape (http://www.inkscape.org/) -->

<svg
   xmlns:dc="http://purl.org/dc/elements/1.1/"
   xmlns:cc="http://creativecommons.org/ns#"
   xmlns:rdf="http://www.w3.org/1999/02/22-rdf-syntax-ns#"
   xmlns:svg="http://www.w3.org/2000/svg"
   xmlns="http://www.w3.org/2000/svg"
   xmlns:xlink="http://www.w3.org/1999/xlink"
   xmlns:sodipodi="http://sodipodi.sourceforge.net/DTD/sodipodi-0.dtd"
   xmlns:inkscape="http://www.inkscape.org/namespaces/inkscape"
   id="svg2"
   version="1.1"
   inkscape:version="0.48.5 r10040"
   width="1280"
   height="1280"
   xml:space="preserve"
   sodipodi:docname="oi_minelog.ai.svg"
   inkscape:export-filename="/Users/weareu/Downloads/openitem_minelog_logo.png"
   inkscape:export-xdpi="90"
   inkscape:export-ydpi="90"><metadata
     id="metadata8"><rdf:RDF><cc:Work
         rdf:about=""><dc:format>image/svg+xml</dc:format><dc:type
           rdf:resource="http://purl.org/dc/dcmitype/StillImage" /><dc:title></dc:title></cc:Work></rdf:RDF></metadata><defs
     id="defs6"><linearGradient
       x1="0"
       y1="0"
       x2="1"
       y2="0"
       gradientUnits="userSpaceOnUse"
       gradientTransform="matrix(-1.53e-5,233.92529,233.92529,1.53e-5,512.00049,541.40039)"
       spreadMethod="pad"
       id="linearGradient24"><stop
         style="stop-opacity:1;stop-color:#3b4e5a"
         offset="0"
         id="stop26" /><stop
         style="stop-opacity:1;stop-color:#6b9aa5"
         offset="1"
         id="stop28" /></linearGradient><clipPath
       clipPathUnits="userSpaceOnUse"
       id="clipPath36"><path
         d="m 0,1024 1024,0 L 1024,0 0,0 0,1024 z"
         id="path38" /></clipPath><linearGradient
       inkscape:collect="always"
       xlink:href="#linearGradient24"
       id="linearGradient4924"
       gradientUnits="userSpaceOnUse"
       gradientTransform="matrix(-3.349032e-6,51.204136,51.204136,3.349032e-6,473.3281,724.12179)"
       spreadMethod="pad"
       x1="0"
       y1="0"
       x2="1"
       y2="0" /><linearGradient
       inkscape:collect="always"
       xlink:href="#linearGradient24"
       id="linearGradient3650"
       gradientUnits="userSpaceOnUse"
       gradientTransform="matrix(-3.349032e-6,51.204136,51.204136,3.349032e-6,473.3281,724.12179)"
       spreadMethod="pad"
       x1="0"
       y1="0"
       x2="1"
       y2="0" /></defs><sodipodi:namedview
     pagecolor="#ffffff"
     bordercolor="#666666"
     borderopacity="1"
     objecttolerance="10"
     gridtolerance="10"
     guidetolerance="10"
     inkscape:pageopacity="0"
     inkscape:pageshadow="2"
     inkscape:window-width="1055"
     inkscape:window-height="747"
     id="namedview4"
     showgrid="false"
     inkscape:zoom="1.7252566"
     inkscape:cx="602.38043"
     inkscape:cy="931.06088"
     inkscape:window-x="299"
     inkscape:window-y="33"
     inkscape:window-maximized="0"
     inkscape:current-layer="g10" /><g
     id="g10"
     inkscape:groupmode="layer"
     inkscape:label="Logo3"
     transform="matrix(1.25,0,0,-1.25,0,1280)"><path
       style="fill:#00ff00;fill-opacity:1"
       d=""
       id="path4485"
       inkscape:connector-curvature="0"
       transform="matrix(0.8,0,0,-0.8,0,1024)" /><g
       id="g3652"
       inkscape:export-filename="/Users/weareu/Downloads/openitem_minelog_logo.png"
       inkscape:export-xdpi="90"
       inkscape:export-ydpi="90"><path
         inkscape:connector-curvature="0"
         id="path30"
         style="fill:url(#linearGradient3650);stroke:none"
         d="m 452.24157,775.326 c -2.48398,0 -4.5166,-2.0324 -4.5166,-4.51638 l 0,0 0,-42.17154 c 0,-2.48397 2.03262,-4.51637 4.5166,-4.51637 l 0,0 14.26512,0 c -1.78637,3.12904 -5.61608,9.86519 -6.60394,11.76473 l 0,0 c -1.30065,2.51243 0.2839,3.95405 2.16483,3.51561 l 0,0 c 1.45147,-0.33469 2.81407,-2.99596 5.06054,-5.39545 l 0,0 0.0681,14.96142 c -3.81877,1.00887 -6.64247,4.49186 -6.64247,8.62299 l 0,0 c 0,4.91761 4.00111,8.91828 8.91893,8.91828 l 0,0 c 4.91827,0 8.91959,-4.00067 8.91959,-8.91828 l 0,0 c 0,-4.18782 -2.90271,-7.7089 -6.80116,-8.66239 l 0,0 0,-2.1193 0.008,0 0,-5.23259 0.67112,0 0,2.37847 c 0,1.16056 0.94364,2.10376 2.11405,2.10376 l 0,0 0.22283,0 c 1.17063,0 2.10376,-0.9432 2.10376,-2.10376 l 0,0 0,-2.37847 0.82216,0 0,2.37847 c 0,1.16056 0.93488,2.10376 2.10398,2.10376 l 0,0 0.2353,0 c 1.15772,0 2.10267,-0.9432 2.10267,-2.10376 l 0,0 0,-2.37847 0.81209,0 0,2.37847 c 0,1.16056 0.93597,2.10376 2.10573,2.10376 l 0,0 0.22195,0 c 1.16954,0 2.11405,-0.9432 2.11405,-2.10376 l 0,0 0,-0.51833 0,-3.93194 c 0,-0.0101 -0.0103,-0.0101 -0.0103,-0.021 l 0,0 0,-12.93536 c 0,0 0,-1.04805 -0.40078,-2.42684 l 0,0 7.59683,0 c 2.48375,0 4.51637,2.0324 4.51637,4.51637 l 0,0 0,42.17154 c 0,2.48398 -2.03262,4.51638 -4.51637,4.51638 l 0,0 -42.17307,0 z m 9.21509,-17.73499 c 0,-3.63052 2.4275,-6.7031 5.74392,-7.68526 l 0,0 0.0208,4.61597 c -0.94408,0.69345 -1.5596,1.80782 -1.5596,3.06929 l 0,0 c 0,2.10464 1.70626,3.81089 3.81089,3.81089 l 0,0 c 2.10377,0 3.80915,-1.70625 3.80915,-3.81089 l 0,0 c 0,-1.32035 -0.67112,-2.48288 -1.69072,-3.16669 l 0,0 0,-4.56257 c 3.39522,0.9316 5.89802,4.0427 5.89802,7.72926 l 0,0 c 0,4.41963 -3.59638,8.01535 -8.01645,8.01535 l 0,0 c -4.42006,0 -8.016,-3.59572 -8.016,-8.01535" /><g
         transform="matrix(0.21889098,0,0,0.21889098,361.25581,605.61413)"
         id="g32"><g
           id="g40"
           transform="translate(619.3887,486.915)"><path
             d="m 0,0 c 0,-6.158 -4.986,-11.148 -11.152,-11.148 -6.159,0 -11.149,4.99 -11.149,11.148 0,6.162 4.99,11.152 11.149,11.152 C -4.986,11.152 0,6.162 0,0"
             style="fill:#6b9aa5;fill-opacity:1;fill-rule:nonzero;stroke:none"
             id="path42"
             inkscape:connector-curvature="0" /></g><g
           id="g44"
           transform="translate(79.8091,424.876)"><path
             d="m 0,0 c 0,-33.172 24.975,-59.1 57.955,-59.1 33.363,0 57.766,26.881 57.766,59.1 0,32.219 -24.403,59.1 -57.957,59.1 C 24.592,59.1 0,32.791 0,0.19 L 0,0 z m -15.823,-0.382 c 0,43.467 33.743,73.399 73.587,73.399 41.371,0 73.59,-31.648 73.59,-73.017 0,-41.37 -32.03,-73.017 -73.59,-73.017 -41.75,0 -73.587,32.219 -73.587,72.445 l 0,0.19 z"
             style="fill:#6b9aa5;fill-opacity:1;fill-rule:nonzero;stroke:none"
             id="path46"
             inkscape:connector-curvature="0" /></g><g
           id="g48"
           transform="translate(327.2661,405.8115)"><path
             d="m 0,0 c 0,19.255 -13.535,40.988 -41.178,40.988 -11.439,0 -21.543,-4.575 -28.978,-12.01 -7.053,-7.435 -11.438,-17.73 -11.438,-29.359 0,-11.438 4.385,-21.733 11.819,-29.169 7.244,-7.244 17.539,-11.629 28.978,-11.629 C -17.729,-41.179 0,-23.64 0,-0.19 L 0,0 z m -94.75,51.093 13.346,0 0,-21.353 c 8.388,14.87 23.258,24.212 42.894,24.212 34.508,0 52.617,-28.024 52.617,-54.524 0,-28.596 -20.779,-53.761 -52.617,-53.761 -22.685,0 -37.365,13.154 -42.131,23.83 l 0,-20.971 0,-38.891 -14.109,0 0,141.458 z"
             style="fill:#6b9aa5;fill-opacity:1;fill-rule:nonzero;stroke:none"
             id="path50"
             inkscape:connector-curvature="0" /></g><g
           id="g52"
           transform="translate(448.7075,412.8652)"><path
             d="M 0,0 C -0.953,17.921 -18.301,35.46 -39.463,34.888 -61.578,34.888 -77.973,18.684 -79.307,0 L 0,0 z m -79.498,-11.248 c 0.764,-25.736 22.687,-38.129 40.035,-37.938 15.824,0 28.596,7.817 35.27,21.162 l 14.679,0 C 5.719,-39.082 -1.525,-47.47 -10.295,-52.999 c -8.578,-5.528 -18.682,-8.388 -29.168,-8.388 -35.65,0 -54.142,28.406 -54.142,53.952 0,30.122 23.257,54.333 53.951,54.333 14.49,0 27.834,-5.147 37.558,-14.489 C 9.723,20.971 15.443,5.147 13.918,-11.248 l -93.416,0 z"
             style="fill:#6b9aa5;fill-opacity:1;fill-rule:nonzero;stroke:none"
             id="path54"
             inkscape:connector-curvature="0" /></g><g
           id="g56"
           transform="translate(482.6431,456.9043)"><path
             d="m 0,0 13.346,0 c 0,-5.72 0,-11.438 -0.192,-18.302 5.91,13.345 19.826,21.542 38.129,21.161 31.838,-0.38 43.086,-22.114 43.086,-47.088 l 0,-58.337 -13.918,0 0,55.477 c 0,22.114 -9.914,37.175 -32.981,36.794 -21.161,-0.19 -33.363,-12.964 -33.363,-34.316 l 0,-57.955 -14.107,0 L 0,0 z"
             style="fill:#6b9aa5;fill-opacity:1;fill-rule:nonzero;stroke:none"
             id="path58"
             inkscape:connector-curvature="0" /></g><path
           d="m 605.416,455.379 5.338,0 0,-101.041 -5.338,0 0,101.041 z"
           style="fill:#3b4e5a;fill-opacity:1;fill-rule:nonzero;stroke:none"
           id="path60"
           inkscape:connector-curvature="0" /><g
           id="g62"
           transform="translate(649.2637,450.4219)"><path
             d="m 0,0 -22.305,0 0,4.957 22.305,0 0,40.035 5.338,0 0,-40.035 25.928,0 0,-4.957 -25.928,0 0,-96.084 -5.338,0 L 0,0 z"
             style="fill:#3b4e5a;fill-opacity:1;fill-rule:nonzero;stroke:none"
             id="path64"
             inkscape:connector-curvature="0" /></g><g
           id="g66"
           transform="translate(782.1426,409.2432)"><path
             d="M 0,0 C -1.143,24.402 -23.83,44.61 -47.469,43.657 -72.443,43.657 -93.605,25.546 -95.131,0 L 0,0 z m -95.32,-4.957 c 0.381,-32.981 28.023,-47.66 47.851,-47.47 18.682,0 35.078,9.532 43.084,26.69 l 5.91,0 c -4.574,-10.676 -11.818,-18.683 -20.398,-24.021 -8.578,-5.147 -18.492,-7.626 -28.787,-7.626 -38.129,0 -53.19,30.313 -53.19,52.809 0,30.312 23.258,53.189 53.381,53.189 13.535,0 26.498,-4.766 36.223,-13.536 C -0.189,25.165 6.293,9.913 5.34,-4.957 l -100.66,0 z"
             style="fill:#3b4e5a;fill-opacity:1;fill-rule:nonzero;stroke:none"
             id="path68"
             inkscape:connector-curvature="0" /></g><g
           id="g70"
           transform="translate(808.2617,455.3789)"><path
             d="m 0,0 5.338,0 0,-18.874 c 9.723,19.446 27.453,21.353 33.935,21.353 12.202,0 22.877,-4.195 29.741,-12.392 2.859,-3.051 6.863,-11.82 6.863,-11.82 1.143,2.859 3.051,7.244 7.244,11.82 7.055,7.816 17.92,12.392 29.359,12.392 12.202,0 21.352,-3.814 27.643,-10.105 8.389,-8.197 11.629,-21.352 11.629,-36.794 l 0,-56.621 -5.338,0 0,56.621 c 0,13.917 -2.668,25.736 -10.295,33.362 -5.338,5.53 -13.154,8.579 -23.639,8.579 -8.96,0 -19.828,-3.431 -26.119,-11.628 -6.48,-8.389 -7.816,-14.49 -7.816,-30.313 l 0,-56.621 -5.338,0 0,56.621 c 0.381,15.823 -2.096,23.067 -7.244,29.931 -5.91,7.626 -14.869,11.63 -26.69,12.01 C 29.359,-2.097 19.637,-7.054 14.68,-13.536 9.152,-19.827 5.338,-28.787 5.338,-43.467 l 0,-57.574 -5.338,0 L 0,0 z"
             style="fill:#3b4e5a;fill-opacity:1;fill-rule:nonzero;stroke:none"
             id="path72"
             inkscape:connector-curvature="0" /></g></g><text
         inkscape:export-ydpi="90"
         inkscape:export-xdpi="90"
         inkscape:export-filename="/Users/weareu/Downloads/openitem_vehclinsp_logo.png"
         transform="scale(1,-1)"
         sodipodi:linespacing="125%"
         id="text3187"
         y="-668.63477"
         x="447.83246"
         style="font-size:14.39999962px;font-style:normal;font-weight:normal;line-height:125%;letter-spacing:0px;word-spacing:0px;fill:#666666;fill-opacity:1;stroke:none;font-family:Sans"
         xml:space="preserve"><tspan
           style="font-size:14.39999962px;font-style:normal;font-variant:normal;font-weight:normal;font-stretch:normal;fill:#666666;font-family:'.Al Nile PUA';-inkscape-font-specification:'.Al Nile PUA'"
           y="-668.63477"
           x="447.83246"
           id="tspan3189"
           sodipodi:role="line">MINE LOGISTICS</tspan></text>
<g
         style="fill:#ffffff"
         transform="matrix(0.69298859,0,0,0.72389016,151.22056,183.93151)"
         id="g5117"><path
           style="fill:#ffffff;fill-opacity:1"
           d="m 611.78777,276.23492 c -3.83279,-5.44656 -9.12933,-10.74357 -13.9436,-13.94485 -0.77366,-0.51444 -1.40665,-1.02596 -1.40665,-1.13669 0,-0.33392 2.83303,0.0402 4.48775,0.5926 0.83396,0.27841 2.13641,0.86838 2.89434,1.31103 l 1.37805,0.80482 0.0913,1.10073 c 0.15462,1.86448 1.58083,3.21491 3.39532,3.21491 0.7631,0 0.81619,0.0484 1.74087,1.5882 1.07956,1.79766 1.59,2.93049 2.05454,4.55964 0.3353,1.17594 0.67319,3.48378 0.51005,3.48378 -0.0518,0 -0.59269,-0.70838 -1.20195,-1.57417 z"
           id="path5081"
           inkscape:connector-curvature="0"
           transform="matrix(0.8,0,0,-0.8,0,1024)" /><path
           style="fill:#ffffff;fill-opacity:1"
           d="m 607.53274,265.85179 c -0.66657,-0.70953 -0.54609,-1.64627 0.22313,-1.73488 0.76831,-0.0885 1.64262,0.78581 1.55411,1.55411 -0.091,0.78958 -1.1081,0.89304 -1.77724,0.18077 z"
           id="path5083"
           inkscape:connector-curvature="0"
           transform="matrix(0.8,0,0,-0.8,0,1024)" /><path
           style="fill:#ffffff;fill-opacity:1"
           d="m 591.85859,281.94101 c -0.29935,-0.31246 -0.54427,-0.67113 -0.54427,-0.79706 0,-0.12592 2.64282,-2.91489 5.87295,-6.1977 l 5.87295,-5.96876 0.79069,0.77209 0.7907,0.77209 -2.71878,2.73575 c -1.49533,1.50467 -4.24905,4.20184 -6.11937,5.99373 l -3.40059,3.25796 -0.54428,-0.5681 z"
           id="path5085"
           inkscape:connector-curvature="0"
           transform="matrix(0.8,0,0,-0.8,0,1024)" /><path
           style="fill:#ffffff;fill-opacity:1"
           d="m 605.82955,277.41822 c -0.75167,-0.0668 -1.42813,-0.18312 -1.50324,-0.2585 -0.15162,-0.15218 0.45434,-1.54424 0.75239,-1.72844 0.16213,-0.1002 2.26079,1.02286 3.5464,1.89779 0.36454,0.24809 0.31425,0.27193 -0.51232,0.24285 -0.5041,-0.0177 -1.53155,-0.0869 -2.28323,-0.1537 z"
           id="path5087"
           inkscape:connector-curvature="0"
           transform="matrix(0.8,0,0,-0.8,0,1024)" /><path
           style="fill:#ffffff;fill-opacity:1"
           d="m 615.28863,274.12039 c -0.0182,-0.0564 -0.14494,-1.0477 -0.2816,-2.20298 l -0.24848,-2.10051 0.98732,0 c 0.97431,0 0.98549,0.007 0.84772,0.56355 -0.20049,0.80932 -1.26557,3.86179 -1.30496,3.73994 z"
           id="path5089"
           inkscape:connector-curvature="0"
           transform="matrix(0.8,0,0,-0.8,0,1024)" /><path
           style="fill:#ffffff;fill-opacity:1"
           d="m 592.54857,294.56195 c 0.003,-0.0282 0.49614,-1.57282 1.09683,-3.43254 0.93699,-2.90095 1.1474,-3.37283 1.48104,-3.32161 0.2139,0.0328 1.98411,0.43567 3.9338,0.8952 1.9497,0.45953 3.59445,0.78596 3.655,0.72541 0.0606,-0.0605 0.18685,-1.28248 0.28066,-2.71539 0.11182,-1.70813 0.26457,-2.69472 0.44356,-2.86495 0.15015,-0.14281 1.82394,-1.06407 3.71953,-2.04724 l 3.44652,-1.7876 -0.11976,0.69105 c -0.36679,2.11638 -0.68463,5.01144 -0.56211,5.12001 0.0779,0.069 1.22711,0.61124 2.55385,1.20495 1.32674,0.59372 2.4559,1.15009 2.50924,1.2364 0.0533,0.0863 -0.13753,0.77993 -0.42414,1.5414 -0.28662,0.76147 -0.44749,1.44646 -0.3575,1.5222 0.09,0.0757 1.45467,0.53503 3.03262,1.02063 1.57794,0.4856 2.98426,0.92671 3.12515,0.98025 0.48282,0.18348 0.25576,-0.54807 -0.56355,-1.81571 -0.45084,-0.69754 -0.81971,-1.35264 -0.81971,-1.45578 0,-0.10313 0.60108,-1.04965 1.33574,-2.10337 l 1.33575,-1.91585 -0.56727,-0.39362 c -0.31199,-0.21648 -1.47437,-0.88009 -2.58305,-1.47467 -1.49162,-0.79995 -1.99302,-1.16818 -1.92824,-1.4161 0.0481,-0.18428 0.35008,-1.41163 0.67095,-2.72745 l 0.58342,-2.39239 1.69037,-0.25149 c 0.9297,-0.13832 1.80482,-0.32222 1.94472,-0.40868 0.19481,-0.12041 0.0238,-1.17214 -0.73055,-4.49278 -0.82574,-3.63496 -0.94491,-4.41028 -0.73749,-4.79786 0.13608,-0.25426 1.15772,-1.4231 2.27032,-2.59742 l 2.02292,-2.13514 0.0103,15.83069 0.0103,15.83069 -15.88192,0 c -8.73505,0 -15.87981,-0.0231 -15.87723,-0.0512 z"
           id="path5091"
           inkscape:connector-curvature="0"
           transform="matrix(0.8,0,0,-0.8,0,1024)" /></g></g></g></svg>