<?xml version="1.0" encoding="UTF-8" standalone="no"?>
<!-- Created with Inkscape (http://www.inkscape.org/) -->

<svg
   xmlns:dc="http://purl.org/dc/elements/1.1/"
   xmlns:cc="http://creativecommons.org/ns#"
   xmlns:rdf="http://www.w3.org/1999/02/22-rdf-syntax-ns#"
   xmlns:svg="http://www.w3.org/2000/svg"
   xmlns="http://www.w3.org/2000/svg"
   xmlns:xlink="http://www.w3.org/1999/xlink"
   xmlns:sodipodi="http://sodipodi.sourceforge.net/DTD/sodipodi-0.dtd"
   xmlns:inkscape="http://www.inkscape.org/namespaces/inkscape"
   id="svg2"
   version="1.1"
   inkscape:version="0.48.5 r10040"
   width="1280"
   height="1280"
   xml:space="preserve"
   sodipodi:docname="oi_fleet.ai.svg"
   inkscape:export-filename="/Users/weareu/Downloads/openitem_roadassist_logo.png"
   inkscape:export-xdpi="90"
   inkscape:export-ydpi="90"><metadata
     id="metadata8"><rdf:RDF><cc:Work
         rdf:about=""><dc:format>image/svg+xml</dc:format><dc:type
           rdf:resource="http://purl.org/dc/dcmitype/StillImage" /><dc:title></dc:title></cc:Work></rdf:RDF></metadata><defs
     id="defs6"><linearGradient
       x1="0"
       y1="0"
       x2="1"
       y2="0"
       gradientUnits="userSpaceOnUse"
       gradientTransform="matrix(-1.53e-5,233.92529,233.92529,1.53e-5,512.00049,541.40039)"
       spreadMethod="pad"
       id="linearGradient24"><stop
         style="stop-opacity:1;stop-color:#3b4e5a"
         offset="0"
         id="stop26" /><stop
         style="stop-opacity:1;stop-color:#6b9aa5"
         offset="1"
         id="stop28" /></linearGradient><clipPath
       clipPathUnits="userSpaceOnUse"
       id="clipPath36"><path
         d="m 0,1024 1024,0 L 1024,0 0,0 0,1024 z"
         id="path38" /></clipPath><linearGradient
       inkscape:collect="always"
       xlink:href="#linearGradient24"
       id="linearGradient4677"
       gradientUnits="userSpaceOnUse"
       gradientTransform="matrix(-3.349032e-6,51.204136,51.204136,3.349032e-6,473.3281,724.12179)"
       spreadMethod="pad"
       x1="0"
       y1="0"
       x2="1"
       y2="0" /></defs><sodipodi:namedview
     pagecolor="#ffffff"
     bordercolor="#666666"
     borderopacity="1"
     objecttolerance="10"
     gridtolerance="10"
     guidetolerance="10"
     inkscape:pageopacity="0"
     inkscape:pageshadow="2"
     inkscape:window-width="1055"
     inkscape:window-height="747"
     id="namedview4"
     showgrid="false"
     inkscape:zoom="1.5"
     inkscape:cx="629.04709"
     inkscape:cy="925.90564"
     inkscape:window-x="299"
     inkscape:window-y="33"
     inkscape:window-maximized="0"
     inkscape:current-layer="g10" /><g
     id="g10"
     inkscape:groupmode="layer"
     inkscape:label="Logo3"
     transform="matrix(1.25,0,0,-1.25,0,1280)"><path
       style="fill:#00ff00;fill-opacity:1"
       d=""
       id="path4485"
       inkscape:connector-curvature="0"
       transform="matrix(0.8,0,0,-0.8,0,1024)" /><g
       id="g4826"
       inkscape:export-filename="/Users/weareu/Downloads/openitem_roadassist_logo.png"
       inkscape:export-xdpi="90"
       inkscape:export-ydpi="90"><path
         inkscape:connector-curvature="0"
         id="path30"
         style="fill:url(#linearGradient4677);stroke:none"
         d="m 452.24157,775.326 c -2.48398,0 -4.5166,-2.0324 -4.5166,-4.51638 l 0,0 0,-42.17154 c 0,-2.48397 2.03262,-4.51637 4.5166,-4.51637 l 0,0 14.26512,0 c -1.78637,3.12904 -5.61608,9.86519 -6.60394,11.76473 l 0,0 c -1.30065,2.51243 0.2839,3.95405 2.16483,3.51561 l 0,0 c 1.45147,-0.33469 2.81407,-2.99596 5.06054,-5.39545 l 0,0 0.0681,14.96142 c -3.81877,1.00887 -6.64247,4.49186 -6.64247,8.62299 l 0,0 c 0,4.91761 4.00111,8.91828 8.91893,8.91828 l 0,0 c 4.91827,0 8.91959,-4.00067 8.91959,-8.91828 l 0,0 c 0,-4.18782 -2.90271,-7.7089 -6.80116,-8.66239 l 0,0 0,-2.1193 0.008,0 0,-5.23259 0.67112,0 0,2.37847 c 0,1.16056 0.94364,2.10376 2.11405,2.10376 l 0,0 0.22283,0 c 1.17063,0 2.10376,-0.9432 2.10376,-2.10376 l 0,0 0,-2.37847 0.82216,0 0,2.37847 c 0,1.16056 0.93488,2.10376 2.10398,2.10376 l 0,0 0.2353,0 c 1.15772,0 2.10267,-0.9432 2.10267,-2.10376 l 0,0 0,-2.37847 0.81209,0 0,2.37847 c 0,1.16056 0.93597,2.10376 2.10573,2.10376 l 0,0 0.22195,0 c 1.16954,0 2.11405,-0.9432 2.11405,-2.10376 l 0,0 0,-0.51833 0,-3.93194 c 0,-0.0101 -0.0103,-0.0101 -0.0103,-0.021 l 0,0 0,-12.93536 c 0,0 0,-1.04805 -0.40078,-2.42684 l 0,0 7.59683,0 c 2.48375,0 4.51637,2.0324 4.51637,4.51637 l 0,0 0,42.17154 c 0,2.48398 -2.03262,4.51638 -4.51637,4.51638 l 0,0 -42.17307,0 z m 9.21509,-17.73499 c 0,-3.63052 2.4275,-6.7031 5.74392,-7.68526 l 0,0 0.0208,4.61597 c -0.94408,0.69345 -1.5596,1.80782 -1.5596,3.06929 l 0,0 c 0,2.10464 1.70626,3.81089 3.81089,3.81089 l 0,0 c 2.10377,0 3.80915,-1.70625 3.80915,-3.81089 l 0,0 c 0,-1.32035 -0.67112,-2.48288 -1.69072,-3.16669 l 0,0 0,-4.56257 c 3.39522,0.9316 5.89802,4.0427 5.89802,7.72926 l 0,0 c 0,4.41963 -3.59638,8.01535 -8.01645,8.01535 l 0,0 c -4.42006,0 -8.016,-3.59572 -8.016,-8.01535" /><g
         transform="matrix(0.21889098,0,0,0.21889098,361.25581,605.61413)"
         id="g32"><g
           id="g40"
           transform="translate(619.3887,486.915)"><path
             d="m 0,0 c 0,-6.158 -4.986,-11.148 -11.152,-11.148 -6.159,0 -11.149,4.99 -11.149,11.148 0,6.162 4.99,11.152 11.149,11.152 C -4.986,11.152 0,6.162 0,0"
             style="fill:#6b9aa5;fill-opacity:1;fill-rule:nonzero;stroke:none"
             id="path42"
             inkscape:connector-curvature="0" /></g><g
           id="g44"
           transform="translate(79.8091,424.876)"><path
             d="m 0,0 c 0,-33.172 24.975,-59.1 57.955,-59.1 33.363,0 57.766,26.881 57.766,59.1 0,32.219 -24.403,59.1 -57.957,59.1 C 24.592,59.1 0,32.791 0,0.19 L 0,0 z m -15.823,-0.382 c 0,43.467 33.743,73.399 73.587,73.399 41.371,0 73.59,-31.648 73.59,-73.017 0,-41.37 -32.03,-73.017 -73.59,-73.017 -41.75,0 -73.587,32.219 -73.587,72.445 l 0,0.19 z"
             style="fill:#6b9aa5;fill-opacity:1;fill-rule:nonzero;stroke:none"
             id="path46"
             inkscape:connector-curvature="0" /></g><g
           id="g48"
           transform="translate(327.2661,405.8115)"><path
             d="m 0,0 c 0,19.255 -13.535,40.988 -41.178,40.988 -11.439,0 -21.543,-4.575 -28.978,-12.01 -7.053,-7.435 -11.438,-17.73 -11.438,-29.359 0,-11.438 4.385,-21.733 11.819,-29.169 7.244,-7.244 17.539,-11.629 28.978,-11.629 C -17.729,-41.179 0,-23.64 0,-0.19 L 0,0 z m -94.75,51.093 13.346,0 0,-21.353 c 8.388,14.87 23.258,24.212 42.894,24.212 34.508,0 52.617,-28.024 52.617,-54.524 0,-28.596 -20.779,-53.761 -52.617,-53.761 -22.685,0 -37.365,13.154 -42.131,23.83 l 0,-20.971 0,-38.891 -14.109,0 0,141.458 z"
             style="fill:#6b9aa5;fill-opacity:1;fill-rule:nonzero;stroke:none"
             id="path50"
             inkscape:connector-curvature="0" /></g><g
           id="g52"
           transform="translate(448.7075,412.8652)"><path
             d="M 0,0 C -0.953,17.921 -18.301,35.46 -39.463,34.888 -61.578,34.888 -77.973,18.684 -79.307,0 L 0,0 z m -79.498,-11.248 c 0.764,-25.736 22.687,-38.129 40.035,-37.938 15.824,0 28.596,7.817 35.27,21.162 l 14.679,0 C 5.719,-39.082 -1.525,-47.47 -10.295,-52.999 c -8.578,-5.528 -18.682,-8.388 -29.168,-8.388 -35.65,0 -54.142,28.406 -54.142,53.952 0,30.122 23.257,54.333 53.951,54.333 14.49,0 27.834,-5.147 37.558,-14.489 C 9.723,20.971 15.443,5.147 13.918,-11.248 l -93.416,0 z"
             style="fill:#6b9aa5;fill-opacity:1;fill-rule:nonzero;stroke:none"
             id="path54"
             inkscape:connector-curvature="0" /></g><g
           id="g56"
           transform="translate(482.6431,456.9043)"><path
             d="m 0,0 13.346,0 c 0,-5.72 0,-11.438 -0.192,-18.302 5.91,13.345 19.826,21.542 38.129,21.161 31.838,-0.38 43.086,-22.114 43.086,-47.088 l 0,-58.337 -13.918,0 0,55.477 c 0,22.114 -9.914,37.175 -32.981,36.794 -21.161,-0.19 -33.363,-12.964 -33.363,-34.316 l 0,-57.955 -14.107,0 L 0,0 z"
             style="fill:#6b9aa5;fill-opacity:1;fill-rule:nonzero;stroke:none"
             id="path58"
             inkscape:connector-curvature="0" /></g><path
           d="m 605.416,455.379 5.338,0 0,-101.041 -5.338,0 0,101.041 z"
           style="fill:#3b4e5a;fill-opacity:1;fill-rule:nonzero;stroke:none"
           id="path60"
           inkscape:connector-curvature="0" /><g
           id="g62"
           transform="translate(649.2637,450.4219)"><path
             d="m 0,0 -22.305,0 0,4.957 22.305,0 0,40.035 5.338,0 0,-40.035 25.928,0 0,-4.957 -25.928,0 0,-96.084 -5.338,0 L 0,0 z"
             style="fill:#3b4e5a;fill-opacity:1;fill-rule:nonzero;stroke:none"
             id="path64"
             inkscape:connector-curvature="0" /></g><g
           id="g66"
           transform="translate(782.1426,409.2432)"><path
             d="M 0,0 C -1.143,24.402 -23.83,44.61 -47.469,43.657 -72.443,43.657 -93.605,25.546 -95.131,0 L 0,0 z m -95.32,-4.957 c 0.381,-32.981 28.023,-47.66 47.851,-47.47 18.682,0 35.078,9.532 43.084,26.69 l 5.91,0 c -4.574,-10.676 -11.818,-18.683 -20.398,-24.021 -8.578,-5.147 -18.492,-7.626 -28.787,-7.626 -38.129,0 -53.19,30.313 -53.19,52.809 0,30.312 23.258,53.189 53.381,53.189 13.535,0 26.498,-4.766 36.223,-13.536 C -0.189,25.165 6.293,9.913 5.34,-4.957 l -100.66,0 z"
             style="fill:#3b4e5a;fill-opacity:1;fill-rule:nonzero;stroke:none"
             id="path68"
             inkscape:connector-curvature="0" /></g><g
           id="g70"
           transform="translate(808.2617,455.3789)"><path
             d="m 0,0 5.338,0 0,-18.874 c 9.723,19.446 27.453,21.353 33.935,21.353 12.202,0 22.877,-4.195 29.741,-12.392 2.859,-3.051 6.863,-11.82 6.863,-11.82 1.143,2.859 3.051,7.244 7.244,11.82 7.055,7.816 17.92,12.392 29.359,12.392 12.202,0 21.352,-3.814 27.643,-10.105 8.389,-8.197 11.629,-21.352 11.629,-36.794 l 0,-56.621 -5.338,0 0,56.621 c 0,13.917 -2.668,25.736 -10.295,33.362 -5.338,5.53 -13.154,8.579 -23.639,8.579 -8.96,0 -19.828,-3.431 -26.119,-11.628 -6.48,-8.389 -7.816,-14.49 -7.816,-30.313 l 0,-56.621 -5.338,0 0,56.621 c 0.381,15.823 -2.096,23.067 -7.244,29.931 -5.91,7.626 -14.869,11.63 -26.69,12.01 C 29.359,-2.097 19.637,-7.054 14.68,-13.536 9.152,-19.827 5.338,-28.787 5.338,-43.467 l 0,-57.574 -5.338,0 L 0,0 z"
             style="fill:#3b4e5a;fill-opacity:1;fill-rule:nonzero;stroke:none"
             id="path72"
             inkscape:connector-curvature="0" /></g></g><text
         inkscape:export-ydpi="90"
         inkscape:export-xdpi="90"
         inkscape:export-filename="/Users/weareu/Downloads/openitem_vehclinsp_logo.png"
         transform="scale(1,-1)"
         sodipodi:linespacing="125%"
         id="text3187"
         y="-668.63477"
         x="434.49911"
         style="font-size:14.39999962px;font-style:normal;font-weight:normal;line-height:125%;letter-spacing:0px;word-spacing:0px;fill:#666666;fill-opacity:1;stroke:none;font-family:Sans"
         xml:space="preserve"><tspan
           style="font-size:14.39999962px;font-style:normal;font-variant:normal;font-weight:normal;font-stretch:normal;fill:#666666;font-family:'.Al Nile PUA';-inkscape-font-specification:'.Al Nile PUA'"
           y="-668.63477"
           x="434.49911"
           id="tspan3189"
           sodipodi:role="line">ROADSIDE ASSIST</tspan></text>
<g
         style="fill:#ffffff"
         transform="matrix(0.27850353,0,0,0.27850353,348.72133,538.00515)"
         id="g4810"><path
           inkscape:connector-curvature="0"
           id="path4824"
           d="m 480.15102,794.78675 c -0.20968,0.0573 -0.58801,0.11089 -0.84073,0.11916 -1.46329,0.0479 -3.97738,2.13694 -4.92073,4.08884 -0.52833,1.09317 -0.90515,2.39475 -0.90853,3.13818 l -0.002,0.41302 -2.9675,0 c -3.2159,0 -3.58656,0.0578 -4.22583,0.65931 -0.636,0.59841 -0.7093,1.19752 -0.65004,5.31361 0.0287,1.99203 0.0962,3.80908 0.15011,4.03789 0.12404,0.52664 0.81643,1.10674 1.53779,1.28838 0.37164,0.0936 3.63388,0.13831 10.08779,0.13831 l 9.53851,0 -7.6e-4,2.63698 -7.6e-4,2.63698 -5.05081,5.49338 -5.05079,5.49337 -0.0686,-5.30275 c -0.0821,-6.34364 -0.0593,-6.21949 -1.38187,-7.54202 -0.7063,-0.7063 -0.98356,-0.89258 -1.60775,-1.08021 -1.01008,-0.30361 -2.10063,-0.27768 -3.01147,0.0716 -2.23245,0.85609 -3.52564,3.96358 -2.17679,5.23075 0.2678,0.25159 0.45705,0.30463 1.08694,0.30463 0.70019,0 0.79295,-0.0339 1.13207,-0.41342 0.21517,-0.24081 0.4036,-0.62732 0.45132,-0.92576 0.11854,-0.74131 0.47421,-1.13895 1.01873,-1.13895 0.60294,0 0.88265,0.17373 1.04927,0.6517 0.0957,0.27442 0.14045,2.53583 0.14045,7.0916 l 0,6.68871 -1.40333,1.52098 c -0.77183,0.83654 -1.49423,1.70047 -1.60534,1.91986 -0.29499,0.58249 -0.13277,1.17857 0.55558,2.04152 1.31629,1.65016 1.72892,1.8931 2.5914,1.52569 0.64263,-0.27375 25.88756,-17.69883 26.51302,-18.30037 0.89449,-0.86028 0.95978,-1.18865 1.02221,-5.14125 l 0.0547,-3.46302 1.00239,0 1.00238,0 0.034,10.00781 c 0.0323,9.48847 0.0464,10.03268 0.27209,10.48688 0.13093,0.26349 0.41687,0.60662 0.63542,0.7625 l 0.39735,0.28344 7.18021,0.0374 c 3.94912,0.0206 7.36439,0.004 7.58949,-0.0368 0.2251,-0.0408 0.58969,-0.22601 0.8102,-0.41155 0.47971,-0.40366 10.19242,-14.92672 10.34895,-15.47442 0.0599,-0.20969 0.12736,-3.77333 0.14985,-7.9192 0.0445,-8.20999 0.0351,-8.33706 -0.65787,-8.8558 -0.29967,-0.22433 -0.5751,-0.2589 -2.34584,-0.29444 l -2.00631,-0.0403 -0.21638,-1.10126 c -0.40671,-2.06995 -1.13905,-3.39484 -2.66609,-4.82332 -1.08126,-1.01146 -2.05946,-1.55797 -3.04148,-1.69922 -2.21642,-0.31882 -4.48416,-0.25597 -5.89031,0.16324 -1.12102,0.3342 -3.08807,2.04644 -3.91518,3.40802 -0.51494,0.84768 -1.0284,2.33882 -1.14969,3.3388 l -0.0886,0.73073 -9.1989,0 -9.1989,0 -0.002,-0.41302 c -0.003,-0.74343 -0.3802,-2.04501 -0.90853,-3.13818 -0.95122,-1.96816 -3.14626,-3.79646 -4.91249,-4.09172 -0.99563,-0.16644 -3.81601,-0.24306 -4.28023,-0.11628 z m 3.30683,4.62756 c 1.36809,0.63708 2.09173,1.80842 2.09173,3.3858 0,2.20581 -1.47713,3.68294 -3.68293,3.68294 -2.2058,0 -3.68293,-1.47713 -3.68293,-3.68294 0,-2.2058 1.47713,-3.68293 3.68293,-3.68293 0.73241,0 1.10089,0.0688 1.5912,0.29713 z m 35.24908,0.0111 c 0.90949,0.46087 1.31742,0.85574 1.73339,1.67789 0.31549,0.62357 0.37404,0.88915 0.37404,1.69686 0,0.80771 -0.0585,1.07329 -0.37404,1.69686 -0.41597,0.82215 -0.8239,1.21702 -1.73339,1.67789 -0.8934,0.45272 -2.36288,0.4447 -3.23957,-0.0177 -0.88312,-0.46578 -1.30033,-0.8951 -1.71865,-1.76852 -0.50934,-1.06349 -0.50934,-2.11359 0,-3.17708 0.41832,-0.87342 0.83553,-1.30275 1.71865,-1.76852 0.87669,-0.46239 2.34617,-0.47041 3.23957,-0.0177 z m 6.28523,20.26273 c -0.12918,0.20193 -1.66456,2.51653 -3.41196,5.14355 l -3.17708,4.77641 -3.20886,0.003 -3.20885,0.003 0,-5.14687 0,-5.14688 6.62081,0 6.62082,0 -0.23488,0.36715 z"
           style="fill:#ffffff" /><path
           inkscape:connector-curvature="0"
           id="path4822"
           d="m 479.66887,794.86825 c -2.11331,0.42051 -4.18269,2.11065 -5.21308,4.2577 -0.5889,1.22712 -0.84956,2.16137 -0.84956,3.045 l 0,0.50208 -3.11762,0 c -3.39421,0 -3.65722,0.0441 -4.26769,0.71508 -0.5761,0.63322 -0.62107,0.98658 -0.61903,4.86378 0.002,4.04697 0.057,4.39959 0.77781,5.00137 0.23279,0.19434 0.62438,0.40922 0.8702,0.47752 0.27291,0.0758 4.2204,0.12445 10.13706,0.12488 l 9.69011,7.1e-4 -6.4e-4,2.70052 -6.3e-4,2.70052 -5.08362,5.52813 c -2.79596,3.04047 -5.14036,5.54718 -5.20976,5.57048 -0.0821,0.0276 -0.12619,-1.73392 -0.12619,-5.04531 0,-5.36545 -0.0564,-6.04617 -0.57551,-6.95019 -0.33185,-0.57788 -1.2403,-1.46292 -1.79277,-1.74658 -0.57964,-0.29761 -1.80119,-0.50226 -2.44427,-0.40949 -1.94282,0.28027 -3.52916,1.93131 -3.66356,3.81298 -0.0664,0.93018 0.23119,1.50427 0.9316,1.79692 0.38729,0.16182 0.53389,0.16546 0.97079,0.0241 0.61169,-0.19788 0.95353,-0.61819 1.12553,-1.38388 0.17037,-0.75845 0.54145,-1.13364 1.12123,-1.13364 0.60656,0 0.98385,0.28409 1.14423,0.86156 0.0826,0.29733 0.13158,2.92662 0.13202,7.08407 l 7.1e-4,6.61126 -1.34289,1.45854 c -0.7386,0.80219 -1.45323,1.6301 -1.58807,1.83978 -0.2775,0.43153 -0.31599,0.96495 -0.0992,1.3745 0.24127,0.45573 1.62967,2.10999 1.88604,2.2472 0.45219,0.242 0.9699,0.13224 1.74786,-0.37058 1.96256,-1.26846 25.43463,-17.49917 25.81381,-17.85 0.23597,-0.21832 0.54951,-0.6543 0.69676,-0.96883 0.2484,-0.5306 0.27103,-0.831 0.31343,-4.16198 l 0.0457,-3.5901 1.13203,0 1.13202,0 0,9.99946 c 0,9.85392 0.004,10.00737 0.26318,10.54313 0.14475,0.29901 0.45174,0.66019 0.68219,0.80262 0.40898,0.25276 0.59536,0.25896 7.78782,0.25896 l 7.36881,0 0.43181,-0.28594 c 0.30625,-0.20279 1.84363,-2.39242 5.28674,-7.52969 2.67021,-3.98406 5.0006,-7.54044 5.17865,-7.90307 l 0.32372,-0.65932 0,-7.49026 c 0,-8.27772 0.009,-8.17648 -0.7976,-8.66848 -0.36141,-0.22036 -0.64555,-0.24985 -2.41125,-0.25027 -1.93046,-5.1e-4 -2.00157,-0.01 -2.00157,-0.26 0,-0.69995 -0.45189,-2.33068 -0.91029,-3.28497 -0.63462,-1.32113 -2.12852,-2.89988 -3.42125,-3.61558 -1.97014,-1.09073 -5.88765,-1.12919 -7.86143,-0.0772 -1.51073,0.80521 -2.86453,2.20383 -3.62713,3.7472 -0.45175,0.91428 -0.82142,2.29201 -0.82561,3.07702 l -0.002,0.41302 -9.34062,0 -9.34063,0 0,-0.50208 c 0,-0.88363 -0.26066,-1.81788 -0.84956,-3.045 -1.061,-2.21084 -3.09643,-3.84024 -5.33142,-4.26792 -1.20074,-0.22977 -3.09389,-0.22525 -4.27722,0.0102 z m 3.65303,4.38212 c 3.12574,1.16949 3.12574,5.93 0,7.09949 -2.61785,0.97946 -5.26775,-0.80621 -5.26775,-3.54975 0,-2.74369 2.64975,-4.52926 5.26775,-3.54974 z m 35.34369,0.0395 c 1.26513,0.5891 1.94263,1.47037 2.22984,2.90048 0.25757,1.28252 -0.36854,2.88922 -1.42375,3.65361 -0.84284,0.61055 -1.50289,0.80376 -2.55399,0.7476 -1.61533,-0.0863 -2.8389,-0.96709 -3.39013,-2.44036 -0.7663,-2.04813 0.22403,-4.16751 2.33389,-4.99475 0.68663,-0.26921 2.08206,-0.20282 2.80414,0.13342 z m 6.66357,19.99776 c 0,0.0516 -1.55312,2.42484 -3.45137,5.27396 l -3.45137,5.18022 -3.28405,0 -3.28405,0 0,-5.27396 0,-5.27396 6.73542,0 c 3.70448,0 6.73542,0.0422 6.73542,0.0937 z"
           style="fill:#ffffff" /><path
           inkscape:connector-curvature="0"
           id="path4820"
           d="m 479.82284,794.84848 c -0.94637,0.20765 -2.16531,0.79635 -3.1276,1.51052 -1.49512,1.10961 -2.7903,3.43266 -2.92786,5.25143 -0.0389,0.51414 -0.1364,0.98933 -0.2167,1.05597 -0.0814,0.0675 -1.57853,0.13802 -3.38117,0.15922 -3.18257,0.0374 -3.24211,0.043 -3.66298,0.34317 -0.84836,0.60507 -0.90063,0.89803 -0.90376,5.06552 -0.003,3.46391 0.0147,3.75547 0.25252,4.2573 0.14424,0.30436 0.46213,0.67693 0.73073,0.85642 l 0.47542,0.31771 9.90225,0.0341 c 6.99229,0.024 9.95194,0.0753 10.07135,0.17441 0.13031,0.10815 0.16911,0.71598 0.16911,2.64898 l 0,2.50864 -0.34948,0.43785 c -0.97858,1.22604 -10.12743,11.02935 -10.21309,10.94368 -0.0548,-0.0548 -0.11686,-2.58736 -0.13784,-5.62783 l -0.0381,-5.52813 -0.31105,-0.6321 c -0.39727,-0.80732 -1.1746,-1.584 -1.97977,-1.97813 -0.87158,-0.42665 -2.62864,-0.44722 -3.50703,-0.0411 -1.38537,0.64058 -2.39903,2.1159 -2.39903,3.49166 0,0.40492 0.0651,0.87913 0.14469,1.05379 0.199,0.43674 0.91585,0.75782 1.48554,0.66537 0.61622,-0.1 1.01428,-0.53772 1.22892,-1.35136 0.23259,-0.88173 0.55288,-1.20238 1.201,-1.20238 0.63998,0 1.07678,0.39406 1.2649,1.14115 0.0921,0.36578 0.13925,2.70584 0.1387,6.88383 -7.6e-4,5.80743 -0.0191,6.35688 -0.2224,6.65955 -0.12186,0.18144 -0.73546,0.88689 -1.36356,1.56767 -1.43376,1.554 -1.58842,1.79166 -1.58945,2.44245 -6.8e-4,0.43031 0.10708,0.67108 0.58483,1.30662 0.98003,1.30373 1.26252,1.53358 1.88485,1.53358 0.45979,0 0.73068,-0.12626 1.73762,-0.80991 0.6561,-0.44545 6.59712,-4.53204 13.20228,-9.08131 8.61045,-5.9304 12.10804,-8.40773 12.35796,-8.75311 0.50853,-0.70276 0.60454,-1.49451 0.60454,-4.9851 0,-2.26837 0.0421,-3.17646 0.1525,-3.28683 0.0919,-0.0919 0.53658,-0.1525 1.11834,-0.1525 0.58176,0 1.02647,0.0607 1.11833,0.1525 0.11602,0.11602 0.1525,2.53599 0.1525,10.1157 0,10.95119 -0.03,10.51752 0.76602,11.08431 0.34258,0.24394 0.58179,0.25166 7.79398,0.25166 5.61014,0 7.52479,-0.0384 7.78301,-0.15603 0.24576,-0.11198 1.76791,-2.29375 5.39065,-7.72675 2.77651,-4.16388 5.14134,-7.75083 5.25519,-7.97098 0.18441,-0.35661 0.20699,-1.21858 0.20699,-7.9002 0,-6.64101 -0.0235,-7.5492 -0.2052,-7.93023 -0.36164,-0.75836 -0.66962,-0.84915 -2.88062,-0.84915 -1.42369,0 -1.99987,-0.0438 -2.0877,-0.15885 -0.0667,-0.0874 -0.18787,-0.60549 -0.26922,-1.15138 -0.49057,-3.29166 -3.00932,-6.00021 -6.18093,-6.64667 -1.34697,-0.27456 -3.48314,-0.18776 -4.65867,0.18928 -0.98812,0.31693 -2.49772,1.27779 -3.24384,2.0647 -1.16542,1.22914 -2.00395,2.98801 -2.15414,4.51847 -0.0468,0.47671 -0.14157,0.93823 -0.21064,1.0256 -0.0984,0.12446 -2.11377,0.15885 -9.308,0.15885 -7.19434,0 -9.20958,-0.0344 -9.30782,-0.15885 -0.069,-0.0874 -0.158,-0.56843 -0.19785,-1.06903 -0.14301,-1.79621 -1.44311,-4.11421 -2.92397,-5.21323 -0.98921,-0.73414 -2.17735,-1.29975 -3.18441,-1.51592 -0.96143,-0.20638 -3.07853,-0.20354 -4.03081,0.005 z m 3.74875,4.44605 c 1.38662,0.67841 2.16585,1.93964 2.16585,3.50558 0,1.11428 -0.27522,1.83714 -1.00846,2.64875 -1.49344,1.65306 -4.23122,1.65306 -5.72466,0 -2.88071,-3.1886 0.71789,-8.03766 4.56727,-6.15433 z m 35.22645,-0.015 c 0.357,0.18121 0.91488,0.62509 1.23972,0.98639 1.32364,1.47221 1.32364,3.59624 0,5.06844 -1.08622,1.20815 -2.55143,1.65563 -4.02162,1.22824 -0.93819,-0.27274 -2.09212,-1.31304 -2.51563,-2.2679 -0.40507,-0.91329 -0.40507,-2.07582 0,-2.98911 0.38646,-0.87134 1.57503,-1.98725 2.39722,-2.25068 0.87196,-0.27938 2.09382,-0.18475 2.90031,0.22462 z m 6.59143,19.90914 c 0.0995,0.16104 -6.71613,10.37452 -7.03811,10.54684 -0.36905,0.19751 -6.26843,0.18008 -6.46762,-0.0191 -0.21909,-0.21909 -0.21909,-10.27799 0,-10.49709 0.19285,-0.19284 13.38698,-0.22278 13.50573,-0.0306 z"
           style="fill:#ffffff" /><path
           inkscape:connector-curvature="0"
           id="path4818"
           d="m 479.85555,794.85216 c -0.3722,0.0901 -1.1695,0.40795 -1.77179,0.70639 -2.37987,1.17928 -4.06346,3.63118 -4.32744,6.30229 l -0.0865,0.87573 -3.30416,0.0635 c -2.17257,0.0418 -3.39122,0.11421 -3.55834,0.21146 -0.3972,0.23116 -0.92357,0.83333 -1.07212,1.22651 -0.0842,0.22274 -0.13517,1.74728 -0.13517,4.03995 0,4.19539 0.0367,4.37299 1.04157,5.03809 l 0.52822,0.34962 9.98542,0.0635 9.98542,0.0635 0.0327,2.7323 0.0327,2.73229 -5.19079,5.64237 c -2.85493,3.10331 -5.24294,5.64815 -5.30669,5.65521 -0.0673,0.007 -0.14547,-2.30621 -0.18637,-5.51529 -0.0763,-5.98289 -0.088,-6.08604 -0.79611,-7.01448 -0.91043,-1.19365 -1.90728,-1.67793 -3.45426,-1.67812 -2.08283,-2.6e-4 -3.82038,1.60901 -3.96291,3.67033 -0.0645,0.933 0.11233,1.31851 0.7476,1.6297 0.39178,0.19191 0.55226,0.20664 0.98423,0.0903 0.58749,-0.15819 0.86562,-0.50502 1.0441,-1.30195 0.0668,-0.29847 0.27188,-0.69994 0.45564,-0.89215 0.65757,-0.68785 1.78931,-0.33569 2.06063,0.64119 0.0822,0.29591 0.12909,2.92553 0.12629,7.07912 l -0.004,6.60834 -0.34432,0.39291 c -0.18937,0.21611 -0.90189,1.00671 -1.58338,1.75689 -1.64599,1.81192 -1.65259,1.93829 -0.19474,3.72733 0.7713,0.94653 1.09723,1.13529 1.73873,1.00699 0.34616,-0.0692 25.87679,-17.56415 26.6215,-18.24244 0.2013,-0.18334 0.48588,-0.5907 0.63241,-0.90523 0.24497,-0.52586 0.27176,-0.86328 0.33295,-4.19375 l 0.0666,-3.62188 1.20729,0 1.20729,0 0.0635,10.16667 c 0.0481,7.70283 0.10135,10.23265 0.21953,10.4389 0.0858,0.14973 0.33479,0.42268 0.55332,0.60656 l 0.39733,0.33433 7.53497,-0.0347 c 7.32935,-0.0337 7.54277,-0.0416 7.82079,-0.28885 0.15721,-0.1398 2.62224,-3.75793 5.47786,-8.04029 l 5.19204,-7.78613 0,-7.5655 c 0,-8.3489 0.026,-8.07081 -0.80044,-8.57469 -0.35804,-0.21831 -0.64746,-0.24813 -2.4124,-0.24855 -1.49457,-3.8e-4 -2.01741,-0.041 -2.05208,-0.15933 -0.0256,-0.0874 -0.14104,-0.67354 -0.25657,-1.3026 -0.31578,-1.71943 -0.99678,-3.03003 -2.20983,-4.25286 -1.7912,-1.80563 -3.59633,-2.4967 -6.23902,-2.38853 -1.15479,0.0473 -1.65413,0.12879 -2.32703,0.37993 -1.20466,0.44961 -2.15423,1.05519 -3.0376,1.93721 -1.31819,1.31618 -2.04865,2.7784 -2.31718,4.63851 l -0.15644,1.08365 -9.39727,0 -9.39727,0 -0.0865,-0.87573 c -0.27013,-2.73339 -1.96749,-5.15983 -4.43919,-6.34597 -0.65616,-0.31489 -1.49606,-0.63452 -1.86646,-0.7103 -0.89338,-0.18279 -2.97087,-0.15688 -3.81578,0.0476 z m 3.47271,4.27351 c 0.94565,0.35381 1.85902,1.26719 2.21284,2.21283 0.99018,2.64651 -0.88384,5.4012 -3.67445,5.4012 -2.19944,0 -3.93958,-1.74015 -3.93958,-3.93959 0,-2.79077 2.75453,-4.66468 5.40119,-3.67444 z m 35.32902,0.0341 c 1.26505,0.59079 1.95801,1.4257 2.3039,2.77584 0.4653,1.81624 -0.49285,3.67361 -2.32864,4.51407 -0.58944,0.26985 -0.83382,0.3092 -1.66734,0.26851 -1.19083,-0.0581 -1.95487,-0.40616 -2.74413,-1.24995 -1.95996,-2.09536 -1.13014,-5.35262 1.64038,-6.43888 0.68371,-0.26807 2.08226,-0.20284 2.79583,0.13041 z m 6.76931,20.13377 c -0.0326,0.12471 -1.61292,2.55613 -3.5118,5.40315 l -3.4525,5.1764 -3.33375,-0.0339 -3.33376,-0.0339 -0.0332,-5.2103 c -0.0183,-2.86566 -0.006,-5.28183 0.0278,-5.36927 0.0478,-0.12451 1.53898,-0.15898 6.87878,-0.15898 6.48037,0 6.81483,0.0112 6.75847,0.22675 z"
           style="fill:#ffffff" /><path
           inkscape:connector-curvature="0"
           id="path4816"
           d="m 480.03278,794.80941 c -0.27472,0.0644 -1.03874,0.37253 -1.69781,0.68474 -0.99269,0.47024 -1.37062,0.73995 -2.20248,1.57181 -0.83511,0.83511 -1.09807,1.20441 -1.56202,2.19364 -0.57767,1.2317 -0.83715,2.17351 -0.83715,3.03844 l 0,0.50207 -3.11763,0 c -3.50531,0 -3.61933,0.0226 -4.44383,0.88075 l -0.50834,0.52907 -0.0369,3.91702 -0.0369,3.91703 0.42002,0.55068 c 0.23101,0.30287 0.61933,0.66777 0.86295,0.81088 0.43472,0.25538 0.62712,0.26085 10.3872,0.29497 l 9.94427,0.0348 0,2.78246 0,2.78246 -0.5401,0.62787 c -1.62795,1.8925 -9.83898,10.7033 -9.97471,10.7033 -0.12623,0 -0.16019,-1.08991 -0.16019,-5.14062 0,-6.39718 -0.0543,-6.71623 -1.35588,-7.96707 -0.73506,-0.70641 -1.1381,-0.92044 -2.11075,-1.1209 -2.29709,-0.47343 -4.70264,1.45487 -4.72316,3.78612 -0.007,0.75183 0.02,0.82867 0.40794,1.17552 0.30636,0.27395 0.54311,0.37111 0.90421,0.37111 0.7873,0 1.2314,-0.47317 1.47143,-1.56771 0.29429,-1.34195 2.26022,-1.29503 2.53131,0.0604 0.0435,0.21744 0.0791,3.38248 0.0791,7.03344 l 0,6.63811 -0.41303,0.51045 c -0.22716,0.28075 -0.942,1.08826 -1.58854,1.79447 -0.90708,0.9908 -1.17552,1.36669 -1.17552,1.64606 0,0.44224 0.56546,1.31788 1.46604,2.27023 0.62766,0.66374 0.70618,0.7084 1.12576,0.64031 0.24807,-0.0403 0.72429,-0.25932 1.05826,-0.48682 7.42857,-5.06016 25.2635,-17.42068 25.62653,-17.76049 0.97541,-0.91304 1.02249,-1.14075 1.07409,-5.19459 l 0.0457,-3.59011 1.25911,0 1.2591,0 0.003,10.00782 c 0.003,9.594 0.0129,10.03004 0.24678,10.54529 0.14018,0.30882 0.42284,0.64725 0.66439,0.79549 0.41154,0.25257 0.57653,0.25732 7.81602,0.22503 l 7.39562,-0.033 0.44092,-0.42742 c 0.24251,-0.23509 2.73332,-3.86698 5.53512,-8.07087 l 5.09419,-7.64344 0,-7.58241 0,-7.5824 -0.33285,-0.39557 c -0.58892,-0.6999 -0.85635,-0.76769 -3.02855,-0.76769 -1.90498,0 -1.9761,-0.009 -1.9761,-0.25952 0,-0.67724 -0.45099,-2.32357 -0.89957,-3.28384 -0.67344,-1.44165 -2.25627,-3.05361 -3.67543,-3.74307 -1.46247,-0.71051 -2.34124,-0.88687 -4.06339,-0.81547 -1.257,0.0521 -1.59399,0.11472 -2.37606,0.44148 -1.4076,0.58811 -2.00996,0.99092 -3.02593,2.02351 -1.37845,1.40099 -2.34218,3.54224 -2.35117,5.22389 l -0.002,0.41302 -9.46771,0 -9.46771,0 0,-0.50207 c 0,-0.86493 -0.25949,-1.80674 -0.83716,-3.03844 -0.46395,-0.98923 -0.72691,-1.35853 -1.56202,-2.19364 -0.83027,-0.83027 -1.21016,-1.10167 -2.19364,-1.56719 -0.65421,-0.30966 -1.44682,-0.62214 -1.76135,-0.6944 -0.69435,-0.15951 -2.92438,-0.15641 -3.61304,0.005 z m 3.62573,4.40336 c 0.74464,0.36607 1.42882,1.05 1.79615,1.79549 0.23809,0.4832 0.28803,0.7939 0.28803,1.79185 0,1.3858 -0.23898,2.03933 -1.03785,2.8382 -0.79886,0.79887 -1.4524,1.03785 -2.83819,1.03785 -0.99795,0 -1.30865,-0.0499 -1.79186,-0.28804 -0.74685,-0.368 -1.43063,-1.05283 -1.7934,-1.79615 -0.34154,-0.6998 -0.45885,-2.20361 -0.23288,-2.98516 0.32213,-1.11411 1.27561,-2.13707 2.38419,-2.55792 0.74806,-0.28399 2.49536,-0.19522 3.22581,0.16388 z m 34.99877,-0.11077 c 1.00699,0.46728 1.5459,0.97509 1.98813,1.87338 0.36686,0.7452 0.42311,0.98781 0.42311,1.82473 0,0.83693 -0.0563,1.07954 -0.42311,1.82474 -0.69711,1.41602 -1.85107,2.10751 -3.5246,2.11206 -0.89638,0.002 -1.12814,-0.0472 -1.80847,-0.38715 -1.37134,-0.68527 -2.18318,-2.00524 -2.18318,-3.54965 0,-1.5444 0.81184,-2.86438 2.18318,-3.54965 0.68033,-0.33996 0.91209,-0.38957 1.80847,-0.38714 0.72953,0.002 1.17578,0.0713 1.53647,0.23868 z m 6.92605,20.06168 c 0,0.0533 -1.58696,2.46947 -3.52657,5.36927 l -3.52656,5.27238 -3.39948,0.0338 -3.39948,0.0339 0,-5.40312 0,-5.40312 6.92604,0 c 3.80933,0 6.92605,0.0436 6.92605,0.0969 z"
           style="fill:#ffffff" /><path
           inkscape:connector-curvature="0"
           id="path4814"
           d="m 480.1828,794.75076 c -0.19222,0.033 -0.34948,0.11337 -0.34948,0.17863 0,0.0652 -0.0974,0.11864 -0.21654,0.11864 -0.11909,0 -0.75448,0.26169 -1.41197,0.58154 -1.65991,0.8075 -2.70843,1.85748 -3.498,3.50285 -0.58068,1.21007 -0.84641,2.15605 -0.84641,3.01312 0,0.26216 -0.0686,0.54528 -0.1525,0.62916 -0.11026,0.11025 -1.0091,0.1525 -3.24471,0.1525 -3.4618,0 -3.62599,0.0317 -4.35488,0.84015 l -0.44479,0.49336 -0.0367,3.87647 c -0.0337,3.55915 -0.0181,3.90166 0.19062,4.18411 0.45418,0.61452 0.95613,1.02304 1.41289,1.14991 0.29813,0.0828 3.95566,0.12984 10.13126,0.13029 7.34673,5.1e-4 9.70126,0.0373 9.81718,0.15321 0.1088,0.10879 0.1525,0.90668 0.1525,2.78381 l 0,2.63131 -0.41302,0.49435 c -1.29925,1.55508 -10.19856,11.09426 -10.3142,11.0558 -0.0956,-0.0318 -0.16018,-1.77307 -0.20879,-5.62721 -0.0762,-6.04049 -0.0869,-6.13546 -0.79674,-7.0712 -1.43889,-1.89676 -4.39325,-2.12589 -6.04993,-0.46921 -0.86662,0.86662 -1.3807,2.57873 -1.0385,3.4586 0.31971,0.82204 1.82618,0.88323 2.23596,0.0908 0.10531,-0.20365 0.19147,-0.46117 0.19147,-0.57227 0,-0.38048 0.4878,-1.15839 0.82183,-1.31058 0.81995,-0.37359 1.71979,0.0687 1.96958,0.96802 0.081,0.29147 0.13036,2.94401 0.1308,7.02232 l 7.1e-4,6.55393 -0.34948,0.45221 c -0.19221,0.24871 -0.90706,1.0638 -1.58854,1.8113 -1.6346,1.79294 -1.64415,1.93295 -0.24953,3.66084 0.71215,0.88232 1.039,1.06699 1.66643,0.9415 0.31881,-0.0638 25.80212,-17.50693 26.5587,-18.17926 0.16676,-0.1482 0.42302,-0.52679 0.56947,-0.84132 0.24624,-0.52886 0.26971,-0.83951 0.31214,-4.13021 0.0282,-2.18502 0.0964,-3.61964 0.17682,-3.71719 0.17545,-0.21283 2.27715,-0.2182 2.489,-0.006 0.11601,0.11602 0.1525,2.5341 0.1525,10.10721 0,10.8037 -0.019,10.50281 0.70069,11.06896 0.35023,0.27549 0.35064,0.2755 7.73572,0.27363 5.60198,-10e-4 7.46219,-0.0398 7.70317,-0.15886 0.20468,-0.10113 2.11321,-2.84418 5.36444,-7.71008 2.77571,-4.15421 5.16329,-7.69795 5.30574,-7.87499 0.25412,-0.31582 0.25899,-0.46468 0.25899,-7.91698 l 0,-7.5951 -0.42767,-0.44039 c -0.23522,-0.24221 -0.56405,-0.47244 -0.73073,-0.51161 -0.16668,-0.0392 -1.15473,-0.0851 -2.19565,-0.10203 -1.53167,-0.0249 -1.91143,-0.0672 -1.99131,-0.22143 -0.0543,-0.10484 -0.19199,-0.70531 -0.30599,-1.33437 -0.30463,-1.68093 -0.99241,-3.02495 -2.14207,-4.18589 -0.94454,-0.9538 -2.12208,-1.7019 -3.13575,-1.99216 -0.31453,-0.0901 -0.61268,-0.22372 -0.66255,-0.29702 -0.12706,-0.18674 -3.89127,-0.18032 -4.0124,0.007 -0.0499,0.0771 -0.38477,0.23689 -0.74423,0.35516 -2.70332,0.88952 -4.88192,3.63742 -5.1992,6.55785 -0.0494,0.45432 -0.14648,0.89752 -0.21582,0.98489 -0.17982,0.22655 -18.65147,0.23277 -18.87789,0.006 -0.0839,-0.0839 -0.1525,-0.367 -0.1525,-0.62916 0,-0.85707 -0.26573,-1.80305 -0.84641,-3.01312 -0.78957,-1.64537 -1.83809,-2.69535 -3.498,-3.50285 -0.65749,-0.31985 -1.28811,-0.58154 -1.40138,-0.58154 -0.11327,0 -0.22896,-0.0691 -0.2571,-0.15346 -0.0524,-0.15728 -2.9502,-0.2703 -3.68721,-0.14381 z m 3.15072,4.24979 c 0.96531,0.36117 1.97152,1.36739 2.33269,2.3327 0.99982,2.67226 -0.96485,5.53353 -3.79956,5.53353 -1.10962,0 -2.04115,-0.39459 -2.85661,-1.21005 -1.63264,-1.63264 -1.63246,-4.08077 3.8e-4,-5.71364 1.1699,-1.16991 2.77818,-1.52055 4.32306,-0.94254 z m 35.34849,0.0427 c 0.95877,0.44639 1.72275,1.20836 2.14247,2.13683 1.51094,3.34234 -2.05041,6.89011 -5.34428,5.3239 -1.44508,-0.68713 -2.47813,-2.23115 -2.47813,-3.70391 0,-1.47275 1.03305,-3.01677 2.47813,-3.7039 1.02085,-0.48541 2.22999,-0.5054 3.20181,-0.0529 z m 6.85774,20.09325 c 0.0858,0.22358 -6.73049,10.54897 -7.09138,10.74212 -0.34269,0.1834 -6.50553,0.15098 -6.69171,-0.0352 -0.21918,-0.21917 -0.21918,-10.53207 0,-10.75125 0.1148,-0.1148 1.82806,-0.1525 6.93003,-0.1525 6.00232,0 6.78617,0.0225 6.85306,0.19684 z"
           style="fill:#ffffff" /><path
           inkscape:connector-curvature="0"
           id="path4812"
           d="m 480.15102,794.79386 c -0.35882,0.0913 -0.36256,0.0984 -0.0635,0.12041 0.2166,0.016 0.10076,0.0818 -0.36396,0.20677 -1.15606,0.31097 -2.67868,1.18731 -3.51365,2.02229 -1.24466,1.24466 -2.22239,3.40562 -2.22239,4.91191 0,1.01446 0.0558,0.99897 -3.59918,0.99952 -2.96871,4.4e-4 -3.22969,0.0187 -3.61396,0.253 -0.2278,0.13889 -0.52782,0.43891 -0.66671,0.66671 -0.13889,0.2278 -0.25677,0.3284 -0.26194,0.22356 -0.006,-0.12741 -0.0456,-0.10634 -0.11863,0.0635 -0.15344,0.3571 -0.15344,7.70527 0,7.94271 0.10951,0.16945 0.12404,0.16945 0.13076,0 0.004,-0.10484 0.11774,0.0179 0.25241,0.27281 0.16006,0.30294 0.43607,0.55601 0.79701,0.73073 0.54656,0.26459 0.65146,0.2673 10.35191,0.2673 8.73943,0 9.82137,0.0216 9.99947,0.1997 0.16876,0.16877 0.1997,0.60984 0.1997,2.84735 l 0,2.64765 -0.41696,0.49907 c -1.27223,1.52276 -10.31133,11.21665 -10.459,11.21665 -0.0965,0 -0.20491,-0.12867 -0.24091,-0.28594 -0.036,-0.15727 -0.08,-2.745 -0.0977,-5.75052 -0.031,-5.25198 -0.0427,-5.48709 -0.29986,-6.04292 -0.39122,-0.84551 -0.98818,-1.46122 -1.80621,-1.86293 -0.62237,-0.30563 -0.87114,-0.35386 -1.80224,-0.34942 -0.90981,0.004 -1.1806,0.0574 -1.71661,0.33602 -0.85761,0.44587 -1.30002,0.91038 -1.73269,1.81925 -0.45659,0.95908 -0.50742,2.07974 -0.11227,2.47489 0.54984,0.54983 1.64593,0.41902 1.88261,-0.22469 0.0696,-0.18917 0.22501,-0.62044 0.34546,-0.95836 0.55038,-1.54418 2.43746,-1.38628 2.84651,0.23818 0.0917,0.36398 0.13907,2.75708 0.13907,7.0182 l 0,6.46588 -0.34948,0.45221 c -0.19221,0.24871 -0.90705,1.0638 -1.58854,1.8113 -1.10271,1.20952 -1.23857,1.41048 -1.23456,1.82615 0.005,0.54583 0.10108,0.72793 0.93783,1.78245 0.63691,0.80267 0.95197,0.9797 1.56919,0.88174 0.26498,-0.0421 24.22992,-16.41943 26.3058,-17.97709 0.22781,-0.17094 0.5406,-0.55053 0.69509,-0.84354 0.26602,-0.50453 0.28447,-0.72981 0.34831,-4.25479 0.0565,-3.1193 0.0983,-3.74154 0.25803,-3.84233 0.10485,-0.0661 0.68694,-0.12115 1.29353,-0.12222 0.83514,-0.001 1.15139,0.0465 1.30261,0.19776 0.17817,0.17818 0.1997,1.28158 0.1997,10.23652 0,8.65601 0.0261,10.08734 0.1899,10.40404 0.41333,0.7993 0.0348,0.76391 8.17069,0.76391 4.97024,0 7.49726,-0.0443 7.66565,-0.13444 0.13815,-0.0739 2.59346,-3.64918 5.45623,-7.94497 2.86277,-4.2958 5.20591,-7.73804 5.20698,-7.64943 10e-4,0.11043 0.0407,0.10115 0.12514,-0.0295 0.076,-0.11763 0.12319,-3.08619 0.12319,-7.75208 0,-4.6659 -0.0472,-7.63446 -0.12319,-7.75209 -0.10951,-0.16944 -0.12391,-0.16944 -0.12964,0 -0.004,0.11762 -0.0709,0.0743 -0.17479,-0.11309 -0.31268,-0.56414 -0.63872,-0.64009 -2.76827,-0.64491 -2.18059,-0.005 -2.38972,-0.0699 -2.39409,-0.74431 -0.005,-0.7641 -0.40518,-2.18186 -0.89835,-3.18233 -0.93506,-1.89692 -2.82255,-3.45595 -4.8182,-3.97974 -0.50251,-0.13189 -0.70161,-0.22556 -0.50833,-0.23916 0.79903,-0.0562 -0.51773,-0.21639 -1.77917,-0.21639 -1.26696,0 -2.56969,0.1592 -1.77917,0.21742 0.21634,0.0159 0.0997,0.082 -0.36552,0.20717 -2.98774,0.80358 -5.40726,3.63817 -5.68852,6.66437 -0.0474,0.50994 -0.16341,0.98652 -0.26485,1.08796 -0.15268,0.15268 -1.61787,0.18051 -9.50298,0.18051 -10.50995,0 -9.72188,0.081 -9.72188,-0.99904 0,-1.50629 -0.97772,-3.66725 -2.22239,-4.91191 -0.83497,-0.83498 -2.35759,-1.71132 -3.51365,-2.02229 -0.46472,-0.12501 -0.58055,-0.19081 -0.36396,-0.20677 0.79052,-0.0582 -0.51221,-0.21742 -1.77917,-0.21742 -0.73391,0 -1.50594,0.0437 -1.71563,0.097 z m 3.10649,4.08429 c 1.58396,0.53491 2.80289,2.24051 2.80289,3.92196 0,1.68146 -1.21893,3.38706 -2.80289,3.92197 -1.62743,0.54959 -3.10804,0.20669 -4.31378,-0.99905 -1.69066,-1.69066 -1.68993,-4.1559 0.002,-5.84756 1.20293,-1.20293 2.68688,-1.54615 4.31204,-0.99732 z m 35.29078,6e-5 c 1.55154,0.58051 2.74621,2.28664 2.74621,3.9219 0,2.19932 -1.97944,4.19376 -4.16222,4.19376 -1.67776,0 -3.35454,-1.20445 -3.94451,-2.83339 -0.3928,-1.08454 -0.39331,-1.63527 -0.003,-2.71191 0.80081,-2.20619 3.22765,-3.36931 5.36304,-2.57036 z m 7.02149,20.05043 c 0.0974,0.0617 0.14886,0.22002 0.11438,0.35188 -0.10722,0.41001 -6.94215,10.56807 -7.20572,10.70913 -0.15494,0.0829 -1.45097,0.13339 -3.4256,0.13339 -2.71816,0 -3.20517,-0.0288 -3.37606,-0.19971 -0.17511,-0.17511 -0.19971,-0.84694 -0.19971,-5.4555 0,-4.60856 0.0246,-5.2804 0.19971,-5.45551 0.17659,-0.17659 0.98182,-0.19948 6.95781,-0.19776 3.71696,10e-4 6.8378,0.0524 6.93519,0.11408 z"
           style="fill:#ffffff" /></g></g></g></svg>