<?xml version="1.0" encoding="UTF-8" standalone="no"?>
<!-- Created with Inkscape (http://www.inkscape.org/) -->

<svg
   xmlns:dc="http://purl.org/dc/elements/1.1/"
   xmlns:cc="http://creativecommons.org/ns#"
   xmlns:rdf="http://www.w3.org/1999/02/22-rdf-syntax-ns#"
   xmlns:svg="http://www.w3.org/2000/svg"
   xmlns="http://www.w3.org/2000/svg"
   xmlns:xlink="http://www.w3.org/1999/xlink"
   xmlns:sodipodi="http://sodipodi.sourceforge.net/DTD/sodipodi-0.dtd"
   xmlns:inkscape="http://www.inkscape.org/namespaces/inkscape"
   id="svg2"
   version="1.1"
   inkscape:version="0.48.5 r10040"
   width="1280"
   height="1280"
   xml:space="preserve"
   sodipodi:docname="oi_minelog.ai.svg"
   inkscape:export-filename="/Users/weareu/Downloads/openitem_minelog_logo.png"
   inkscape:export-xdpi="90"
   inkscape:export-ydpi="90"><metadata
     id="metadata8"><rdf:RDF><cc:Work
         rdf:about=""><dc:format>image/svg+xml</dc:format><dc:type
           rdf:resource="http://purl.org/dc/dcmitype/StillImage" /><dc:title></dc:title></cc:Work></rdf:RDF></metadata><defs
     id="defs6"><linearGradient
       x1="0"
       y1="0"
       x2="1"
       y2="0"
       gradientUnits="userSpaceOnUse"
       gradientTransform="matrix(-1.53e-5,233.92529,233.92529,1.53e-5,512.00049,541.40039)"
       spreadMethod="pad"
       id="linearGradient24"><stop
         style="stop-opacity:1;stop-color:#3b4e5a"
         offset="0"
         id="stop26" /><stop
         style="stop-opacity:1;stop-color:#6b9aa5"
         offset="1"
         id="stop28" /></linearGradient><clipPath
       clipPathUnits="userSpaceOnUse"
       id="clipPath36"><path
         d="m 0,1024 1024,0 L 1024,0 0,0 0,1024 z"
         id="path38" /></clipPath><linearGradient
       inkscape:collect="always"
       xlink:href="#linearGradient24"
       id="linearGradient5202"
       gradientUnits="userSpaceOnUse"
       gradientTransform="matrix(-3.349032e-6,51.204136,51.204136,3.349032e-6,473.3281,724.12179)"
       spreadMethod="pad"
       x1="0"
       y1="0"
       x2="1"
       y2="0" /></defs><sodipodi:namedview
     pagecolor="#ffffff"
     bordercolor="#666666"
     borderopacity="1"
     objecttolerance="10"
     gridtolerance="10"
     guidetolerance="10"
     inkscape:pageopacity="0"
     inkscape:pageshadow="2"
     inkscape:window-width="1055"
     inkscape:window-height="747"
     id="namedview4"
     showgrid="false"
     inkscape:zoom="4.91"
     inkscape:cx="617.79547"
     inkscape:cy="852.38683"
     inkscape:window-x="299"
     inkscape:window-y="33"
     inkscape:window-maximized="0"
     inkscape:current-layer="g10" /><g
     id="g10"
     inkscape:groupmode="layer"
     inkscape:label="Logo3"
     transform="matrix(1.25,0,0,-1.25,0,1280)"><path
       style="fill:#00ff00;fill-opacity:1"
       d=""
       id="path4485"
       inkscape:connector-curvature="0"
       transform="matrix(0.8,0,0,-0.8,0,1024)" /><g
       id="g5320"
       inkscape:export-filename="/Users/weareu/Downloads/openitem_vehclinsp_logo.png"
       inkscape:export-xdpi="90"
       inkscape:export-ydpi="90"><path
         inkscape:connector-curvature="0"
         id="path30"
         style="fill:url(#linearGradient5202);stroke:none"
         d="m 452.24157,775.326 c -2.48398,0 -4.5166,-2.0324 -4.5166,-4.51638 l 0,0 0,-42.17154 c 0,-2.48397 2.03262,-4.51637 4.5166,-4.51637 l 0,0 14.26512,0 c -1.78637,3.12904 -5.61608,9.86519 -6.60394,11.76473 l 0,0 c -1.30065,2.51243 0.2839,3.95405 2.16483,3.51561 l 0,0 c 1.45147,-0.33469 2.81407,-2.99596 5.06054,-5.39545 l 0,0 0.0681,14.96142 c -3.81877,1.00887 -6.64247,4.49186 -6.64247,8.62299 l 0,0 c 0,4.91761 4.00111,8.91828 8.91893,8.91828 l 0,0 c 4.91827,0 8.91959,-4.00067 8.91959,-8.91828 l 0,0 c 0,-4.18782 -2.90271,-7.7089 -6.80116,-8.66239 l 0,0 0,-2.1193 0.008,0 0,-5.23259 0.67112,0 0,2.37847 c 0,1.16056 0.94364,2.10376 2.11405,2.10376 l 0,0 0.22283,0 c 1.17063,0 2.10376,-0.9432 2.10376,-2.10376 l 0,0 0,-2.37847 0.82216,0 0,2.37847 c 0,1.16056 0.93488,2.10376 2.10398,2.10376 l 0,0 0.2353,0 c 1.15772,0 2.10267,-0.9432 2.10267,-2.10376 l 0,0 0,-2.37847 0.81209,0 0,2.37847 c 0,1.16056 0.93597,2.10376 2.10573,2.10376 l 0,0 0.22195,0 c 1.16954,0 2.11405,-0.9432 2.11405,-2.10376 l 0,0 0,-0.51833 0,-3.93194 c 0,-0.0101 -0.0103,-0.0101 -0.0103,-0.021 l 0,0 0,-12.93536 c 0,0 0,-1.04805 -0.40078,-2.42684 l 0,0 7.59683,0 c 2.48375,0 4.51637,2.0324 4.51637,4.51637 l 0,0 0,42.17154 c 0,2.48398 -2.03262,4.51638 -4.51637,4.51638 l 0,0 -42.17307,0 z m 9.21509,-17.73499 c 0,-3.63052 2.4275,-6.7031 5.74392,-7.68526 l 0,0 0.0208,4.61597 c -0.94408,0.69345 -1.5596,1.80782 -1.5596,3.06929 l 0,0 c 0,2.10464 1.70626,3.81089 3.81089,3.81089 l 0,0 c 2.10377,0 3.80915,-1.70625 3.80915,-3.81089 l 0,0 c 0,-1.32035 -0.67112,-2.48288 -1.69072,-3.16669 l 0,0 0,-4.56257 c 3.39522,0.9316 5.89802,4.0427 5.89802,7.72926 l 0,0 c 0,4.41963 -3.59638,8.01535 -8.01645,8.01535 l 0,0 c -4.42006,0 -8.016,-3.59572 -8.016,-8.01535" /><g
         transform="matrix(0.21889098,0,0,0.21889098,361.25581,605.61413)"
         id="g32"><g
           id="g40"
           transform="translate(619.3887,486.915)"><path
             d="m 0,0 c 0,-6.158 -4.986,-11.148 -11.152,-11.148 -6.159,0 -11.149,4.99 -11.149,11.148 0,6.162 4.99,11.152 11.149,11.152 C -4.986,11.152 0,6.162 0,0"
             style="fill:#6b9aa5;fill-opacity:1;fill-rule:nonzero;stroke:none"
             id="path42"
             inkscape:connector-curvature="0" /></g><g
           id="g44"
           transform="translate(79.8091,424.876)"><path
             d="m 0,0 c 0,-33.172 24.975,-59.1 57.955,-59.1 33.363,0 57.766,26.881 57.766,59.1 0,32.219 -24.403,59.1 -57.957,59.1 C 24.592,59.1 0,32.791 0,0.19 L 0,0 z m -15.823,-0.382 c 0,43.467 33.743,73.399 73.587,73.399 41.371,0 73.59,-31.648 73.59,-73.017 0,-41.37 -32.03,-73.017 -73.59,-73.017 -41.75,0 -73.587,32.219 -73.587,72.445 l 0,0.19 z"
             style="fill:#6b9aa5;fill-opacity:1;fill-rule:nonzero;stroke:none"
             id="path46"
             inkscape:connector-curvature="0" /></g><g
           id="g48"
           transform="translate(327.2661,405.8115)"><path
             d="m 0,0 c 0,19.255 -13.535,40.988 -41.178,40.988 -11.439,0 -21.543,-4.575 -28.978,-12.01 -7.053,-7.435 -11.438,-17.73 -11.438,-29.359 0,-11.438 4.385,-21.733 11.819,-29.169 7.244,-7.244 17.539,-11.629 28.978,-11.629 C -17.729,-41.179 0,-23.64 0,-0.19 L 0,0 z m -94.75,51.093 13.346,0 0,-21.353 c 8.388,14.87 23.258,24.212 42.894,24.212 34.508,0 52.617,-28.024 52.617,-54.524 0,-28.596 -20.779,-53.761 -52.617,-53.761 -22.685,0 -37.365,13.154 -42.131,23.83 l 0,-20.971 0,-38.891 -14.109,0 0,141.458 z"
             style="fill:#6b9aa5;fill-opacity:1;fill-rule:nonzero;stroke:none"
             id="path50"
             inkscape:connector-curvature="0" /></g><g
           id="g52"
           transform="translate(448.7075,412.8652)"><path
             d="M 0,0 C -0.953,17.921 -18.301,35.46 -39.463,34.888 -61.578,34.888 -77.973,18.684 -79.307,0 L 0,0 z m -79.498,-11.248 c 0.764,-25.736 22.687,-38.129 40.035,-37.938 15.824,0 28.596,7.817 35.27,21.162 l 14.679,0 C 5.719,-39.082 -1.525,-47.47 -10.295,-52.999 c -8.578,-5.528 -18.682,-8.388 -29.168,-8.388 -35.65,0 -54.142,28.406 -54.142,53.952 0,30.122 23.257,54.333 53.951,54.333 14.49,0 27.834,-5.147 37.558,-14.489 C 9.723,20.971 15.443,5.147 13.918,-11.248 l -93.416,0 z"
             style="fill:#6b9aa5;fill-opacity:1;fill-rule:nonzero;stroke:none"
             id="path54"
             inkscape:connector-curvature="0" /></g><g
           id="g56"
           transform="translate(482.6431,456.9043)"><path
             d="m 0,0 13.346,0 c 0,-5.72 0,-11.438 -0.192,-18.302 5.91,13.345 19.826,21.542 38.129,21.161 31.838,-0.38 43.086,-22.114 43.086,-47.088 l 0,-58.337 -13.918,0 0,55.477 c 0,22.114 -9.914,37.175 -32.981,36.794 -21.161,-0.19 -33.363,-12.964 -33.363,-34.316 l 0,-57.955 -14.107,0 L 0,0 z"
             style="fill:#6b9aa5;fill-opacity:1;fill-rule:nonzero;stroke:none"
             id="path58"
             inkscape:connector-curvature="0" /></g><path
           d="m 605.416,455.379 5.338,0 0,-101.041 -5.338,0 0,101.041 z"
           style="fill:#3b4e5a;fill-opacity:1;fill-rule:nonzero;stroke:none"
           id="path60"
           inkscape:connector-curvature="0" /><g
           id="g62"
           transform="translate(649.2637,450.4219)"><path
             d="m 0,0 -22.305,0 0,4.957 22.305,0 0,40.035 5.338,0 0,-40.035 25.928,0 0,-4.957 -25.928,0 0,-96.084 -5.338,0 L 0,0 z"
             style="fill:#3b4e5a;fill-opacity:1;fill-rule:nonzero;stroke:none"
             id="path64"
             inkscape:connector-curvature="0" /></g><g
           id="g66"
           transform="translate(782.1426,409.2432)"><path
             d="M 0,0 C -1.143,24.402 -23.83,44.61 -47.469,43.657 -72.443,43.657 -93.605,25.546 -95.131,0 L 0,0 z m -95.32,-4.957 c 0.381,-32.981 28.023,-47.66 47.851,-47.47 18.682,0 35.078,9.532 43.084,26.69 l 5.91,0 c -4.574,-10.676 -11.818,-18.683 -20.398,-24.021 -8.578,-5.147 -18.492,-7.626 -28.787,-7.626 -38.129,0 -53.19,30.313 -53.19,52.809 0,30.312 23.258,53.189 53.381,53.189 13.535,0 26.498,-4.766 36.223,-13.536 C -0.189,25.165 6.293,9.913 5.34,-4.957 l -100.66,0 z"
             style="fill:#3b4e5a;fill-opacity:1;fill-rule:nonzero;stroke:none"
             id="path68"
             inkscape:connector-curvature="0" /></g><g
           id="g70"
           transform="translate(808.2617,455.3789)"><path
             d="m 0,0 5.338,0 0,-18.874 c 9.723,19.446 27.453,21.353 33.935,21.353 12.202,0 22.877,-4.195 29.741,-12.392 2.859,-3.051 6.863,-11.82 6.863,-11.82 1.143,2.859 3.051,7.244 7.244,11.82 7.055,7.816 17.92,12.392 29.359,12.392 12.202,0 21.352,-3.814 27.643,-10.105 8.389,-8.197 11.629,-21.352 11.629,-36.794 l 0,-56.621 -5.338,0 0,56.621 c 0,13.917 -2.668,25.736 -10.295,33.362 -5.338,5.53 -13.154,8.579 -23.639,8.579 -8.96,0 -19.828,-3.431 -26.119,-11.628 -6.48,-8.389 -7.816,-14.49 -7.816,-30.313 l 0,-56.621 -5.338,0 0,56.621 c 0.381,15.823 -2.096,23.067 -7.244,29.931 -5.91,7.626 -14.869,11.63 -26.69,12.01 C 29.359,-2.097 19.637,-7.054 14.68,-13.536 9.152,-19.827 5.338,-28.787 5.338,-43.467 l 0,-57.574 -5.338,0 L 0,0 z"
             style="fill:#3b4e5a;fill-opacity:1;fill-rule:nonzero;stroke:none"
             id="path72"
             inkscape:connector-curvature="0" /></g></g><text
         inkscape:export-ydpi="90"
         inkscape:export-xdpi="90"
         inkscape:export-filename="/Users/weareu/Downloads/openitem_vehclinsp_logo.png"
         transform="scale(1,-1)"
         sodipodi:linespacing="125%"
         id="text3187"
         y="-668.63477"
         x="422.35229"
         style="font-size:12.80000019px;font-style:normal;font-weight:normal;line-height:125%;letter-spacing:0px;word-spacing:0px;fill:#666666;fill-opacity:1;stroke:none;font-family:Sans"
         xml:space="preserve"><tspan
           style="font-size:12.80000019px;font-style:normal;font-variant:normal;font-weight:normal;font-stretch:normal;fill:#666666;font-family:'.Al Nile PUA';-inkscape-font-specification:'.Al Nile PUA'"
           y="-668.63477"
           x="422.35229"
           id="tspan3189"
           sodipodi:role="line">VEHICLE INSPECTIONS</tspan></text>
<g
         style="fill:#ffffff"
         transform="matrix(0.72872972,0,0,0.72872972,102.11904,210.53456)"
         id="g5304"><path
           inkscape:connector-curvature="0"
           id="path5318"
           d="m 518.40971,760.09964 c -0.18959,0.0462 -0.4629,0.1679 -0.60736,0.27048 -0.37384,0.26546 -0.77935,0.88867 -0.8719,1.33998 -0.0417,0.20308 -0.0861,0.4052 -0.0988,0.44915 -0.018,0.0623 -0.61432,0.0799 -2.70435,0.0799 l -2.68123,0 -0.29362,0.32658 c -0.16149,0.17962 -0.29362,0.3793 -0.29362,0.44375 0,0.0644 -0.0288,0.13496 -0.0639,0.15669 -0.0354,0.0219 -0.063,0.302 -0.0619,0.62711 0.002,0.64796 0.0602,0.7879 0.3595,0.86762 l 0.18189,0.0485 0.0321,0.85868 c 0.0179,0.47907 0.0651,0.9152 0.10682,0.98654 0.60331,1.03182 3.11421,1.68102 6.69877,1.73199 l 1.59522,0.0227 1.95301,1.94416 c 1.07416,1.06929 2.02239,1.9798 2.10718,2.02336 0.45283,0.23265 0.90719,0.25546 5.08827,0.25546 4.4356,0 4.67517,-0.0158 5.23816,-0.34575 0.37627,-0.2205 1.14075,-0.99731 2.23938,-2.27547 0.49869,-0.58018 1.00874,-1.16276 1.13345,-1.29462 l 0.22673,-0.23975 1.84931,0 1.84931,0 0.34651,-0.20777 c 0.23318,-0.13983 0.40997,-0.31058 0.54059,-0.52212 l 0.19409,-0.31433 0.032,-1.215 0.032,-1.21499 0.19179,-0.10548 c 0.27378,-0.15055 0.37682,-0.40584 0.40421,-1.00152 l 0.024,-0.52153 -0.49297,-0.51598 -0.49297,-0.51599 -1.18277,-0.0174 -1.18277,-0.0174 -0.13886,-0.48161 c -0.0764,-0.26488 -0.20417,-0.58729 -0.284,-0.71645 -0.19454,-0.31476 -0.75241,-0.80901 -0.961,-0.85139 -0.0925,-0.0188 -0.27214,-0.0616 -0.39928,-0.0952 -0.48493,-0.12801 -1.55049,-0.0106 -1.83409,0.20217 -0.57729,0.43303 -0.9118,0.93126 -1.05829,1.5763 l -0.0832,0.36616 -6.77087,0 -6.77086,0 -0.0485,-0.33716 c -0.0856,-0.59483 -0.50481,-1.25753 -0.98206,-1.55249 -0.47352,-0.29265 -1.36983,-0.38723 -2.06496,-0.21791 z m 1.43416,0.75647 c 0.49112,0.2287 0.86047,0.74539 0.86047,1.20375 0,0.30398 -0.19804,0.20228 -0.33128,-0.17012 -0.2316,-0.64734 -0.83485,-0.99226 -1.49076,-0.85236 -0.40384,0.0861 -0.80466,0.47699 -0.92316,0.90021 -0.0621,0.22187 -0.11603,0.30157 -0.20399,0.30157 -0.15037,0 -0.15926,-0.22873 -0.0217,-0.55801 0.35386,-0.8469 1.28322,-1.21022 2.1104,-0.82504 z m 18.14482,-0.0634 c 0.48028,0.20068 0.91535,0.74945 0.95147,1.20013 0.0126,0.15656 -0.0115,0.21527 -0.0953,0.23261 -0.0667,0.0138 -0.12615,-0.024 -0.14685,-0.0934 -0.29489,-0.98871 -1.07088,-1.38341 -1.90208,-0.96748 -0.26925,0.13473 -0.62004,0.62433 -0.62004,0.8654 0,0.16729 -0.1637,0.2629 -0.26931,0.15729 -0.11904,-0.11904 0.0705,-0.62539 0.35524,-0.94882 0.14341,-0.16292 0.37694,-0.349 0.51895,-0.41351 0.30987,-0.14076 0.90981,-0.15675 1.20791,-0.0322 z m -10.51948,6.25736 -0.02,0.20778 -1.21383,0 c -1.12014,0 -1.21556,-0.009 -1.2361,-0.11561 -0.0562,-0.29163 -0.021,-0.29995 1.26923,-0.29995 l 1.22077,0 -0.02,0.20778 z m 8.35507,0.016 0,0.19179 -1.21471,0 -1.21471,0 -0.0201,-0.20917 -0.0201,-0.20918 1.23485,0.0174 1.23485,0.0174 0,0.1918 z m -9.27934,1.41673 1.44996,0.0422 -0.0171,1.47619 -0.0171,1.47619 -1.62864,0.0171 -1.62864,0.0171 -1.48805,-1.48704 c -0.81843,-0.81787 -1.48805,-1.50884 -1.48805,-1.53549 0,-0.0597 2.85513,-0.0634 4.81769,-0.006 z m 9.11951,-0.004 c 0,0.0211 -0.56594,0.69714 -1.25764,1.50241 l -1.25763,1.46411 -1.81111,0 -1.81111,0 0,-1.5024 0,-1.5024 3.06875,0 c 1.6878,0 3.06874,0.0172 3.06874,0.0383 z"
           style="fill:#ffffff" /><path
           inkscape:connector-curvature="0"
           id="path5316"
           d="m 518.48549,760.09701 c -0.75667,0.1849 -1.36621,0.88261 -1.55028,1.77454 l -0.0759,0.36761 -2.66041,0 -2.6604,0 -0.30624,0.31772 c -0.40827,0.42358 -0.50137,0.66729 -0.50137,1.31253 0,0.57698 0.0373,0.64687 0.40929,0.76712 l 0.19806,0.064 0.032,0.86308 c 0.0188,0.50725 0.0644,0.9197 0.11064,1.0004 0.57836,1.00953 3.36477,1.68455 6.95426,1.6847 l 1.27905,5e-5 1.88559,1.89015 c 1.03708,1.03958 2.00747,1.96271 2.15643,2.05139 0.55148,0.32831 0.6881,0.33735 5.09946,0.33739 4.37602,3e-5 4.62437,-0.0154 5.12393,-0.31782 0.41216,-0.24953 1.32361,-1.17677 2.49539,-2.53862 l 1.11394,-1.29463 1.80282,-10e-4 c 1.65276,-10e-4 1.82581,-0.0118 2.07917,-0.12682 0.44807,-0.20334 0.64364,-0.37444 0.82809,-0.72449 0.16811,-0.31903 0.17462,-0.36945 0.19546,-1.51277 l 0.0216,-1.18275 0.20235,-0.0959 c 0.27072,-0.1283 0.38421,-0.38607 0.41464,-0.94178 l 0.0253,-0.46229 -0.53613,-0.54464 -0.53614,-0.54465 -1.18872,0 -1.18872,0 -0.0409,-0.30367 c -0.0815,-0.6056 -0.53001,-1.30498 -1.03827,-1.61911 -0.47823,-0.29556 -1.23997,-0.38969 -1.84623,-0.22814 -0.46841,0.12482 -0.67178,0.24777 -1.01277,0.61232 -0.33969,0.36316 -0.47678,0.63338 -0.58597,1.15501 l -0.0736,0.35163 -6.8063,0.0163 -6.80629,0.0163 -0.10868,-0.4638 c -0.31241,-1.33334 -1.5026,-2.0214 -2.90416,-1.67893 z m 1.21205,0.63507 c 0.53299,0.1902 0.98258,0.72436 1.05327,1.25137 0.0332,0.24785 0.0285,0.25571 -0.15266,0.25571 -0.1668,0 -0.19503,-0.0302 -0.26186,-0.28007 -0.1402,-0.52418 -0.65044,-0.93183 -1.16632,-0.93183 -0.51589,0 -1.02613,0.40765 -1.16632,0.93183 -0.0658,0.24607 -0.0966,0.28007 -0.25345,0.28007 -0.21358,0 -0.22607,-0.0934 -0.0726,-0.5437 0.26921,-0.7901 1.22638,-1.24659 2.01999,-0.96338 z m 18.43622,0.0883 c 0.44753,0.22831 0.81095,0.73046 0.86486,1.195 0.0202,0.17399 0.005,0.1918 -0.16248,0.1918 -0.16302,0 -0.19447,-0.0329 -0.26751,-0.28031 -0.31728,-1.07458 -1.76618,-1.19057 -2.23712,-0.17908 -0.0849,0.18234 -0.15464,0.3694 -0.15498,0.41569 -3.9e-4,0.054 -0.0636,0.0769 -0.17644,0.0639 -0.15925,-0.0183 -0.17374,-0.0412 -0.15382,-0.24233 0.0121,-0.12216 0.0756,-0.32724 0.14117,-0.45573 0.14743,-0.28899 0.62452,-0.71684 0.90546,-0.81201 0.30774,-0.10424 0.93698,-0.052 1.24086,0.10304 z m -10.61246,6.12767 c 0.0894,0.35612 0.0285,0.37369 -1.29381,0.37369 l -1.20774,0 -0.0197,-0.27171 -0.0197,-0.27171 1.24914,0 1.24913,0 0.0426,0.16973 z m 8.30298,0.11797 0,0.25572 -1.20775,0 c -1.32316,0 -1.38322,-0.0174 -1.29346,-0.37507 l 0.043,-0.1711 1.22913,0.0174 1.22913,0.0174 0,0.25573 z m -0.0959,1.38111 c 0,0.0388 -0.57977,0.74363 -1.28837,1.56634 l -1.28836,1.49583 -1.84431,0 -1.84431,0 0,-1.53313 0,-1.53312 1.39053,-0.0185 c 3.86042,-0.0515 4.87482,-0.0468 4.87482,0.0226 z m -7.70382,1.5278 0,1.5024 -1.6942,0.0168 -1.6942,0.0168 -1.53437,-1.53578 -1.53437,-1.53578 3.22857,0.0166 3.22857,0.0165 0,1.50241 z"
           style="fill:#ffffff" /><path
           inkscape:connector-curvature="0"
           id="path5314"
           d="m 518.50203,760.10751 c -0.7973,0.24466 -1.35241,0.88659 -1.53314,1.77292 l -0.0797,0.3907 -2.72841,0.032 -2.7284,0.032 -0.16237,0.1918 c -0.46924,0.5543 -0.53912,0.72478 -0.53912,1.31529 0,0.60729 0.0229,0.65181 0.38359,0.74463 l 0.22376,0.0576 0.0325,0.85921 c 0.0248,0.65561 0.0594,0.90867 0.14596,1.06791 0.23816,0.438 1.05351,0.86838 2.19913,1.1608 1.2504,0.31917 3.77779,0.56118 5.2039,0.49829 l 0.80467,-0.0355 1.91244,1.91699 c 1.05184,1.05435 2.03766,1.99152 2.19071,2.08259 0.54785,0.32602 0.69006,0.33557 4.99613,0.33545 4.35729,-1.2e-4 4.58276,-0.0158 5.16978,-0.35969 0.39298,-0.23022 1.28267,-1.12558 2.21333,-2.22745 0.41579,-0.49228 0.91607,-1.06047 1.11173,-1.26266 l 0.35575,-0.36761 1.81063,0 c 1.71532,0 1.8248,-0.007 2.0798,-0.13508 0.35292,-0.17711 0.53886,-0.35177 0.70693,-0.66407 0.12295,-0.22846 0.14103,-0.38493 0.16959,-1.46748 l 0.032,-1.21175 0.23666,-0.12446 c 0.29558,-0.15546 0.43463,-0.4763 0.43463,-1.00284 l 0,-0.38357 -0.47365,-0.4942 -0.47364,-0.4942 -1.23654,-0.032 -1.23654,-0.032 -0.1015,-0.41556 c -0.12766,-0.52264 -0.30112,-0.86143 -0.5963,-1.16469 -0.99708,-1.02435 -2.72115,-0.86418 -3.48335,0.3236 -0.10916,0.17012 -0.25087,0.52246 -0.31491,0.78298 l -0.11643,0.47367 -6.81566,0.0163 c -6.45138,0.0154 -6.8173,0.0103 -6.84644,-0.0959 -0.0169,-0.0617 -0.0501,-0.22724 -0.0737,-0.36789 -0.092,-0.54874 -0.54217,-1.20298 -1.04076,-1.51265 -0.47829,-0.29705 -1.24921,-0.38262 -1.83308,-0.20345 z m 1.42746,0.68922 c 0.43746,0.22622 0.81413,0.76824 0.85068,1.2241 0.0185,0.23117 0.007,0.25184 -0.15521,0.27048 -0.1419,0.0163 -0.18858,-0.0141 -0.24519,-0.15983 -0.20377,-0.52463 -0.34882,-0.73801 -0.6029,-0.88691 -0.30498,-0.17873 -0.74439,-0.20731 -1.07346,-0.0698 -0.2564,0.10713 -0.60615,0.49682 -0.65514,0.72993 -0.0202,0.0961 -0.0595,0.2178 -0.0874,0.27054 -0.064,0.12114 -0.32751,0.1638 -0.38975,0.0631 -0.0562,-0.0909 0.033,-0.52104 0.15691,-0.75708 0.10554,-0.20098 0.51702,-0.60172 0.73045,-0.71138 0.37501,-0.19267 1.07102,-0.17997 1.47098,0.0269 z m 18.33728,0.0722 c 0.33742,0.19774 0.61119,0.55841 0.72067,0.94942 0.1025,0.3661 0.0553,0.49967 -0.16733,0.47306 -0.13736,-0.0164 -0.18434,-0.0707 -0.24765,-0.28623 -0.18402,-0.62649 -0.63003,-0.94893 -1.25049,-0.90405 -0.55882,0.0404 -0.9601,0.40406 -1.07947,0.97822 -0.0334,0.16092 -0.0703,0.1918 -0.22905,0.1918 -0.23984,0 -0.27814,-0.18394 -0.12292,-0.59037 0.36947,-0.96745 1.46946,-1.34326 2.37624,-0.81185 z m -10.75367,6.19713 0,0.25572 -1.27864,0 -1.27864,0 -0.0208,-0.18121 c -0.0426,-0.3719 -0.0631,-0.36647 1.31389,-0.34758 l 1.26414,0.0173 0,0.25573 z m 8.37511,0 0,0.25572 -1.27864,0 -1.27865,0 -0.0197,-0.27304 -0.0197,-0.27305 1.29836,0.0173 1.29837,0.0173 0,0.25573 z m -7.91041,1.36404 c 0.0626,0.0397 0.0772,0.40007 0.0639,1.58134 l -0.0172,1.52986 -1.69263,0.0171 -1.69263,0.0171 -1.55192,-1.55096 c -0.85356,-0.85302 -1.55193,-1.57275 -1.55193,-1.59939 0,-0.0653 6.3394,-0.0603 6.44235,0.005 z m 7.81451,10e-4 c 0,0.0602 -2.5287,3.01698 -2.64505,3.09281 -0.12957,0.0845 -3.58536,0.0583 -3.67144,-0.0278 -0.0811,-0.0811 -0.11544,-2.81673 -0.0379,-3.01876 0.0347,-0.0903 0.37608,-0.10113 3.1966,-0.10113 1.73679,0 3.1578,0.0247 3.1578,0.0549 z"
           style="fill:#ffffff" /><path
           inkscape:connector-curvature="0"
           id="path5312"
           d="m 518.48663,760.12999 c -0.74957,0.24535 -1.35619,0.97091 -1.50151,1.79592 l -0.0664,0.37719 -2.66409,0 c -2.29732,0 -2.68348,0.0136 -2.8049,0.0986 -0.0774,0.0542 -0.27199,0.28247 -0.43233,0.50717 l -0.29153,0.40854 0.0185,0.5637 0.0185,0.56369 0.28769,0.0898 c 0.15823,0.0494 0.30883,0.12133 0.33466,0.15983 0.0258,0.0385 0.0474,0.42386 0.048,0.85634 10e-4,0.8755 0.0453,1.02082 0.40663,1.33811 0.8658,0.76018 3.08577,1.22133 6.14739,1.27698 l 1.72617,0.0314 1.94993,1.93624 c 1.98349,1.96957 2.19915,2.14572 2.81301,2.29758 0.20385,0.0504 1.54537,0.0616 4.60311,0.0382 l 4.31542,-0.033 0.38065,-0.1869 c 0.47702,-0.23421 1.22104,-0.93895 2.19877,-2.08269 0.4058,-0.47469 0.93668,-1.08604 1.17974,-1.35855 l 0.44193,-0.49548 1.79931,-0.001 c 1.67171,-10e-4 1.81971,-0.0106 2.08701,-0.13163 0.35471,-0.16057 0.60838,-0.39528 0.789,-0.73005 0.1247,-0.23111 0.14,-0.37123 0.15898,-1.45569 l 0.021,-1.19995 0.21379,-0.0893 c 0.31405,-0.13122 0.43091,-0.3552 0.46278,-0.88698 l 0.0275,-0.4597 -0.51821,-0.51146 -0.5182,-0.51146 -1.22869,-0.032 -1.22868,-0.032 -0.0448,-0.31363 c -0.0627,-0.43921 -0.38898,-1.06739 -0.70076,-1.34907 -0.43886,-0.39648 -0.8959,-0.57132 -1.49347,-0.57132 -0.41789,0 -0.57783,0.0308 -0.87428,0.16828 -0.71464,0.33147 -1.20877,0.97941 -1.3162,1.72592 l -0.0489,0.33982 -6.8631,0 -6.8631,0 -0.12144,-0.47949 c -0.33872,-1.33741 -1.59713,-2.07139 -2.84892,-1.66165 z m 1.42044,0.62464 c 0.49478,0.25486 0.92056,0.87284 0.92373,1.34069 0.001,0.19545 -0.012,0.20778 -0.22437,0.20778 -0.22636,0 -0.24445,-0.0188 -0.31047,-0.32346 -0.0986,-0.45466 -0.64688,-0.89125 -1.11936,-0.89125 -0.29898,0 -0.74216,0.22349 -0.90968,0.45875 -0.0752,0.10562 -0.1719,0.31173 -0.21487,0.45802 -0.068,0.2314 -0.10433,0.26858 -0.2797,0.28604 -0.2707,0.0269 -0.31186,-0.1041 -0.17204,-0.54766 0.13702,-0.43468 0.58215,-0.90764 0.99769,-1.06005 0.37003,-0.13572 0.97085,-0.10307 1.30907,0.0711 z m 18.22677,0.002 c 0.52264,0.26663 0.91478,0.82512 0.9176,1.30685 0.001,0.23139 -0.006,0.23974 -0.22114,0.23974 -0.19085,0 -0.22801,-0.025 -0.26092,-0.17581 -0.0754,-0.34553 -0.17469,-0.53073 -0.38201,-0.71276 -0.28626,-0.25134 -0.61091,-0.34935 -0.97589,-0.29462 -0.39562,0.0593 -0.8027,0.45238 -0.91905,0.88737 -0.0785,0.29365 -0.0869,0.30135 -0.30641,0.28286 -0.21556,-0.0181 -0.22489,-0.029 -0.20823,-0.24276 0.0456,-0.58404 0.54633,-1.18802 1.15202,-1.38943 0.32064,-0.10662 0.89381,-0.0597 1.20403,0.0986 z m -10.60061,6.27123 c 0.013,0.18182 -0.01,0.30022 -0.0639,0.33467 -0.0959,0.0608 -2.29024,0.0756 -2.44432,0.0165 -0.0701,-0.0269 -0.10113,-0.1216 -0.10113,-0.30901 0,-0.14861 0.0198,-0.28997 0.0439,-0.31413 0.0242,-0.0242 0.60674,-0.0362 1.29462,-0.0266 l 1.25069,0.0173 0.0201,0.28135 z m 8.37511,0 c 0.013,0.18182 -0.01,0.30022 -0.0639,0.33467 -0.0462,0.0293 -0.60705,0.0538 -1.24626,0.0543 -0.9722,8.2e-4 -1.17862,-0.0154 -1.26266,-0.0995 -0.11622,-0.11623 -0.12919,-0.3018 -0.0336,-0.48047 0.0634,-0.1185 0.13246,-0.1241 1.32659,-0.10768 l 1.25969,0.0173 0.0201,0.28135 z m -0.0841,1.39075 c 0,0.0406 -0.598,0.76745 -1.32887,1.61524 l -1.32887,1.54145 -1.86774,-0.0169 -1.86773,-0.0169 0,-1.56633 0,-1.56634 1.82206,-0.0341 c 2.98229,-0.0558 4.57115,-0.0405 4.57115,0.0439 z m -7.76775,1.55647 0,1.5983 -1.7391,0 -1.73909,0 -1.52144,-1.51662 c -0.8368,-0.83414 -1.52145,-1.55338 -1.52145,-1.5983 0,-0.0652 0.65711,-0.0817 3.26054,-0.0817 l 3.26054,0 0,1.59831 z"
           style="fill:#ffffff" /><path
           inkscape:connector-curvature="0"
           id="path5310"
           d="m 518.74691,760.05847 c -0.32207,0.0829 -0.75055,0.31118 -1.02473,0.54587 -0.31736,0.27164 -0.6496,0.88252 -0.70312,1.2928 -0.0222,0.17053 -0.0688,0.34602 -0.10338,0.38997 -0.0485,0.0616 -0.67198,0.0799 -2.72727,0.0799 l -2.66435,0 -0.22463,0.23974 c -0.51985,0.55484 -0.5685,0.66165 -0.5685,1.24813 0,0.51387 0.007,0.54068 0.16284,0.61162 0.0896,0.0408 0.21327,0.0742 0.27491,0.0742 0.22893,0 0.2655,0.13047 0.2655,0.94708 0,0.698 0.0169,0.82365 0.13994,1.04262 0.53652,0.95462 3.08294,1.58217 6.59957,1.62644 l 1.59298,0.02 1.95525,1.95098 c 1.80794,1.80399 1.98898,1.96632 2.40278,2.15446 l 0.44753,0.20347 4.30819,-0.0129 c 4.13727,-0.0124 4.32179,-0.018 4.65062,-0.14105 0.67711,-0.25334 1.32422,-0.86248 2.9113,-2.74048 0.37145,-0.43953 0.80805,-0.92142 0.97022,-1.07086 l 0.29486,-0.27171 1.8033,0 c 1.69847,0 1.81936,-0.008 2.0793,-0.1336 0.32987,-0.15969 0.61421,-0.48626 0.71432,-0.82041 0.0412,-0.1375 0.0734,-0.68581 0.0738,-1.25906 9.4e-4,-1.1012 0.0277,-1.30319 0.1728,-1.30319 0.0522,0 0.19266,-0.0978 0.31221,-0.21737 0.21046,-0.21047 0.21734,-0.23332 0.21663,-0.71924 l -7.4e-4,-0.50187 -0.46896,-0.4635 -0.46896,-0.46351 -1.17655,-9.8e-4 c -0.64711,-5.1e-4 -1.20899,-0.0221 -1.24864,-0.048 -0.0396,-0.0258 -0.0926,-0.17643 -0.11759,-0.33466 -0.11639,-0.73594 -0.59839,-1.3917 -1.28076,-1.74249 -0.33251,-0.17093 -0.45172,-0.19749 -0.89505,-0.19945 -0.45357,-0.002 -0.5569,0.0212 -0.91293,0.20453 -0.6993,0.36019 -1.15693,0.97783 -1.26361,1.70544 -0.0258,0.17581 -0.0788,0.3408 -0.11791,0.36663 -0.0391,0.0258 -3.12678,0.0474 -6.86158,0.048 -6.64869,9.6e-4 -6.79191,-0.002 -6.85671,-0.12268 -0.0364,-0.068 -0.0662,-0.1964 -0.0662,-0.2853 0,-0.30104 -0.26124,-0.86198 -0.5521,-1.18548 -0.4968,-0.55257 -1.41993,-0.87498 -2.04465,-0.71412 z m 1.29039,0.74448 c 0.37368,0.23104 0.65562,0.61184 0.76383,1.03167 0.0921,0.3573 0.033,0.53289 -0.17896,0.53143 -0.20607,-10e-4 -0.26651,-0.0635 -0.35419,-0.36375 -0.15532,-0.53185 -0.578,-0.86474 -1.09801,-0.86474 -0.53017,0 -0.95981,0.34684 -1.09507,0.88401 -0.054,0.21431 -0.10813,0.29225 -0.22317,0.32112 -0.23087,0.0579 -0.344,-0.0143 -0.344,-0.21984 0,-0.45197 0.3151,-0.97766 0.76711,-1.27979 0.36081,-0.24118 0.43913,-0.26043 0.99725,-0.24511 0.38028,0.0104 0.50418,0.0436 0.76521,0.205 z m 18.10779,-0.0606 c 0.42835,0.21346 0.75757,0.60116 0.8862,1.04361 0.11269,0.38765 0.0702,0.53516 -0.16431,0.56994 -0.18848,0.028 -0.30158,-0.0767 -0.35124,-0.32495 -0.10401,-0.52005 -0.55793,-0.88934 -1.09316,-0.88934 -0.54612,0 -0.96858,0.33797 -1.11627,0.89302 -0.0803,0.30193 -0.17262,0.36771 -0.42649,0.30399 -0.15793,-0.0396 -0.1656,-0.0591 -0.12891,-0.32676 0.15219,-1.11032 1.39315,-1.76834 2.39418,-1.26951 z m -10.56805,6.32364 0,0.31966 -1.306,0.0173 c -1.40428,0.0186 -1.40823,0.0178 -1.41014,-0.31579 -0.002,-0.38778 -0.0443,-0.37698 1.39687,-0.35813 l 1.31927,0.0173 0,0.31966 z m 8.36826,-0.2505 c 0.0678,0.17671 0.0419,0.45603 -0.0493,0.53174 -0.0612,0.0508 -0.47551,0.0678 -1.35856,0.0558 l -1.27043,-0.0174 -0.0202,-0.24647 c -0.0363,-0.44148 -0.0894,-0.42482 1.35397,-0.42482 1.13172,0 1.31095,0.0135 1.34458,0.10113 z m -7.88906,1.59289 c 0.0978,0.0605 0.0859,3.0536 -0.0125,3.15203 -0.0557,0.0557 -0.53148,0.0767 -1.73955,0.0767 l -1.66283,0 -1.59375,-1.59012 c -1.09355,-1.09105 -1.57781,-1.61591 -1.54296,-1.6723 0.0408,-0.066 0.68381,-0.0747 3.26908,-0.0441 1.77006,0.021 3.24719,0.0559 3.28251,0.0778 z m 7.78503,0.0186 c -0.0164,0.0629 -0.6159,0.79647 -1.33214,1.63026 l -1.30226,1.51599 -1.90388,0 -1.90389,0 0,-1.58765 c 0,-0.8732 0.0192,-1.60682 0.0426,-1.63027 0.0234,-0.0234 1.47966,-0.0426 3.23603,-0.0426 3.03544,0 3.19193,0.006 3.16352,0.11429 z"
           style="fill:#ffffff" /><path
           inkscape:connector-curvature="0"
           id="path5308"
           d="m 518.88227,760.04578 c -0.31738,0.0474 -0.85944,0.33336 -1.16361,0.61373 -0.34496,0.31798 -0.57167,0.74446 -0.67977,1.27876 l -0.0803,0.39679 -2.74623,0.0337 c -1.51043,0.0185 -2.75249,0.0401 -2.76014,0.048 -0.008,0.008 -0.13712,0.17968 -0.2877,0.38187 -0.15058,0.20219 -0.30974,0.40563 -0.35369,0.45209 -0.0507,0.0536 -0.0799,0.27829 -0.0799,0.61515 l 0,0.53067 0.33564,0.0932 0.33565,0.0932 0.0343,0.85802 c 0.0253,0.63195 0.0628,0.91124 0.14252,1.06004 0.34629,0.64671 1.6044,1.13509 3.67894,1.42811 1.12155,0.15841 2.95116,0.25852 3.83197,0.20968 l 0.65523,-0.0363 1.93402,1.95602 c 1.80165,1.82214 1.96683,1.97193 2.41351,2.18853 l 0.47949,0.23252 4.30586,-0.009 c 2.36823,-0.005 4.35332,-0.0337 4.41132,-0.0639 0.058,-0.0302 0.27058,-0.1313 0.47242,-0.22468 0.49357,-0.22835 1.19574,-0.90081 2.33509,-2.23632 0.51113,-0.59913 1.06057,-1.22597 1.22098,-1.39299 l 0.29167,-0.30368 1.80067,0 c 1.98146,0 2.05415,-0.0116 2.49473,-0.39844 0.39097,-0.34328 0.433,-0.51031 0.47068,-1.87071 l 0.0336,-1.21428 0.21534,-0.10151 c 0.35837,-0.16894 0.45291,-0.34916 0.45453,-0.86644 l 0.001,-0.45563 -0.49548,-0.48635 -0.49547,-0.48636 -1.1909,-10e-4 c -0.87552,-7.4e-4 -1.20756,-0.0222 -1.25383,-0.0809 -0.0346,-0.0439 -0.0811,-0.21944 -0.10338,-0.38997 -0.0545,-0.41785 -0.39035,-1.02807 -0.70821,-1.28679 -0.74813,-0.60895 -1.51385,-0.7282 -2.27381,-0.35411 -0.70794,0.34848 -1.27864,1.115 -1.27864,1.71737 0,0.0974 -0.036,0.22607 -0.0799,0.28582 -0.0745,0.10123 -0.54782,0.10751 -6.94886,0.0921 l -6.86894,-0.0165 -0.0806,-0.43663 c -0.0963,-0.52191 -0.29605,-0.88381 -0.68627,-1.2435 -0.5014,-0.46218 -1.16289,-0.69456 -1.73402,-0.60915 z m 0.79362,0.5674 c 0.62516,0.18565 1.15958,0.83324 1.1788,1.42841 0.009,0.2878 0.005,0.29387 -0.20248,0.31382 -0.24728,0.0237 -0.39497,-0.0761 -0.39645,-0.26792 -0.002,-0.26342 -0.27545,-0.64156 -0.57216,-0.79132 -0.36257,-0.183 -0.67639,-0.18238 -1.02512,0.002 -0.28313,0.14972 -0.53206,0.51696 -0.60775,0.89659 -0.0332,0.16662 -0.0549,0.17799 -0.30482,0.15983 -0.32631,-0.0237 -0.35266,-0.10064 -0.20661,-0.60303 0.19292,-0.66362 0.91366,-1.21849 1.60308,-1.23414 0.1079,-0.002 0.34798,0.0406 0.53351,0.0957 z m 18.54597,0.12982 c 0.53037,0.28867 0.93774,0.93976 0.88357,1.41222 -0.0187,0.16288 -0.0441,0.17984 -0.26981,0.17984 -0.24441,0 -0.2513,-0.006 -0.35974,-0.33913 -0.12484,-0.38296 -0.30097,-0.59879 -0.60722,-0.74411 -0.6237,-0.29597 -1.35977,0.0928 -1.53563,0.81109 -0.0618,0.25238 -0.0836,0.27358 -0.29949,0.29175 -0.30911,0.026 -0.38067,-0.10655 -0.27621,-0.51167 0.2825,-1.09565 1.48576,-1.6327 2.46453,-1.09999 z m -10.68887,5.96259 c 0.0555,0.0352 0.0771,0.15914 0.0639,0.36663 l -0.0199,0.31348 -1.34258,0 -1.34257,0 -0.0191,-0.33035 c -0.0159,-0.27399 5.1e-4,-0.33544 0.0959,-0.36019 0.20609,-0.0535 2.47815,-0.0442 2.56434,0.0104 z m 8.34734,0.0271 c 0.0847,0.0619 0.10744,0.15272 0.0921,0.36761 l -0.0203,0.28538 -1.35856,0.0172 -1.35855,0.0173 0,-0.34757 c 0,-0.21824 0.0297,-0.35957 0.0799,-0.37982 0.0439,-0.0177 0.61384,-0.0345 1.26642,-0.0373 0.87288,-0.004 1.21624,0.0167 1.29897,0.0772 z m -0.0323,1.57359 c 0.0482,0.0306 0.077,0.0856 0.0639,0.12239 -0.0255,0.0717 -2.01184,2.40025 -2.47789,2.90481 l -0.28049,0.30368 -1.8325,0 c -1.34003,0 -1.85311,-0.0206 -1.90921,-0.0767 -0.0881,-0.0881 -0.11083,-3.03113 -0.0245,-3.16704 0.0381,-0.0601 0.62742,-0.0834 2.44442,-0.0967 1.3168,-0.01 2.73941,-0.024 3.16136,-0.0318 0.42195,-0.008 0.80665,0.0108 0.85489,0.0414 z m -7.75956,1.66865 0,1.63026 -1.75448,0.017 -1.75448,0.017 -1.5948,-1.59117 c -0.96081,-0.95861 -1.57695,-1.62006 -1.54988,-1.66385 0.0328,-0.0531 0.93403,-0.0682 3.34928,-0.0561 l 3.30436,0.0166 0,1.63027 z"
           style="fill:#ffffff" /><path
           inkscape:connector-curvature="0"
           id="path5306"
           d="m 518.68219,760.116 c 0.0172,0.0278 -0.10762,0.0998 -0.27732,0.16012 -0.655,0.23263 -1.23847,0.97997 -1.32312,1.69472 -0.0216,0.18221 -0.0738,0.35996 -0.11601,0.395 -0.0476,0.0395 -1.10425,0.07 -2.78238,0.0804 l -2.7056,0.0167 -0.30329,0.39511 c -0.1668,0.21732 -0.31906,0.37935 -0.33833,0.36007 -0.0672,-0.0672 -0.11158,0.27361 -0.0925,0.71071 0.0144,0.32857 0.0436,0.44557 0.11513,0.46103 0.0528,0.0114 0.18221,0.0395 0.2877,0.0624 0.33943,0.0738 0.35163,0.10712 0.35163,0.96143 0,0.52545 0.0295,0.86386 0.0872,1.00209 0.40323,0.96507 3.10209,1.63785 6.71163,1.6731 l 1.52445,0.0149 1.99182,1.98673 c 1.58909,1.58503 2.0543,2.01334 2.3008,2.11834 0.16994,0.0724 0.35144,0.13161 0.40335,0.13161 0.0519,0 0.0784,0.0258 0.059,0.0573 -0.0195,0.0315 0.0723,0.0675 0.204,0.0799 0.55994,0.053 8.41672,-0.0177 8.32618,-0.075 -0.0745,-0.0471 -0.0604,-0.0605 0.0646,-0.0613 0.0879,-5.6e-4 0.33774,-0.0852 0.55517,-0.18805 0.51103,-0.24176 1.19276,-0.89313 2.27772,-2.17628 0.46181,-0.54617 1.01546,-1.17284 1.23035,-1.39261 l 0.3907,-0.39957 1.81674,-10e-4 c 2.00302,-0.002 2.12569,-0.0222 2.50061,-0.42207 0.32762,-0.34938 0.37092,-0.55845 0.37198,-1.79611 5.1e-4,-0.62526 0.0221,-1.16562 0.048,-1.20078 0.0258,-0.0352 0.1524,-0.11264 0.28125,-0.17217 0.12886,-0.0595 0.2532,-0.16784 0.27632,-0.24068 0.0231,-0.0728 0.0687,-0.11593 0.10136,-0.0958 0.0346,0.0214 0.0593,-0.17946 0.0593,-0.48234 0,-0.28545 -0.0237,-0.50432 -0.0528,-0.48639 -0.029,0.0179 -0.25121,-0.16736 -0.49376,-0.41178 l -0.44099,-0.4444 -1.18446,-9.8e-4 c -0.65145,-5.1e-4 -1.21764,-0.0221 -1.2582,-0.048 -0.0406,-0.0258 -0.10311,-0.2052 -0.13902,-0.39859 -0.0855,-0.46036 -0.16272,-0.65393 -0.39667,-0.99397 -0.22201,-0.32268 -0.61268,-0.61194 -1.00609,-0.74493 -0.14975,-0.0506 -0.25268,-0.11161 -0.22875,-0.13555 0.0239,-0.0239 -0.19862,-0.0431 -0.49458,-0.0425 -0.29595,5.1e-4 -0.50266,0.0235 -0.45936,0.051 0.0499,0.0317 -0.0246,0.0777 -0.20377,0.12557 -0.65333,0.17474 -1.30583,0.98379 -1.40994,1.74823 -0.0258,0.1891 -0.0793,0.36496 -0.11901,0.39079 -0.0397,0.0258 -3.15669,0.0474 -6.92664,0.048 -6.71191,9.6e-4 -6.85585,-0.002 -6.92065,-0.12268 -0.0364,-0.068 -0.0662,-0.1964 -0.0662,-0.2853 0,-0.31432 -0.27107,-0.89156 -0.5675,-1.20847 -0.28474,-0.30441 -0.79415,-0.62019 -1.00048,-0.62019 -0.056,0 -0.084,-0.0288 -0.0623,-0.0639 0.0251,-0.0406 -0.14977,-0.0639 -0.47949,-0.0639 -0.28546,0 -0.50495,0.0227 -0.48778,0.0505 z m 1.23968,0.54126 c 0.51885,0.24038 1.03819,1.00162 1.03819,1.52175 0,0.17031 -0.1616,0.26198 -0.42326,0.24009 -0.22795,-0.0191 -0.24432,-0.0356 -0.31623,-0.31881 -0.0417,-0.16429 -0.13636,-0.38371 -0.21034,-0.4876 -0.27396,-0.38474 -0.88262,-0.50931 -1.33828,-0.27389 -0.2787,0.14399 -0.39324,0.30478 -0.52748,0.74053 -0.0957,0.31061 -0.10598,0.32022 -0.3635,0.33912 -0.3374,0.0248 -0.42005,-0.0984 -0.33122,-0.49376 0.25804,-1.14846 1.43096,-1.7498 2.47212,-1.26743 z m 18.16165,-0.0408 c 0.54575,0.22133 0.99357,0.80387 1.07507,1.39848 0.0468,0.34153 -0.0117,0.41348 -0.33766,0.41507 -0.23296,10e-4 -0.29396,-0.0638 -0.39618,-0.4219 -0.14758,-0.51692 -0.507,-0.79183 -1.03526,-0.79183 -0.48258,0 -0.9233,0.36874 -0.99784,0.83486 -0.0505,0.31579 -0.14534,0.39316 -0.45103,0.36799 -0.22456,-0.0185 -0.24584,-0.037 -0.26444,-0.23056 -0.0111,-0.11575 0.0251,-0.34681 0.0804,-0.51348 0.31267,-0.94139 1.39823,-1.43526 2.32692,-1.05863 z m -10.44255,6.44961 0,0.38359 -1.40651,0 -1.4065,0 -0.0198,-0.31154 c -0.0331,-0.52092 -0.12059,-0.49221 1.44077,-0.47288 l 1.39205,0.0172 0,0.3836 z m 8.39553,-0.13396 c 0.0112,0.1373 0.003,0.31767 -0.0175,0.40082 l -0.0379,0.15118 -1.389,-0.0172 -1.38899,-0.0172 -0.0198,-0.31154 c -0.0331,-0.52092 -0.12059,-0.49221 1.44077,-0.47288 l 1.39205,0.0172 0.0204,0.24964 z m -7.97577,1.38288 c 0.11715,0.0627 0.12366,0.14955 0.12366,1.64945 0,1.14619 -0.0212,1.60444 -0.0767,1.65998 -0.0559,0.0559 -0.54569,0.0767 -1.80353,0.0767 l -1.72681,0 -1.62649,-1.62292 c -1.17962,-1.17703 -1.61561,-1.65129 -1.58688,-1.72617 0.0358,-0.0932 0.3583,-0.10324 3.30636,-0.10324 2.12959,0 3.30979,0.023 3.39041,0.0662 z m 7.89141,0.0717 c 0,0.14678 -2.58296,3.15875 -2.78532,3.24794 -0.19239,0.0848 -3.72425,0.0675 -3.81044,-0.0186 -0.0839,-0.0839 -0.10419,-3.08429 -0.0219,-3.23812 0.0689,-0.12878 0.10666,-0.13006 3.34367,-0.11369 2.99844,0.0152 3.27396,0.0255 3.27396,0.12248 z"
           style="fill:#ffffff" /></g></g></g></svg>