<?xml version="1.0" encoding="utf-8"?>
<!-- Generated by IcoMoon.io -->
<!DOCTYPE svg PUBLIC "-//W3C//DTD SVG 1.1//EN" "http://www.w3.org/Graphics/SVG/1.1/DTD/svg11.dtd">
<svg version="1.1" xmlns="http://www.w3.org/2000/svg" xmlns:xlink="http://www.w3.org/1999/xlink" width="512" height="512" viewBox="0 0 512 512">
<g>
</g>
	<path d="M327.844 274.545c7.598 1.976 14.224 0.656 19.538-4.639l10.26-101.642c1.137-9.605-1.003-15.524 9.923-16.999 29.461 0 59.085 0 88.699 0 8.601 19.477 17.377 38.881 25.979 58.398 4.976 4.956 9.943 9.923 14.899 15.063 0 19.681 0 39.536 0 59.238-9.442 8.264-7.936 14.080 4.803 17.521 0 6.318 0 12.442 0 18.739-22.835 0-45.68 0-68.495 0-2.181-3.635-4.485-7.281-6.8-11.1l-6.615-3.144c2.642 5.622 3.983 11.735 3.983 18.381 0 24.505-20.357 44.524-45.517 44.524s-45.701-20.029-45.701-44.524c0-4.495 0.656-8.776 1.976-12.923-2.325 0.839-4.618 1.157-6.942 0.839v1.137h-3.983l-8.12 16.22h-10.578l6.8-16.22h-33.116v7.465h-38.892c2.171 5.12 3.308 10.578 3.308 16.538 0 24.505-20.357 44.524-45.66 44.524-25.17 0-45.527-20.019-45.527-44.524 0-8.96 2.652-17.039 7.127-24.002h-32.768c4.454 6.963 7.117 15.043 7.117 24.002 0 24.505-20.368 44.524-45.517 44.524-25.17 0-45.691-20.019-45.691-44.524 0-8.96 2.652-17.039 7.127-24.002h-39.394v-183.357h317.778v144.487zM376.842 229.519v8.263h38.564v-8.263h-38.564zM413.737 157.696v58.082h63.222l-23.163-58.082h-40.059zM211.487 313.416h-27.812c-8.428 4.823-14.233 13.742-14.233 24.002 0 15.063 12.759 27.484 28.15 27.484 15.544 0 28.119-12.421 28.119-27.484 0-10.26-5.601-19.18-14.224-24.002v0zM101.918 313.416h-27.781c-8.653 4.823-14.254 13.742-14.254 24.002 0 15.063 12.575 27.484 28.14 27.484 15.544 0 28.119-12.421 28.119-27.484 0-10.26-5.775-19.18-14.224-24.002v0zM378.481 296.704c-15.575 0-28.139 12.421-28.139 27.658 0 15.043 12.565 27.464 28.139 27.464 15.565 0 28.139-12.421 28.139-27.464 0-15.237-12.585-27.658-28.139-27.658z" fill="#000000" />
</svg>
