<?xml version="1.0" encoding="UTF-8" standalone="no"?>
<!-- Created with Inkscape (http://www.inkscape.org/) -->

<svg
   xmlns:dc="http://purl.org/dc/elements/1.1/"
   xmlns:cc="http://creativecommons.org/ns#"
   xmlns:rdf="http://www.w3.org/1999/02/22-rdf-syntax-ns#"
   xmlns:svg="http://www.w3.org/2000/svg"
   xmlns="http://www.w3.org/2000/svg"
   xmlns:sodipodi="http://sodipodi.sourceforge.net/DTD/sodipodi-0.dtd"
   xmlns:inkscape="http://www.inkscape.org/namespaces/inkscape"
   id="svg2"
   version="1.1"
   inkscape:version="0.48.5 r10040"
   width="318.8975"
   height="177.165"
   xml:space="preserve"
   sodipodi:docname="New document 1"><metadata
     id="metadata8"><rdf:RDF><cc:Work
         rdf:about=""><dc:format>image/svg+xml</dc:format><dc:type
           rdf:resource="http://purl.org/dc/dcmitype/StillImage" /><dc:title></dc:title></cc:Work></rdf:RDF></metadata><defs
     id="defs6"><clipPath
       clipPathUnits="userSpaceOnUse"
       id="clipPath16"><path
         d="m 0,141.732 255.118,0 L 255.118,0 0,0 0,141.732 z"
         id="path18" /></clipPath><clipPath
       clipPathUnits="userSpaceOnUse"
       id="clipPath216"><path
         d="m 0,141.732 255.118,0 L 255.118,0 0,0 0,141.732 z"
         id="path218" /></clipPath></defs><sodipodi:namedview
     pagecolor="#ffffff"
     bordercolor="#666666"
     borderopacity="1"
     objecttolerance="10"
     gridtolerance="10"
     guidetolerance="10"
     inkscape:pageopacity="0"
     inkscape:pageshadow="2"
     inkscape:window-width="640"
     inkscape:window-height="480"
     id="namedview4"
     showgrid="false" /><g
     id="g10"
     inkscape:groupmode="layer"
     inkscape:label="Wyobi-BC-Fanie-OUTLINES"
     transform="matrix(1.25,0,0,-1.25,0,177.165)"><g
       id="g3337"
       inkscape:export-filename="/Users/weareu/Downloads/Wyobi-BCards/logo_tech_small.png"
       inkscape:export-xdpi="90"
       inkscape:export-ydpi="90"
       transform="matrix(0.89177781,0,0,0.89177781,1.2276433,14.135396)"><g
         inkscape:export-filename="/Users/weareu/Downloads/Wyobi-BCards/logo_m.png"
         inkscape:export-ydpi="90"
         inkscape:export-xdpi="90"
         transform="matrix(0.96552525,0,0,0.96552525,-119.95998,36.409247)"
         id="g212"><g
           clip-path="url(#clipPath216)"
           id="g214"><path
             inkscape:connector-curvature="0"
             id="path220"
             style="fill:#86afb7;fill-opacity:1;fill-rule:nonzero;stroke:none"
             d="m 181.291,83.422 -6.048,-13.397 -6.601,13.397 -2.619,0 -1.099,0 -2.509,0 -5.609,-12.651 -5.83,14.103 -5.831,-14.103 -5.522,12.651 -3.631,0 9.176,-20.019 5.808,13.948 5.762,-13.948 8.76,18.888 8.028,-15.809 -8.237,-16.775 4.89,2.506 14.741,31.209 -3.629,0 z" /><path
             inkscape:connector-curvature="0"
             id="path222"
             style="fill:#86afb7;fill-opacity:1;fill-rule:nonzero;stroke:none"
             d="m 193.416,80.937 c -2.134,0.021 -3.828,-0.793 -5.103,-2.42 -0.99,-1.254 -1.473,-2.729 -1.473,-4.421 0,-2.004 0.569,-3.676 1.736,-4.974 1.211,-1.385 2.793,-2.068 4.776,-2.068 2.175,0 3.937,0.813 5.234,2.42 0.971,1.212 1.452,2.707 1.452,4.511 0,2.001 -0.618,3.674 -1.826,4.972 -1.209,1.298 -2.795,1.959 -4.796,1.98 m 0.022,2.904 c 2.924,0.022 5.367,-1.035 7.35,-3.212 1.692,-1.848 2.528,-4.048 2.528,-6.622 0,-2.993 -1.098,-5.455 -3.278,-7.392 -1.848,-1.648 -4.07,-2.464 -6.665,-2.464 -1.827,0 -3.521,0.46 -5.083,1.385 -1.541,0.946 -2.727,2.222 -3.586,3.83 -0.769,1.451 -1.143,3.057 -1.143,4.794 0,2.73 1.034,5.061 3.08,7.019 1.846,1.759 4.112,2.639 6.797,2.662" /><path
             inkscape:connector-curvature="0"
             id="path224"
             style="fill:#86afb7;fill-opacity:1;fill-rule:nonzero;stroke:none"
             d="m 214.824,80.937 c -1.914,0.021 -3.518,-0.705 -4.817,-2.222 -0.99,-1.121 -1.475,-2.683 -1.475,-4.664 0,-1.98 0.53,-3.607 1.606,-4.905 1.144,-1.388 2.684,-2.092 4.621,-2.092 1.957,0 3.518,0.751 4.683,2.268 0.991,1.275 1.498,2.816 1.498,4.619 0,2.289 -0.704,4.093 -2.113,5.412 -1.099,1.033 -2.441,1.563 -4.003,1.584 m -6.072,16.632 0,-16.83 c 1.783,2.067 3.961,3.102 6.534,3.102 2.707,0 4.95,-1.035 6.689,-3.081 1.496,-1.76 2.243,-3.982 2.243,-6.664 0,-3.147 -0.968,-5.633 -2.926,-7.503 -1.693,-1.626 -3.717,-2.442 -6.072,-2.442 -2.598,0 -4.751,1.055 -6.468,3.146 l 0,-2.598 -3.212,0 0,32.87 3.212,0 z" /><path
             inkscape:connector-curvature="0"
             id="path226"
             style="fill:#485563;fill-opacity:1;fill-rule:nonzero;stroke:none"
             d="m 228.986,91.136 c 1.256,0 2.288,-1.033 2.288,-2.287 0,-1.299 -1.011,-2.311 -2.309,-2.311 -1.299,0 -2.287,1.034 -2.287,2.332 0,1.253 1.055,2.266 2.308,2.266" /><path
             inkscape:connector-curvature="0"
             id="path228"
             style="fill:#86afb7;fill-opacity:1;fill-rule:nonzero;stroke:none"
             d="m 230.556,64.699 -3.212,0 0,18.723 3.212,0 0,-18.723 z" /><path
             inkscape:connector-curvature="0"
             id="path230"
             style="fill:#485563;fill-opacity:1;fill-rule:nonzero;stroke:none"
             d="m 164.403,47.563 c 0,0 5.807,3.839 19.937,8.346 16.561,5.28 46.077,7.026 46.077,7.026 0,0 -26.824,-2.718 -43.56,-8.29 -14.585,-4.857 -24.143,-10.669 -24.143,-10.669 l 1.689,3.587 z" /><path
             inkscape:connector-curvature="0"
             id="path232"
             style="fill:#485563;fill-opacity:1;fill-rule:nonzero;stroke:none"
             d="m 236.862,85.927 -1.106,0 0,0.785 3.174,0 0,-0.785 -1.129,0 0,-3.348 -0.939,0 0,3.348 z" /><path
             inkscape:connector-curvature="0"
             id="path234"
             style="fill:#485563;fill-opacity:1;fill-rule:nonzero;stroke:none"
             d="m 242.896,84.161 c -0.017,0.497 -0.036,1.098 -0.036,1.699 l -0.018,0 c -0.129,-0.527 -0.299,-1.115 -0.459,-1.601 l -0.502,-1.612 -0.732,0 -0.442,1.595 c -0.134,0.49 -0.275,1.079 -0.373,1.618 l -0.013,0 c -0.024,-0.558 -0.042,-1.195 -0.072,-1.711 l -0.073,-1.57 -0.866,0 0.265,4.133 1.242,0 0.406,-1.379 c 0.13,-0.472 0.257,-0.993 0.35,-1.479 l 0.02,0 c 0.115,0.479 0.256,1.025 0.39,1.486 l 0.442,1.372 1.221,0 0.226,-4.133 -0.913,0 -0.063,1.582 z" /></g></g><text
         transform="scale(1,-1)"
         sodipodi:linespacing="127%"
         id="text3329"
         y="-100.40001"
         x="112"
         style="font-size:32px;font-style:normal;font-weight:normal;line-height:126.99999809%;letter-spacing:0px;word-spacing:0px;fill:#000000;fill-opacity:1;stroke:none;font-family:Sans"
         xml:space="preserve"><tspan
           style="font-size:11.19999981px;font-style:normal;font-variant:normal;font-weight:normal;font-stretch:normal;text-align:start;line-height:126.99999809%;writing-mode:lr-tb;text-anchor:start;fill:#b3b3b3;font-family:Verdana;-inkscape-font-specification:Verdana"
           y="-100.40001"
           x="112"
           id="tspan3331"
           sodipodi:role="line">TECHNOLOGIES</tspan></text>
</g><text
       xml:space="preserve"
       style="font-size:40px;font-style:normal;font-weight:normal;line-height:125%;letter-spacing:0px;word-spacing:0px;fill:#000000;fill-opacity:1;stroke:none;font-family:Sans"
       x="207"
       y="20.164993"
       id="text3333"
       sodipodi:linespacing="125%"
       transform="matrix(0.8,0,0,-0.8,0,141.732)"><tspan
         sodipodi:role="line"
         id="tspan3335"
         x="207"
         y="20.164993" /></text>
</g></svg>